<svg width="30" height="29" viewBox="0 0 30 29" fill="none" xmlns="http://www.w3.org/2000/svg">
<path fill-rule="evenodd" clip-rule="evenodd" d="M15 0C12.0333 0 9.13319 0.85041 6.66645 2.44369C4.19972 4.03697 2.27713 6.30156 1.14181 8.95109C0.00649926 11.6006 -0.290551 14.5161 0.288228 17.3288C0.867006 20.1415 2.29562 22.7252 4.3934 24.753C6.49119 26.7809 9.16394 28.1619 12.0737 28.7214C14.9834 29.2809 17.9994 28.9937 20.7403 27.8962C23.4811 26.7988 25.8238 24.9403 27.472 22.5558C29.1203 20.1712 30 17.3678 30 14.5C30 12.5958 29.612 10.7103 28.8582 8.95109C28.1044 7.19187 26.9995 5.5934 25.6066 4.24695C24.2137 2.9005 22.5601 1.83244 20.7403 1.10375C18.9204 0.375054 16.9698 0 15 0ZM20.295 19.6185C20.1908 19.7197 20.0669 19.8 19.9304 19.8548C19.794 19.9095 19.6477 19.9377 19.5 19.9377C19.3523 19.9377 19.206 19.9095 19.0696 19.8548C18.9331 19.8 18.8093 19.7197 18.705 19.6185L14.205 15.2685C14.1003 15.1678 14.0173 15.048 13.9606 14.9161C13.904 14.7842 13.8749 14.6428 13.875 14.5V7.25C13.875 6.96158 13.9935 6.68497 14.2045 6.48102C14.4155 6.27707 14.7016 6.1625 15 6.1625C15.2984 6.1625 15.5845 6.27707 15.7955 6.48102C16.0065 6.68497 16.125 6.96158 16.125 7.25V14.049L20.295 18.0815C20.3995 18.1824 20.4824 18.3022 20.539 18.434C20.5955 18.5659 20.6246 18.7072 20.6246 18.85C20.6246 18.9927 20.5955 19.1341 20.539 19.266C20.4824 19.3978 20.3995 19.5176 20.295 19.6185Z" fill="#CC423F"/>
</svg>
