<svg width="30" height="23" viewBox="0 0 30 23" fill="none" xmlns="http://www.w3.org/2000/svg">
<path d="M0.640909 2.43875C1.00693 1.84823 1.51525 1.36075 2.1185 1.02175C2.72176 0.682745 3.4003 0.503253 4.09091 0.5H25.9091C26.5997 0.503253 27.2782 0.682745 27.8815 1.02175C28.4848 1.36075 28.9931 1.84823 29.3591 2.43875L15 12.5725L0.640909 2.43875ZM30 5.34L20.5909 11.9813L29.5909 20.135C29.8591 19.5876 29.9991 18.9855 30 18.375V5.34ZM0 5.34V18.375C0.000945865 18.9855 0.140906 19.5876 0.409091 20.135L9.40909 11.9813L0 5.34ZM18.3 13.59L15.7773 15.3638C15.549 15.5234 15.2778 15.609 15 15.609C14.7222 15.609 14.451 15.5234 14.2227 15.3638L11.7 13.6037L2.34545 22.0875C2.88828 22.3579 3.48545 22.499 4.09091 22.5H25.9091C26.5186 22.4964 27.1196 22.3554 27.6682 22.0875L18.3 13.59Z" fill="#CC423F"/>
</svg>
