<svg width="30" height="29" viewBox="0 0 30 29" fill="none" xmlns="http://www.w3.org/2000/svg">
<path d="M28.1533 20.4178L24.4127 17.3003C23.8877 16.8291 23.2783 16.5934 22.6127 16.6206C21.4221 16.675 20.5689 17.5813 20.4939 17.6628C20.1939 17.98 19.8096 18.1431 19.3221 18.1522C18.0283 18.1975 16.1252 17.2006 14.2502 15.4878C12.3658 13.8113 11.2033 12.0531 11.1564 10.7844C11.1377 10.3222 11.2783 9.94157 11.5689 9.64251C11.6721 9.54282 12.5439 8.65469 12.5158 7.51282C12.5064 6.87844 12.2158 6.28938 11.7189 5.84532L8.19393 2.40157C7.65956 1.91219 6.97518 1.66751 6.21581 1.68563C5.47518 1.71282 4.79081 2.01188 4.29393 2.53751L2.25018 4.65813C1.32206 5.61876 0.881435 6.84219 0.956435 8.27407C1.12518 11.6363 4.27519 16.24 9.34706 20.5538C14.1283 25.1213 19.0408 27.8309 22.5096 27.8309H22.6408C24.1221 27.8038 25.3502 27.2963 26.2783 26.3356L28.3221 24.215C29.3627 23.1366 29.3064 21.4419 28.1908 20.4359C28.1908 20.4359 28.1721 20.4178 28.1627 20.4088L28.1533 20.4178Z" fill="#CC423F"/>
<path d="M16.8188 5.60059C16.3032 5.60059 15.8813 5.99934 15.8813 6.49777C15.8813 6.99621 16.2938 7.40402 16.8095 7.41309C18.3563 7.42215 19.8001 8.01121 20.897 9.07152C21.9938 10.1318 22.6313 11.609 22.6126 13.1496C22.6126 13.6481 23.0157 14.065 23.5313 14.074H23.5501C24.0563 14.074 24.4782 13.6753 24.4876 13.1859C24.5251 11.1468 23.7188 9.23465 22.2282 7.79371C20.7376 6.35277 18.872 5.62777 16.8376 5.60965L16.8188 5.60059Z" fill="#CC423F"/>
<path d="M16.8002 2.98157C19.5752 2.99063 22.1721 4.04188 24.1408 5.93594C26.1377 7.86626 27.2252 10.44 27.1971 13.1678C27.1971 13.6663 27.6096 14.0741 28.1252 14.0831C28.6408 14.0831 29.0533 13.6844 29.0627 13.1859C29.1002 9.95969 27.8158 6.93282 25.4627 4.64907C23.1096 2.36532 20.0814 1.17813 16.8096 1.16907C16.2939 1.16907 15.8721 1.57688 15.8721 2.07532C15.8721 2.57375 16.2846 2.98157 16.8096 2.98157H16.8002Z" fill="#CC423F"/>
</svg>
