<svg width="30" height="29" fill="none" xmlns="http://www.w3.org/2000/svg"><path fill-rule="evenodd" clip-rule="evenodd" d="M15 0c-2.967 0-5.867.85-8.334 2.444A14.618 14.618 0 001.142 8.95a14.052 14.052 0 00-.854 8.378 14.357 14.357 0 004.105 7.424 15.167 15.167 0 007.68 3.968c2.91.56 5.926.273 8.667-.825a14.902 14.902 0 006.732-5.34A14.158 14.158 0 0030 14.5c0-1.904-.388-3.79-1.142-5.549a14.477 14.477 0 00-3.251-4.704 15.046 15.046 0 00-4.867-3.143A15.45 15.45 0 0015 0zm5.295 19.619a1.157 1.157 0 01-1.59 0l-4.5-4.35a1.07 1.07 0 01-.244-.353 1.053 1.053 0 01-.086-.416V7.25c0-.288.118-.565.33-.769a1.147 1.147 0 011.591 0c.21.204.329.48.329.769v6.799l4.17 4.032a1.056 1.056 0 010 1.537z" fill="#CC423F"/></svg>