<svg width="30" height="23" fill="none" xmlns="http://www.w3.org/2000/svg"><path d="M.64 2.439a4.106 4.106 0 011.478-1.417A4.065 4.065 0 014.091.5h21.818c.69.003 1.37.183 1.973.522a4.105 4.105 0 011.477 1.417L15 12.572.64 2.44zM30 5.34l-9.41 6.641 9 8.154c.27-.547.41-1.15.41-1.76V5.34zm-30 0v13.035c0 .61.14 1.213.41 1.76l9-8.154L0 5.34zm18.3 8.25l-2.523 1.774a1.357 1.357 0 01-1.554 0l-2.523-1.76-9.355 8.483c.543.27 1.14.412 1.746.413h21.818a4.063 4.063 0 001.76-.413L18.3 13.59z" fill="#CC423F"/></svg>