<svg width="30" height="29" fill="none" xmlns="http://www.w3.org/2000/svg"><path d="M28.153 20.418l-3.74-3.118c-.525-.47-1.135-.707-1.8-.68-1.19.055-2.044.961-2.12 1.043-.3.317-.683.48-1.17.49-1.295.045-3.198-.952-5.073-2.665-1.884-1.677-3.047-3.435-3.094-4.704-.018-.462.122-.842.413-1.141.103-.1.975-.988.947-2.13-.01-.635-.3-1.224-.797-1.668L8.194 2.402c-.534-.49-1.219-.734-1.978-.716a2.76 2.76 0 00-1.922.852L2.25 4.658C1.322 5.618.881 6.842.956 8.274c.17 3.362 3.32 7.966 8.391 12.28 4.781 4.567 9.694 7.277 13.163 7.277h.13c1.482-.027 2.71-.535 3.638-1.495l2.044-2.121a2.614 2.614 0 00-.131-3.78l-.028-.026-.01.009zM16.819 5.6c-.516 0-.938.4-.938.898s.413.906.928.915a5.89 5.89 0 014.088 1.659 5.6 5.6 0 011.716 4.078.93.93 0 00.918.924h.02c.505 0 .927-.399.937-.888.037-2.04-.77-3.951-2.26-5.392-1.49-1.441-3.356-2.166-5.39-2.184l-.02-.01z" fill="#CC423F"/><path d="M16.8 2.982c2.775.009 5.372 1.06 7.34 2.954 1.998 1.93 3.085 4.504 3.057 7.232 0 .498.413.906.928.915a.923.923 0 00.938-.897c.037-3.226-1.247-6.253-3.6-8.537-2.353-2.284-5.382-3.47-8.653-3.48-.516 0-.938.408-.938.906a.92.92 0 00.938.907h-.01z" fill="#CC423F"/></svg>