<svg width="100" height="111" fill="none" xmlns="http://www.w3.org/2000/svg"><path fill-rule="evenodd" clip-rule="evenodd" d="M78.99 56.9h18.885a52.323 52.323 0 01-3.727 9.492H79.969c.011-2.441-.21-5.018-.68-7.739a192.23 192.23 0 01-.3-1.754zm-58.278 1.753c.107-.616.207-1.199.299-1.754H2.125a52.333 52.333 0 003.727 9.493h14.179c-.011-2.441.21-5.018.68-7.739zm79.1-18.255a67.53 67.53 0 00-.045-.887H84.296a5.525 5.525 0 01-1.198 2.284c-4.053 4.657-4.964 7.212-4.594 11.512h20.253a52.56 52.56 0 001.054-12.91zm-82.91 1.397a5.525 5.525 0 01-1.198-2.284H.233a52.507 52.507 0 001.01 13.796h20.252c.37-4.3-.54-6.855-4.593-11.512zm3.32 28.19H7.865a52.852 52.852 0 006.307 8.319h8.074a29.94 29.94 0 01-1.111-3.37 32.083 32.083 0 01-.911-4.95zm59.555 0a31.713 31.713 0 01-1.227 6.054 29.822 29.822 0 01-.795 2.265h8.074a52.822 52.822 0 006.307-8.32H79.777zm-36.41-41.762c3.506-4.027 9.76-4.027 13.265 0 .706.811 1.532 1.493 2.468 1.935l6.738-3.89v-6.264h-10.33V3.472A2.797 2.797 0 0052.722.683H47.28a2.796 2.796 0 00-2.788 2.789v16.532h-10.33v6.264l6.738 3.89c.936-.442 1.762-1.124 2.468-1.935zM41.66 97.479v4.865l8.34 8.339 8.34-8.339v-4.865c-2.736 1.377-5.486 2.491-8.34 3.577-2.854-1.086-5.604-2.2-8.34-3.577z" fill="#24252A"/><path fill-rule="evenodd" clip-rule="evenodd" d="M43.368 28.223c3.505-4.027 9.76-4.027 13.264 0 .706.811 1.532 1.493 2.468 1.935l6.738-3.89v-6.264h-10.33V3.472A2.797 2.797 0 0052.722.683H47.28a2.796 2.796 0 00-2.788 2.789v16.532h-10.33v6.264l6.738 3.89c.936-.442 1.762-1.124 2.468-1.935zM41.66 97.479v4.865l8.34 8.339 8.34-8.339v-4.865c-2.736 1.377-5.486 2.491-8.34 3.577-2.854-1.086-5.604-2.2-8.34-3.577z" fill="#CC423F"/><path fill-rule="evenodd" clip-rule="evenodd" d="M75.749 59.267C79.33 79.924 67.059 90.722 50 97.213c-17.06-6.491-29.33-17.29-25.749-37.946 1.679-9.684 1.379-12.914-4.64-19.83a1.944 1.944 0 01.43-2.93l8.548-5.4a2.58 2.58 0 013.252.385c3.343 3.43 9.654 4.354 14.236-.91a5.198 5.198 0 017.846 0c4.583 5.264 10.894 4.34 14.237.91a2.58 2.58 0 013.251-.384l8.549 5.399a1.944 1.944 0 01.43 2.93c-6.02 6.916-6.32 10.146-4.641 19.83zm-7.678-.36C64.351 52.827 57.65 48.768 50 48.768c-7.65 0-14.352 4.059-18.072 10.14C35.648 64.987 42.35 69.045 50 69.045c7.65 0 14.352-4.058 18.071-10.139zm-8.29 0c0 5.388-4.394 9.781-9.781 9.781-5.388 0-9.781-4.394-9.781-9.78 0-5.388 4.394-9.782 9.78-9.782 5.388 0 9.782 4.394 9.782 9.781zm-9.095-3.96a4 4 0 00-3.993-3.994 4 4 0 00-3.993 3.993c0 2.2 1.794 3.994 3.993 3.994a4 4 0 003.993-3.993z" fill="#24252A"/></svg>