<svg width="118" height="111" fill="none" xmlns="http://www.w3.org/2000/svg"><path fill-rule="evenodd" clip-rule="evenodd" d="M109.75 55.243c-10.336 10.122-27.095 10.122-37.432 0a25.537 25.537 0 010-36.652c10.337-10.121 27.096-10.121 37.432 0a25.536 25.536 0 010 36.652zm-11.63-.362c-6.362 2.402-13.742 1.446-19.293-2.869l3.236-3.169c3.847 2.782 8.735 3.551 13.157 2.308 1.26 1.499 2.2 2.732 2.9 3.73zm1.094-10.421a10.839 10.839 0 00-.235-15.322c-4.343-4.252-11.355-4.296-15.753-.132a106.344 106.344 0 016.231 5.385 3.646 3.646 0 00.508 4.62c1.281 1.256 3.254 1.421 4.719.498a110.31 110.31 0 014.53 4.951zM80.118 26.666l.221-.221a15.171 15.171 0 018.27-4.147V17.81a19.738 19.738 0 00-12.343 6.395c.742.406 2.037 1.173 3.852 2.46zm-7.54 3.6c.96.587 2.234 1.45 3.872 2.717a14.576 14.576 0 002.873 13.307l-3.221 3.154a18.951 18.951 0 01-3.525-19.178zm7.28 5.511c1.95 1.678 4.236 3.77 6.898 6.376a155.057 155.057 0 015.55 5.696c-3.284.363-6.699-.687-9.216-3.153a10.845 10.845 0 01-3.231-8.919zm21.805 11.676a51.835 51.835 0 012.633 3.679c.217-.195.431-.395.642-.601 3.235-3.168 5.107-7.164 5.616-11.292h-4.581a14.636 14.636 0 01-4.244 8.15l-.066.064zm8.983-11.916c-.325-4.458-2.228-8.825-5.708-12.234-3.495-3.421-7.977-5.286-12.548-5.593v4.457a15.202 15.202 0 019.339 4.278 14.623 14.623 0 014.365 9.092h4.552z" fill="#24252A"/><path d="M65.175 67.501c-1.8-2.286-4.331-4.836-6.7-6.699l8.449-6.73c1.634-1.3 6.274 3.337 4.972 4.976l-6.72 8.453zM52.03 62.556c-2.429 1.418-4.84 3.79-6.306 6.309L30.756 52.278c-2.894-3.208 1.47-7.576 4.685-4.678L52.03 62.556z" fill="#24252A"/><path d="M5.827 18.88a5.443 5.443 0 00-3.78 3.78c-5.699 20.497 5.094 39.107 19.647 52.559 2.367 2.185 6.075 1.837 7.958-.732 2.094-2.855 5.44-5.982 8.94-8.228L28.117 54.652c-2.16-2.393-2.467-5.594-.945-8.138L13.315 32.657a1.785 1.785 0 01-.014-2.524 1.785 1.785 0 012.523.014l13.861 13.861c2.543-1.512 5.738-1.204 8.128.954l11.609 10.466c2.248-3.501 5.376-6.848 8.233-8.944 2.568-1.883 2.917-5.59.732-7.957C44.935 23.974 26.325 13.18 5.827 18.88zm42.878 58.164l16.76 16.76c7.745 7.746 19.248-3.766 11.507-11.508l-16.76-16.76c-4.574-4.573-16.077 6.939-11.507 11.508zm24.3 10.285c.702.7.708 1.83.015 2.523a1.784 1.784 0 01-2.524-.014l-3.93-3.93c-.7-.7-.706-1.83-.013-2.523a1.784 1.784 0 012.523.014l3.93 3.93z" fill="#24252A"/><path d="M48.705 77.044l16.76 16.76c7.746 7.746 19.248-3.766 11.507-11.508l-16.76-16.76c-4.574-4.573-16.077 6.939-11.507 11.508zm24.3 10.285c.702.7.708 1.83.015 2.523a1.785 1.785 0 01-2.524-.014l-3.93-3.93c-.7-.7-.706-1.83-.013-2.523a1.785 1.785 0 012.523.014l3.93 3.93z" fill="#CC423F"/><path d="M44.455 76.128c1.476 2.37 3.85 4.78 6.309 6.305l-14.79 13.17c-2.86 2.547-7.228-1.818-4.678-4.684l13.16-14.791z" fill="#24252A"/></svg>