<svg width="90" height="91" fill="none" xmlns="http://www.w3.org/2000/svg"><path d="M47.29 9.99l-9.19 7.259a2.636 2.636 0 00-1.003 2.069v5.208c5.781-4.337 11.483-7.992 17.079-10.945l-3.387-3.386a2.636 2.636 0 00-3.497-.205zm18.919 43.598h5.158a2.64 2.64 0 002.069-1.002l7.258-9.192a2.636 2.636 0 00-.205-3.498l-3.3-3.301c-2.638 4.958-6.193 10.65-10.98 16.993zm-4.678-2.567c17.302-22.712 17.958-36.417 17.98-37.133a2.637 2.637 0 00-2.788-2.711c-.73.042-14.66 1.074-37.029 18.007l21.837 21.837z" fill="#24252A"/><path d="M83.27 21.994a66.31 66.31 0 01-2.36 6.675c6.52 13.753 4.796 30.849-6.019 43.17L18.846 15.792C31.314 4.849 48.508 3.313 62.137 9.83a68.904 68.904 0 016.637-2.364c-17.25-10.744-40.377-8.806-55.583 6.4C.763 26.294-2.79 44.019 2.161 59.456a85.097 85.097 0 013.998-5.462c-2.533-11.913.41-24.734 8.959-34.473l56.045 56.045c-9.732 8.543-22.556 11.493-34.473 8.96a85.153 85.153 0 01-5.462 3.996c15.411 4.945 33.137 1.423 45.59-11.03 15.2-15.2 17.122-38.284 6.451-55.498z" fill="#CC423F"/><path d="M51.339 63.197L27.492 39.351c-3.563 3.236-7.725 7.26-11.111 10.883l24.07 24.07c3.593-3.36 7.645-7.547 10.888-11.107zm-38.485-9.034C7.623 60.256 3.946 65.86 1.89 70.89-1.778 79.86.576 84.866 3.198 87.487c4.399 4.4 10.808 3.675 16.597 1.308 5.03-2.057 10.633-5.734 16.726-10.965L12.854 54.163z" fill="#24252A"/></svg>