<svg width="44" height="54" fill="none" xmlns="http://www.w3.org/2000/svg"><circle cx="22" cy="22" r="22" fill="#63614F"/><g clip-path="url(#clip0_329_659)"><path fill-rule="evenodd" clip-rule="evenodd" d="M22 21.621v1.326h-2.278l1.844-5.147c.175-.486.091-.65.503-.65.251 0 .426.84.617 1.358.19.503.358.947.525 1.458.168.51.343.963.526 1.466.1.263.183.519.274.757.092.24.168.544.267.758h-1.76c0-1.095.145-1.54-.32-1.54-.152 0-.198.05-.198.214zm-1.105-7.403c0-1.87 2.537-1.78 2.537-.14 0 2.124-2.537 1.762-2.537.14zm.389-2.792c-.808.074-1.882 1.367-1.882 2.586 0 .634.015.938.259 1.465.099.215.13.289.267.478.396.56.495.148-.229 2.075l-1.158 3.229c-.168.502-.45 1.136-.572 1.688h-1.043v-.56c0-.51-1.105-.51-1.105 0v1.746c0 .445 1.105.552 1.105-.14v-.486h.785l-2.934 8.235c.13.066.381.173.526.206-.122.568-1.303 2.973-1.303 3.566 0 .239.046.264.069.486.213-.157.502-.437.624-.725l1.197-3.047c.236.066.175.115.449.14l3.109-8.672c.076-.14.015-.19.213-.19 2.834 0 2.278-.114 2.278.413v1.12c0 .214-.06.04.145.255l.114.099c.145-.082.19-.124.32-.214v-1.672c.198.082.373.033.518.033.335.008 1.212.082 1.44-.033.145.33.267.733.396 1.103l2.789 7.758c.274-.025.213-.074.457-.14l1.173 2.998c.122.313.389.593.648.774.076-1.03.213-.354-.571-2.322-.115-.297-.198-.536-.32-.84-.107-.256-.297-.643-.35-.89.144-.033.403-.14.525-.206l-2.545-7.107c-.053-.148-.13-.346-.19-.502-.061-.173-.122-.395-.19-.56h1.493c0 .47-.1.906.647.906.655 0 .457-.684.457-2.092 0-.313-.503-.461-.77-.346-.388.165-.334.412-.334.972-.191-.116-1.502-.066-1.76-.066l-2.21-6.284c.236-.37.54-.527.777-.98.602-1.111.48-2.24-.229-3.244-.274-.396-.815-.956-1.264-1.08v-2.1c.007-.427.06-.633-.145-.889-.373-.485-1.09-.502-1.455.009-.214.288-.16.486-.153.955 0 .79-.068 1.359-.068 2.092z" fill="#fff"/></g><path d="M21.11 52.266a1 1 0 001.78 0l5.29-10.31a1 1 0 00-.889-1.456H16.709a1 1 0 00-.89 1.457l5.291 10.31z" fill="#63614F"/><defs><clipPath id="clip0_329_659"><path fill="#fff" transform="translate(14 8)" d="M0 0h16v28H0z"/></clipPath></defs></svg>