<svg width="724" height="816" fill="none" xmlns="http://www.w3.org/2000/svg"><path d="M255.599 67.74l-1.396 2.096v5.587l1.396 10.475-9.777 3.492-4.19-3.492-10.475 5.587 2.793 6.984 7.682 7.682 4.19 5.586v18.158l5.587 3.492-5.587 4.19-4.19 6.285 4.19 5.587 5.587 1.397 4.19-2.794h11.873l4.888 6.285c1.862 0 6.006 1.118 7.682 5.587 1.676 4.47 3.957 2.794 4.889 1.397v-13.967l7.681-11.174 3.492-2.793h13.269l10.475 4.19 6.984 4.19 6.984 6.285 1.396 6.285c-.465 2.328-1.396 7.543-1.396 9.777 0 2.235-1.863 1.863-2.794 1.397h-4.19v4.19l3.492 10.476v3.491l5.587 11.174v9.079l4.19 4.19 2.095 8.38v4.19l-2.095 4.191-4.19.698-.699 3.492.699 7.682 4.19 5.587 8.38 9.078h2.794v6.285l4.888 9.079h5.587l5.587-9.079 2.793-2.793h20.951l6.984 1.397 3.491 4.888 5.587 5.587 2.794 7.682 8.38 11.872 12.571 7.682 4.888-7.682c.931-2.793 3.352-8.659 5.587-9.777l4.888-4.888 18.158-2.794 13.967-4.888 5.587-6.286 2.095-2.793h8.38l9.079-3.492v3.492l-4.19 6.285 6.285 2.794 2.095 4.888h5.587l1.397 4.889-1.397 6.983 1.397 2.095 2.793 7.682 7.682 6.984 7.682 4.888 6.984 2.096 1.396 6.285 8.381 2.793v8.381l2.793 6.983h-4.889v6.285l-3.491 2.095c0 1.397 1.117 6.006 5.587 13.269 0 3.352-1.397 2.328-2.096 1.397l-3.491 3.492-2.794 2.095-3.491 3.492-4.889 4.888v3.492l-6.285 8.38-9.079 4.889-2.793 6.285v7.682c.465.698 2.234 2.514 5.587 4.19 3.352 1.676 4.655 1.63 4.888 1.397l1.397 6.285c.931 1.164 3.072 3.632 4.19 4.19 1.117.559 1.862 1.63 2.095 2.095l2.095 3.492 1.397 1.397 3.492 2.095 1.396 2.095h11.174l6.285 6.285 4.889 5.587 4.19 2.095-4.19 11.174v7.682l-8.381 6.285h-5.586l-5.587 6.984v17.459c-.466 1.164-1.676 4.05-2.794 6.285-1.117 2.235-2.793 4.656-3.491 5.587-.466 1.396-4.61 4.888-17.459 7.682-2.794-.699-6.286.698-9.778 3.491-3.491 2.794-8.38 6.286-17.458 10.476-6.286 2.095-3.492 1.397-6.984 0-2.794-1.117-2.561-.466-2.095 0l-13.967 10.475c-3.492 3.492-10.336 10.476-9.777 10.476.558 0 1.164 1.862 1.396 2.793v4.889c-.931.698-3.491 2.095-6.285 2.095-2.793 0-3.492-1.397-3.492-2.095-1.396-.233-4.33-.978-4.888-2.096-.559-1.117-1.164-.465-1.397 0l-4.19-2.793-2.794-1.397-2.793-1.396v1.396l-4.888 1.397v9.777c-.233 2.328-.559 7.263 0 8.38.698 1.397-.699 9.777-1.397 10.476-.559.558-2.095.233-2.794 0-.698.465-2.374 1.397-3.491 1.397-1.118 0-3.725.465-4.889.698l-4.888-2.794h-3.492c-.233.932-.559 3.073 0 4.191.558 1.117-1.63-.466-2.794-1.397l-2.793-.698-2.794-2.096-2.095-2.095-1.396 1.397h-4.19v-1.397l1.396-2.095c-.233-.698-.838-2.374-1.396-3.492-.559-1.117-.233-3.258 0-4.19h-2.794l-1.397-3.491-.698-3.492.698-2.095c.466-.699 1.397-2.514 1.397-4.191 0-1.676-.931-2.56-1.397-2.793h-1.396l-4.19 1.397-1.397-2.794v-1.396c-.931.465-3.073 1.396-4.19 1.396h-2.095l-3.492 1.397-2.794-1.397v-1.396h-6.285l-4.19-5.587-2.095 1.397-3.492 1.396-2.793 2.794h-9.079l-6.984-2.794-4.19-2.793h-11.174l-3.491 2.793h-6.984l-2.095 2.794h-11.174v-5.587h-3.492v2.793l2.096 6.984-3.492 1.396 1.396 5.587 3.492 7.682h-6.285l-2.095 1.397 2.095 4.889 2.793 1.396 3.492 3.492-1.396 3.492c0 1.164.279 3.771 1.396 4.888 1.397 1.397 2.095.699 4.889 1.397 2.235.559.931 2.561 0 3.492-.931.698-3.213 2.654-4.889 4.888-1.676 2.235-.698 4.191 0 4.889.699.698 2.095 2.374 2.095 3.492v4.19l2.794 3.492-2.794 5.237-8.38-1.047-4.19-2.794h-10.476l-4.888-3.491-5.587 2.095-3.492 3.491-11.872.699h-4.19l-2.793 4.888h-6.984l-4.889 4.191-6.285-2.096h-2.793l-1.397-2.095-2.095-3.841-3.492 1.746h-8.38l-11.174 2.095v-2.095l-4.888-1.746 1.396-1.746.699-3.491v-4.889h-4.889l-2.793 1.397-2.095 4.888h-1.397l-8.38 2.794-1.397 4.888h-2.095l-1.397-4.888-4.19-2.794-2.095-1.396-5.587-2.095-7.682-1.397c.698 1.164 2.095 3.771 2.095 4.888 0 1.118 2.328-.465 3.492-1.396l2.095 4.19-2.095 4.888v6.286l-1.397 2.793-4.19-.698v-6.286l-1.397 2.096-2.095 2.095v2.095l2.095 2.793h3.492l3.492 2.095v4.19l2.095 6.286v6.285h-2.095v-2.095h-3.492l-3.492 7.682-2.095-2.095h-4.19v3.491l-4.19 1.397v7.682l2.095 2.095 6.285 4.889 3.492-4.889 2.095-4.888 3.492-2.794v5.587l-3.492 6.984-5.587 5.587-2.095-2.096h-4.19c.931 1.863 3.073 6.006 4.19 7.682 1.118 1.676-1.396.699-2.793 0l-3.492 3.492h-2.095l2.095 3.492h2.095l-2.095 2.793-6.984 2.095-8.38 2.794-3.492-1.397v-3.492h-9.777v2.095l-2.095 2.794-4.888-1.397-2.794-1.397h-2.793l-3.492 2.794v3.492H89.39l-1.397-3.492h-4.888l-4.19 3.492-2.794 3.492h-2.793l-4.889 2.095v7.682h-4.888l-3.492 2.095-2.794 1.396-1.396 3.492v8.38l-8.38 3.492-2.096 2.794 2.095 4.19v5.587l-2.095 4.888H34.22l-6.286-2.095-8.38-2.793-10.475-1.397L0 742.356l1.397 10.475v9.079l3.492 4.19 7.681 11.174 15.364 7.682 17.46 2.793c2.793.466 8.799 1.397 10.475 1.397 1.676 0 8.147 2.793 11.174 4.19l13.967 6.285 31.426 7.682c2.095.466 6.704 1.536 8.38 2.095 2.095.699 8.38-1.397 10.476-2.095 1.676-.559 9.544-3.492 13.268-4.888l43.997-13.269 2.477-6.285-2.477-5.587 3.492-4.191v-2.793l-1.015-4.19 1.015-4.19 4.19 2.095 4.19 2.095 5.587 1.397h8.38l8.381 6.983 2.793 4.19 4.888-4.19 4.191 4.19 4.19 1.397 4.19 2.794 4.888-2.794 3.492 2.794c1.63 2.56 5.028 7.961 5.587 9.078.559 1.118 2.561 3.725 3.492 4.889h3.492l4.19-6.286 2.793-1.396 6.286 2.793 6.983 7.682 2.794 2.794v8.38l4.888 1.397 3.492 3.491h16.761l6.285-3.491 4.19-1.397-2.794-4.889-4.19-9.078h2.794l8.38-3.492 5.587-4.19 5.587-9.079 3.492-6.984 2.793-5.586 6.285-6.984 1.397-2.095 4.888-2.793 5.587-6.984 9.079-6.285c1.164 1.396 3.911 4.609 5.587 6.285 1.676 1.676 4.423 3.492 5.587 4.19l9.078 1.397 9.777-1.397 9.079-6.285 2.095-4.19 4.19-2.794c1.676-1.117 3.027-2.793 3.492-3.492l4.889-9.078 2.793 1.396c1.63 1.164 5.028 3.632 5.587 4.191.559.558 3.957 2.56 5.587 3.491h11.872l9.777-6.285 3.492-5.587 2.095-7.682v-2.095l3.492-4.888 4.19-1.397h4.888l2.095 1.397h11.873c1.396 0 6.983-4.889 9.078-6.285 1.676-1.118 8.613-7.915 11.872-11.174h9.079c6.518-.699 19.833-2.095 20.951-2.095h11.173c1.677 0 2.561-1.863 2.794-2.794l1.397-4.19c2.095-.931 6.704-3.073 8.38-4.19 2.095-1.397 4.19-3.492 4.19-4.888 0-1.118-1.397-3.259-2.095-4.191l-2.095-6.285-4.19-2.793v-7.682c.465-2.794 1.955-8.52 4.19-9.079 2.235-.559 2.328-1.629 2.095-2.095l2.095-4.19-2.095-2.095h-6.285l-2.095-2.095 2.095-4.191 4.19-2.793 2.095-2.793v-15.364h2.095l1.397-7.682h6.285l4.19-2.095V595.7h10.476l2.793-2.095 1.397-2.793 4.19-2.794v4.19h5.587l-1.397-4.19 2.793-2.793-1.396-4.19v-4.19l3.492-1.397v-3.492h2.095l2.793-2.793 3.492-.699h9.777l4.888 5.587 3.492-3.492h8.38c2.235 0 3.725-1.396 4.191-2.095l6.285 2.095 2.095 3.492 2.095-4.888 4.19 2.793 2.095 2.095h11.174l3.492 1.397 3.492-1.397 3.491-5.587v-6.285h1.397v-6.285l-1.397-3.492v-5.587l4.191-1.397 2.095-2.095v-5.586h3.491v-6.286h2.794l.698-5.587h3.492v-9.078l-2.095-2.095c-1.63-1.164-4.889-3.632-4.889-4.191v-2.793l2.794-4.19-6.285-6.285v-9.777l-4.889-5.587h-7.682c-1.397 0-4.19-.28-4.19-1.397 0-1.397 3.492-2.793 3.492-3.492v-13.967c1.164-.466 3.492-1.676 3.492-2.793 0-1.118 1.396-2.794 2.095-3.492.931-1.862 3.352-5.587 5.587-5.587 2.234 0 3.259 2.793 3.491 4.19 1.63 0 5.168.279 6.286 1.397 1.117 1.117 2.327-.466 2.793-1.397l6.285-6.285-.698-5.587-2.794-1.397c-.931 1.164-2.793 3.771-2.793 4.889 0 1.117-2.793.465-4.19 0l-2.794-1.397h-8.38l-2.793-3.492-3.492-4.19-2.095-2.095-6.285-2.095c.931-1.397 2.793-4.609 2.793-6.285 0-1.676 2.328-.699 3.492 0l5.587-1.397 5.587-2.095h5.586l4.889-6.285 2.095-6.984h4.19c1.397-.931 4.47-3.073 5.587-4.19 1.117-1.117 1.397-2.793 1.397-3.492h4.19l2.095-2.095-2.095-2.095c-.233-1.164-.559-3.771 0-4.888.559-1.118-1.63-5.122-2.793-6.984l-2.794-4.19-5.587-4.889c-.465-1.164-1.397-3.911-1.397-5.587 0-1.676 2.328-4.888 3.492-6.285 1.164-.931 3.771-2.514 4.889-1.397 1.117 1.118 1.397-1.862 1.397-3.491l-2.794-5.587-3.492 2.095h-8.38l-1.397 3.492-5.587 2.095-9.078-2.095-2.095-2.794-6.984-2.793-2.793-4.889v-4.19l-2.095-4.888h-3.492l-4.889-2.794-2.793-1.397h-3.492l-3.492 4.191-2.793-2.794-6.984-1.397-1.397-2.095 1.397-6.285-3.492-2.793-2.095-4.19v-5.587l2.095-2.794v-2.793l3.492-1.397.698-2.095 1.397-2.793-2.095-2.096h-2.095l.698-4.888h-2.095l-2.095-.698v-2.794c0-.698 0-2.095-2.095-3.492-.559-.558-1.629-1.164-2.095-1.396v-2.794c0-.558 1.397-2.56 2.095-3.492l-2.095-2.095c-.465-.465-1.397-1.676-1.397-2.793v-1.397l-1.396-2.095-2.095-.698c-.699-.466-2.096-1.537-2.096-2.095 0-.699 1.397-2.095 2.096-2.794l2.095-2.095c.558-.559.232-2.095 0-2.793l-2.095-.699-2.096-2.095-.698-3.492-1.397-1.396-2.793-1.397 1.397-3.492c.931-1.164 2.933-3.631 3.491-4.19.559-.559 2.561-1.164 3.492-1.397l2.095-1.396v-2.794l-1.396-.698v-2.095c-.466-2.328-1.537-7.123-2.095-7.682-.559-.559 1.164-1.63 2.095-2.095l-2.794-1.397-2.095-2.095h-2.793l-2.794-.698 1.397-3.492.698-2.794-3.491 2.095h-5.587l-.699-4.19-4.888.699-.699-4.889.699-1.397 2.095-2.793-2.095-1.397h-2.095l-1.397 1.397h-4.19l-2.095-1.397v-2.793l2.793-1.397v-7.682l2.794-2.793h3.491l2.096 1.396 2.793 1.397.698-2.793v-4.19l-1.396-.699-3.492-2.095-.699-1.397 2.096-2.095 2.095-.698.698-4.19h-2.095l-2.095-1.397-.699-4.19-4.888-1.397-1.397 2.794-2.793 1.396v4.191l-2.794 2.095h-6.285l-1.397-2.095-4.19-1.397 1.397-4.19-2.793-2.794-3.492 1.397-1.397 2.793-3.492-1.396v-2.794l-.698-4.19-.698-1.397.698-2.793h4.19l4.19 1.397 2.095-2.794 1.397-5.587h-4.889l-1.396-3.491v-5.587l-2.794-.699h-2.095l-.698.699-2.794 2.793-2.095-.698-1.396-4.19 1.396-1.397 1.397-4.19 3.492-1.397v-4.888l-4.889 2.095-1.396-3.492v-4.19l1.396-1.397v-3.492l-2.793-3.492v-4.19l-2.095-1.397-2.095-2.793h-2.095l2.095-2.793-2.095-3.492-5.587-.699v-5.586l3.492-1.397h2.793l1.397-4.19h5.587l4.19 2.793h6.285l2.793-4.19 1.397-3.492h-2.793l-1.397-3.492-1.397-3.491 1.397-3.492v-2.794l-1.397-2.095 1.397-2.793V59.36h-6.285l-2.794 2.794h-1.396V55.17l-3.492 2.794-2.095 4.19h-4.19l-1.397-2.794h-3.492l-1.397 4.89h-3.491l-2.794 1.397h-4.888l-3.492-1.397h-4.889l-1.396-4.888-1.397-4.19-1.397-3.492-4.19-2.096-2.793 3.492-1.397 2.095h-4.19V51.68h-5.587l-3.492-2.096-2.095-1.396-2.095 3.492v6.285l-4.19 1.397-4.889-2.794-2.095-3.492-2.095-3.492h-4.19l-5.587-1.396v-2.095l1.397-4.889-1.397-2.095h-2.095l-3.492 2.095c-.465-.698-1.676-2.095-2.793-2.095-1.118 0-1.863 2.328-2.095 3.492l-2.794-1.397v-3.492h-2.793l-2.095 3.492-2.095-2.095-4.191-1.397-4.19-1.396-5.587-2.794v-4.888h-5.586l-4.889-2.095v-2.794h-8.38l-3.492-4.19-2.095-2.793-1.397-2.794 1.397-3.492-2.794-3.491-3.491-2.794-4.191-2.793c-.931.465-3.072 1.396-4.19 1.396-1.396 0-2.095 0-3.491 1.397-1.118 1.118-1.863 2.328-2.096 2.794l-2.793 1.396h-1.397l-2.793 2.095-10.475 1.397-2.096 2.095-2.095 1.397h-2.095l-3.492-3.492h-4.888l-7.682 7.682h-5.587v-5.587l1.397-2.095V8.38l-4.19-2.793V2.793L349.878 0l-4.889 1.397-2.793 1.396h-8.38l-3.492-1.396h-9.079l-2.793 2.793-3.492 2.794-3.492 3.491h-4.19c-.233-1.164-.978-3.491-2.095-3.491h-6.984c.233 1.164.559 3.77 0 4.888-.558 1.117-1.164 1.862-1.396 2.095l-4.191 5.587h4.191c1.676 0-.699 2.794-2.095 4.19l-4.191 1.397-2.095 3.492-3.491-2.095-3.492-2.794-1.397 1.397-2.095 1.397v2.095c.698.465 2.374 1.536 3.492 2.095 1.117.558 1.396 2.095 1.396 2.793v4.19l-2.793 3.492-2.095 2.794-3.492-1.397v3.492h-4.888l-2.095-2.095h-2.794l-1.397 4.19-4.19 1.397-3.492 2.095v2.793l-1.396 3.492-2.794 1.397v2.793h2.794l1.396 1.397 3.492-1.397v4.19l-3.492 1.397z" fill="#2A2B31"/><path d="M333.117 187.859h6.285l2.794 2.793h5.587l1.396 2.095 4.191 1.397v-3.492h2.095l2.793 3.492 2.794-3.492v-2.793l1.396-3.492h2.794l2.095 3.492c.698 1.862 2.235 5.028 2.793 2.793.699-2.793 2.095-2.793 2.794-2.793.558 0 .232-2.328 0-3.492.232.233.977.279 2.095-1.397 1.117-1.676 2.328-3.026 2.793-3.492l2.794-1.396c1.117-.559 2.793-5.587 2.793-2.794v-5.587l-2.793-1.396-1.397-2.794c-.466.698-.838 1.676 1.397 0 2.234-1.676 5.121-3.492 6.285-4.19h2.793l2.794 4.19h6.983l2.794-2.095h1.396v4.889l4.889 1.396h3.492c0-.465.279-1.396 1.396-1.396 1.397 0 2.096-2.794 3.492-2.794 1.118 0 2.328 1.862 2.794 2.794l1.396 1.396 2.096 3.492 2.095-3.492v-4.19h2.095l2.793 2.794h1.397v3.491l2.793-2.095h7.682c0-.698.28-2.514 1.397-4.19 1.117-1.676 5.121-3.492 6.984-4.19l2.793-1.397h3.492l6.983-2.793v-3.492c.699-.466 2.235-1.536 2.794-2.095.558-.559 2.56-1.63 3.492-2.095l3.491 2.095h2.095V140.37l1.397-3.492h4.889c.232.699.977 2.095 2.095 2.095h5.587l1.396-4.19 4.19-1.396h9.079c.931-.699 2.933-2.095 3.492-2.095h17.459l1.397 2.095h4.888c.931.465 3.073 1.396 4.19 1.396 1.397 0 4.889-2.095 6.286 0 1.117 1.676 2.327.699 2.793 0 .466 0 1.676.419 2.793 2.095 1.397 2.095 2.095 0 3.492 0h4.19c.233.699.978 2.095 2.095 2.095h3.492l1.397 1.397v3.492h6.984m-18.856 172.495h7.682l2.793-3.492 2.095-3.492c-.698-.465-2.095-1.816-2.095-3.492s-.931-3.957-1.396-4.888v-3.492l4.888 1.397h3.492l2.095-1.397h2.793v3.492l1.397 6.285 2.794 2.095h6.285l2.095 3.492h6.984v-1.397h4.888v1.397l2.095-5.587h2.095v4.19c0 1.118-1.396 2.794-2.095 3.492l4.889 3.492c.465 0 1.536.419 2.095 2.095.558 1.676 2.095 2.56 2.793 2.793 1.63.233 5.028.838 5.587 1.397.559.559 3.957 1.164 5.587 1.397l-1.397 4.888c-.465.931-1.117 2.794 0 2.794h4.19l2.794-2.794v-1.397h8.38c-.698-1.163-1.676-3.491 0-3.491s5.354-1.863 6.984-2.794m-76.82 133.387h3.492v4.888c-.233 1.164-.419 3.492.698 3.492 1.118 0 2.328.931 2.794 1.397l-1.397 2.793v2.794l-2.095 2.793-2.793.699v2.793l1.396 1.397v4.19l1.397 2.793 2.095 3.492v4.19c-.698.699-2.095 2.235-2.095 2.794 0 .558-1.862 2.56-2.793 3.491l4.888 1.397h1.397l2.095-2.095h6.285l2.794 2.095-.699 3.492-1.397 6.984-.698 4.19 2.095 2.793c.699.466 2.235 1.257 2.794.698.558-.558 3.491-.232 4.888 0h2.095l1.397 3.492v8.381l2.095 1.396 4.19.699 2.095 2.095h5.587l2.794 2.095 1.396 2.095v4.888l.699 2.794 2.793 2.095 1.397 1.397h9.777l3.492 2.095 1.396 3.492 2.095 3.491.699 1.397-2.794 4.19v2.095m-201.826 4.19l4.191 4.889 2.793 4.19-2.793 4.19 2.793 2.794 3.492 3.492 2.793 3.491 2.095 4.889 5.587-1.397 2.095-1.397v4.191l3.492 3.491v2.794l4.19-2.794h2.794l4.19 2.794 2.095 1.397 2.793 3.491 2.794 2.095 2.793 1.397 3.492-1.397 2.793 1.397 2.096 1.397c-.699 1.397-2.096 4.469-2.096 5.587 0 1.117-1.862 4.19-2.793 5.587h-6.285v2.793l-5.587 3.492c.698.465 1.676 1.397 0 1.397s-4.889-.932-6.285-1.397h-2.794l-2.793 3.492 2.793 2.095v9.777h4.19v13.269h2.794l4.888 2.793c1.863-.931 5.308-2.793 4.191-2.793-1.118 0-1.397 3.724-1.397 5.586v2.794l1.397 2.095-4.191 3.492-4.888 3.491 2.095 4.889 2.793 3.492 7.682 18.157m-239.537-92.882l2.095 2.794-2.095 4.19 3.492 2.095c.465 1.164 1.397 3.632 1.397 4.19v5.587c.698.233 2.095 1.117 2.095 2.794v4.19h2.793c.931-.931 2.933-2.794 3.492-2.794h2.793l2.095-2.793 1.397-1.397h4.889v2.794l-1.397 2.793 2.793 1.397v1.396l-1.396 2.095v3.492l1.396 4.19v2.096l2.095 4.888 1.397 2.793v4.191l1.397 3.491 2.095 1.397v3.492h2.095l2.095 1.397h2.794l3.491 1.396v2.095c.466 1.164 1.397 3.632 1.397 4.191v2.793h5.587l-1.397 6.285-4.19 3.492-1.397 3.492-2.095 1.397-2.793 1.396v3.492l1.397 1.397v10.475c0 .559 2.327 2.095 3.491 2.794v4.19l2.095.698 4.191-1.397h2.095l3.491.699v4.888h3.492l3.492 2.095 1.397 1.397 4.888 2.095c.466 1.164 1.397 3.632 1.397 4.19v15.364h7.682l4.888 2.095 4.191 2.095 4.19 4.889 4.888 3.492 6.984 4.888" stroke="#18191F"/><g clip-path="url(#clip0_44_799)"><path d="M376.901 51.436s2.742 2.224 7.239 1.222c4.263-.947 8.238-2.023 14.916.389v14.28s-6.142-2.93-11.737-1.623c-5.594 1.306-8.757.805-10.418-.856" fill="#E21B1B"/><path d="M377.088 50.492h-1.062V82h1.062V50.492z" fill="#999"/><path d="M376.557 51.225a1.613 1.613 0 100-3.225 1.613 1.613 0 000 3.225z" fill="#666"/></g><path d="M324.424 105V93.688h1.152v5.328h1.888l3.776-5.328h1.328l-4.048 5.616L332.6 105h-1.36l-3.632-4.944h-2.032V105h-1.152zm9.311 3.712v-1.072c.523 0 .944-.08 1.264-.24.331-.16.603-.405.816-.736.224-.331.437-.741.64-1.232l-3.76-8.864h1.344l3.04 7.52 2.512-7.52h1.296l-2.544 7.136a41.58 41.58 0 01-.384 1.056c-.139.384-.293.779-.464 1.184-.171.405-.357.784-.56 1.136a3.284 3.284 0 01-.672.848 2.822 2.822 0 01-.672.464 2.239 2.239 0 01-.752.24c-.288.053-.656.08-1.104.08zm8.478-.592V96.568h1.088l.048 1.424c.331-.523.747-.907 1.248-1.152a3.913 3.913 0 011.712-.368c.854 0 1.552.192 2.096.576.544.384.95.907 1.216 1.568.267.65.4 1.381.4 2.192 0 .832-.138 1.573-.416 2.224a3.187 3.187 0 01-1.248 1.52c-.554.363-1.258.544-2.112.544a4.97 4.97 0 01-1.136-.128 3.157 3.157 0 01-.992-.416 3.048 3.048 0 01-.768-.752v4.32h-1.136zm3.984-4.016c.662 0 1.184-.149 1.568-.448.395-.309.678-.715.848-1.216a4.797 4.797 0 00.272-1.648c0-.608-.09-1.163-.272-1.664a2.506 2.506 0 00-.88-1.2c-.405-.31-.938-.464-1.6-.464-.608 0-1.125.155-1.552.464-.416.31-.73.72-.944 1.232a4.246 4.246 0 00-.32 1.648c0 .629.102 1.195.304 1.696.214.491.534.88.96 1.168.438.288.976.432 1.616.432zm9.429.992c-.885 0-1.621-.181-2.208-.544a3.445 3.445 0 01-1.296-1.536c-.288-.651-.432-1.387-.432-2.208 0-.81.15-1.541.448-2.192a3.572 3.572 0 011.344-1.568c.598-.384 1.355-.576 2.272-.576.544 0 1.035.09 1.472.272.438.17.806.432 1.104.784.299.341.512.768.64 1.28h-1.168c-.17-.48-.448-.821-.832-1.024-.373-.213-.805-.32-1.296-.32-.672 0-1.216.16-1.632.48-.416.31-.725.72-.928 1.232a4.524 4.524 0 00-.288 1.632c0 .597.096 1.147.288 1.648.203.501.512.901.928 1.2.427.299.971.448 1.632.448.48 0 .928-.101 1.344-.304.416-.203.704-.549.864-1.04h1.184a2.737 2.737 0 01-.72 1.328 3.266 3.266 0 01-1.232.768c-.469.16-.965.24-1.488.24zm5.212-.096v-8.432h1.136v3.728h1.712l2.56-3.728h1.28l-2.816 4.032 3.072 4.4h-1.312l-2.64-3.728h-1.856V105h-1.136zm10.688.096c-.342 0-.688-.043-1.04-.128a3.267 3.267 0 01-.96-.432 2.432 2.432 0 01-.704-.768c-.171-.32-.256-.693-.256-1.12 0-.48.085-.88.256-1.2a2.16 2.16 0 01.72-.768c.298-.192.64-.325 1.024-.4a5.612 5.612 0 011.216-.128h2.672c0-.523-.075-.981-.224-1.376a1.9 1.9 0 00-.704-.96c-.32-.235-.752-.352-1.296-.352a3.55 3.55 0 00-.832.096 2.09 2.09 0 00-.72.32 1.42 1.42 0 00-.48.576h-1.216c.096-.373.256-.688.48-.944a2.66 2.66 0 01.816-.608c.309-.16.634-.272.976-.336.341-.064.666-.096.976-.096.8 0 1.445.165 1.936.496.49.32.842.779 1.056 1.376.224.587.336 1.28.336 2.08V105h-.976l-.048-1.152c-.235.32-.518.571-.848.752a3.5 3.5 0 01-1.04.384 5.519 5.519 0 01-1.12.112zm.112-.992a3.8 3.8 0 001.424-.256 2.29 2.29 0 001.008-.8c.256-.352.384-.789.384-1.312v-.64h-1.888c-.331 0-.667.011-1.008.032a3.13 3.13 0 00-.928.16 1.378 1.378 0 00-.672.432c-.171.192-.256.469-.256.832s.09.661.272.896c.181.224.421.389.72.496.298.107.613.16.944.16zm5.579.896l2.256-3.376c-.64-.149-1.157-.416-1.552-.8-.384-.395-.576-.933-.576-1.616 0-.512.08-.939.24-1.28a1.91 1.91 0 01.672-.8 2.774 2.774 0 011.024-.432 6.534 6.534 0 011.344-.128h3.376V105h-1.136v-3.216h-2.192L378.545 105h-1.328zm4.24-4.192h1.408V97.56h-2.016c-.331 0-.64.016-.928.048a2.197 2.197 0 00-.736.208 1.233 1.233 0 00-.512.48c-.117.203-.176.48-.176.832 0 .395.085.704.256.928a1.6 1.6 0 00.704.496c.288.107.608.176.96.208s.699.048 1.04.048zm12.749 4.288c-.885 0-1.627-.181-2.224-.544a3.485 3.485 0 01-1.344-1.536c-.288-.651-.432-1.392-.432-2.224 0-.843.144-1.584.432-2.224a3.488 3.488 0 011.344-1.536c.597-.373 1.344-.56 2.24-.56.885 0 1.621.187 2.208.56.597.373 1.04.885 1.328 1.536.299.64.448 1.381.448 2.224 0 .832-.149 1.573-.448 2.224a3.485 3.485 0 01-1.344 1.536c-.587.363-1.323.544-2.208.544zm0-.992c.661 0 1.205-.144 1.632-.432.427-.299.741-.699.944-1.2a4.437 4.437 0 00.304-1.68c0-.619-.101-1.179-.304-1.68a2.635 2.635 0 00-.944-1.2c-.427-.299-.971-.448-1.632-.448-.661 0-1.205.15-1.632.448a2.635 2.635 0 00-.944 1.2 4.664 4.664 0 00-.288 1.68c0 .619.096 1.179.288 1.68.203.501.517.901.944 1.2.427.288.971.432 1.632.432zm9.559.992c-.587 0-1.099-.085-1.536-.256a2.987 2.987 0 01-1.072-.752 3.98 3.98 0 01-.704-1.12 6.868 6.868 0 01-.384-1.36 10.05 10.05 0 01-.112-1.52c0-.757.021-1.472.064-2.144a6.509 6.509 0 01.384-1.808c.202-.544.528-.997.976-1.36.448-.363 1.066-.613 1.856-.752.458-.085.912-.155 1.36-.208l1.328-.16a31.462 31.462 0 01.832-.128 9.66 9.66 0 01.448-.08v1.04c-.107.043-.246.08-.416.112-.171.021-.352.048-.544.08l-.576.064c-.182.01-.352.027-.512.048-.15.01-.272.021-.368.032-.384.043-.779.096-1.184.16-.395.053-.768.16-1.12.32-.342.15-.63.41-.864.784a3.11 3.11 0 00-.368.88c-.086.33-.144.661-.176.992-.032.32-.054.608-.064.864.224-.405.506-.72.848-.944.341-.235.704-.4 1.088-.496.384-.107.746-.16 1.088-.16.757 0 1.402.16 1.936.48.533.32.933.768 1.2 1.344.277.576.416 1.243.416 2 0 .768-.15 1.461-.448 2.08a3.425 3.425 0 01-1.312 1.44c-.566.352-1.254.528-2.064.528zm.032-.992c.576 0 1.061-.133 1.456-.4.394-.277.693-.645.896-1.104.213-.459.32-.96.32-1.504s-.102-1.029-.304-1.456a2.335 2.335 0 00-.896-1.024c-.384-.256-.859-.384-1.424-.384-.544 0-1.019.133-1.424.4a2.778 2.778 0 00-.928 1.056 3.11 3.11 0 00-.336 1.44c0 .533.096 1.029.288 1.488.202.448.496.811.88 1.088.394.267.885.4 1.472.4zm4.82.928v-1.008a1.323 1.323 0 00.992-.496c.192-.235.336-.56.432-.976.096-.427.16-.885.192-1.376.043-.501.07-1.008.08-1.52.022-.523.038-1.04.048-1.552a69.5 69.5 0 00.048-1.536h5.776V105h-1.136v-7.456h-3.536c-.01.405-.026.81-.048 1.216-.01.395-.026.79-.048 1.184-.01.395-.026.795-.048 1.2a13.7 13.7 0 01-.16 1.52 3.676 3.676 0 01-.528 1.424c-.213.341-.474.581-.784.72-.309.139-.736.213-1.28.224zm12.44.064c-.341 0-.688-.043-1.04-.128a3.267 3.267 0 01-.96-.432 2.432 2.432 0 01-.704-.768c-.171-.32-.256-.693-.256-1.12 0-.48.085-.88.256-1.2a2.16 2.16 0 01.72-.768c.299-.192.64-.325 1.024-.4a5.612 5.612 0 011.216-.128h2.672c0-.523-.075-.981-.224-1.376a1.895 1.895 0 00-.704-.96c-.32-.235-.752-.352-1.296-.352-.288 0-.565.032-.832.096a2.09 2.09 0 00-.72.32 1.42 1.42 0 00-.48.576h-1.216c.096-.373.256-.688.48-.944a2.68 2.68 0 01.816-.608c.309-.16.635-.272.976-.336a5.3 5.3 0 01.976-.096c.8 0 1.445.165 1.936.496.491.32.843.779 1.056 1.376.224.587.336 1.28.336 2.08V105h-.976l-.048-1.152c-.235.32-.517.571-.848.752a3.5 3.5 0 01-1.04.384 5.519 5.519 0 01-1.12.112zm.112-.992c.523 0 .997-.085 1.424-.256a2.28 2.28 0 001.008-.8c.256-.352.384-.789.384-1.312v-.64h-1.888c-.331 0-.667.011-1.008.032a3.137 3.137 0 00-.928.16 1.387 1.387 0 00-.672.432c-.171.192-.256.469-.256.832s.091.661.272.896c.181.224.421.389.72.496.299.107.613.16.944.16zm9.707.992c-.885 0-1.621-.181-2.208-.544a3.445 3.445 0 01-1.296-1.536c-.288-.651-.432-1.387-.432-2.208 0-.81.15-1.541.448-2.192a3.572 3.572 0 011.344-1.568c.598-.384 1.355-.576 2.272-.576.544 0 1.035.09 1.472.272.438.17.806.432 1.104.784.299.341.512.768.64 1.28h-1.168c-.17-.48-.448-.821-.832-1.024-.373-.213-.805-.32-1.296-.32-.672 0-1.216.16-1.632.48-.416.31-.725.72-.928 1.232a4.524 4.524 0 00-.288 1.632c0 .597.096 1.147.288 1.648.203.501.512.901.928 1.2.427.299.971.448 1.632.448.48 0 .928-.101 1.344-.304.416-.203.704-.549.864-1.04h1.184a2.737 2.737 0 01-.72 1.328 3.266 3.266 0 01-1.232.768c-.469.16-.965.24-1.488.24zm7.228-.096v-7.44h-3.008v-.992h7.12v.992h-2.992V105h-1.12zm5.344 0v-8.432h1.152v3.312h1.968c.469 0 .906.037 1.312.112a2.89 2.89 0 011.056.368c.309.181.549.432.72.752.17.32.256.731.256 1.232 0 .469-.08.875-.24 1.216-.16.331-.39.603-.688.816-.288.213-.63.373-1.024.48a5.484 5.484 0 01-1.296.144h-3.216zm1.152-.976h1.168c.373 0 .736-.011 1.088-.032a4.25 4.25 0 00.96-.192c.298-.096.533-.256.704-.48.17-.224.256-.533.256-.928 0-.363-.075-.645-.224-.848a1.33 1.33 0 00-.576-.448 2.248 2.248 0 00-.768-.192 7.266 7.266 0 00-.832-.048H444.6v3.168z" fill="#fff" fill-opacity=".64"/><g clip-path="url(#clip1_44_799)"><path d="M489.901 174.436s2.742 2.225 7.239 1.222c4.263-.947 8.238-2.023 14.916.389v14.279s-6.142-2.928-11.737-1.622c-5.594 1.306-8.757.805-10.418-.856" fill="#E21B1B"/><path d="M490.088 173.492h-1.062V205h1.062v-31.508z" fill="#999"/><path d="M489.557 174.225a1.613 1.613 0 100-3.225 1.613 1.613 0 000 3.225z" fill="#666"/></g><path d="M414.424 228v-11.312h7.6v1.04h-6.448v3.728h2.784c.533 0 1.045.043 1.536.128.501.085.949.24 1.344.464.395.213.704.523.928.928.235.405.352.939.352 1.6 0 .64-.107 1.184-.32 1.632a2.704 2.704 0 01-.896 1.056 4.002 4.002 0 01-1.36.56 7.465 7.465 0 01-1.664.176h-3.856zm1.152-1.04h2.528a7.49 7.49 0 001.2-.096 3.618 3.618 0 001.04-.32 1.8 1.8 0 00.736-.704c.181-.309.272-.704.272-1.184 0-.501-.091-.896-.272-1.184a1.651 1.651 0 00-.736-.64 3.003 3.003 0 00-1.024-.256 10.056 10.056 0 00-1.152-.064h-2.592v4.448zm12.598 1.136c-.886 0-1.622-.181-2.208-.544a3.411 3.411 0 01-1.312-1.536c-.288-.651-.432-1.392-.432-2.224 0-.832.149-1.568.448-2.208a3.507 3.507 0 011.328-1.536c.586-.384 1.306-.576 2.16-.576.618 0 1.157.117 1.616.352a3.23 3.23 0 011.168.928c.309.395.533.843.672 1.344a5.42 5.42 0 01.224 1.552v.272a2.2 2.2 0 01-.016.256h-6.464c.042.565.17 1.072.384 1.52.213.437.522.784.928 1.04.416.245.933.368 1.552.368.288 0 .581-.032.88-.096.298-.075.57-.197.816-.368.245-.181.426-.416.544-.704h1.184c-.15.501-.4.912-.752 1.232a3.27 3.27 0 01-1.248.704 4.94 4.94 0 01-1.472.224zm-2.784-4.896h5.312a3.09 3.09 0 00-.336-1.392 2.45 2.45 0 00-.88-.976c-.374-.245-.832-.368-1.376-.368-.566 0-1.046.128-1.44.384a2.587 2.587 0 00-.912 1.008 3.79 3.79 0 00-.368 1.344zm7.509 4.832v-1.008a1.327 1.327 0 00.992-.496c.192-.235.336-.56.432-.976.096-.427.16-.885.192-1.376.042-.501.069-1.008.08-1.52.021-.523.037-1.04.048-1.552.021-.523.037-1.035.048-1.536h5.776V228h-1.136v-7.456h-3.536c-.011.405-.027.811-.048 1.216-.011.395-.027.789-.048 1.184a50.12 50.12 0 01-.048 1.2c-.022.469-.075.976-.16 1.52a3.708 3.708 0 01-.528 1.424c-.214.341-.475.581-.784.72-.31.139-.736.213-1.28.224zm9.783-.032v-8.432h5.744v.992h-4.608V228h-1.136zm10.774.096c-.885 0-1.627-.181-2.224-.544a3.485 3.485 0 01-1.344-1.536c-.288-.651-.432-1.392-.432-2.224 0-.843.144-1.584.432-2.224a3.485 3.485 0 011.344-1.536c.597-.373 1.344-.56 2.24-.56.885 0 1.621.187 2.208.56.597.373 1.04.885 1.328 1.536.299.64.448 1.381.448 2.224 0 .832-.149 1.573-.448 2.224a3.485 3.485 0 01-1.344 1.536c-.587.363-1.323.544-2.208.544zm0-.992c.661 0 1.205-.144 1.632-.432.427-.299.741-.699.944-1.2a4.437 4.437 0 00.304-1.68c0-.619-.101-1.179-.304-1.68a2.638 2.638 0 00-.944-1.2c-.427-.299-.971-.448-1.632-.448-.661 0-1.205.149-1.632.448a2.638 2.638 0 00-.944 1.2 4.663 4.663 0 00-.288 1.68c0 .619.096 1.179.288 1.68.203.501.517.901.944 1.2.427.288.971.432 1.632.432zm5.882 4.016v-11.552h1.088l.048 1.424c.331-.523.747-.907 1.248-1.152a3.917 3.917 0 011.712-.368c.854 0 1.552.192 2.096.576.544.384.95.907 1.216 1.568.267.651.4 1.381.4 2.192 0 .832-.138 1.573-.416 2.224a3.187 3.187 0 01-1.248 1.52c-.554.363-1.258.544-2.112.544a4.97 4.97 0 01-1.136-.128 3.157 3.157 0 01-.992-.416 3.048 3.048 0 01-.768-.752v4.32h-1.136zm3.984-4.016c.662 0 1.184-.149 1.568-.448.395-.309.678-.715.848-1.216a4.797 4.797 0 00.272-1.648c0-.608-.09-1.163-.272-1.664a2.509 2.509 0 00-.88-1.2c-.405-.309-.938-.464-1.6-.464-.608 0-1.125.155-1.552.464-.416.309-.73.72-.944 1.232a4.246 4.246 0 00-.32 1.648c0 .629.102 1.195.304 1.696.214.491.534.88.96 1.168.438.288.976.432 1.616.432zm9.337.992c-.885 0-1.627-.181-2.224-.544a3.485 3.485 0 01-1.344-1.536c-.288-.651-.432-1.392-.432-2.224 0-.843.144-1.584.432-2.224a3.485 3.485 0 011.344-1.536c.597-.373 1.344-.56 2.24-.56.885 0 1.621.187 2.208.56.597.373 1.04.885 1.328 1.536.299.64.448 1.381.448 2.224 0 .832-.149 1.573-.448 2.224a3.485 3.485 0 01-1.344 1.536c-.587.363-1.323.544-2.208.544zm0-.992c.661 0 1.205-.144 1.632-.432.427-.299.741-.699.944-1.2a4.437 4.437 0 00.304-1.68c0-.619-.101-1.179-.304-1.68a2.638 2.638 0 00-.944-1.2c-.427-.299-.971-.448-1.632-.448-.661 0-1.205.149-1.632.448a2.638 2.638 0 00-.944 1.2 4.663 4.663 0 00-.288 1.68c0 .619.096 1.179.288 1.68.203.501.517.901.944 1.2.427.288.971.432 1.632.432zm4.959 3.568v-3.648c.277-.011.507-.091.688-.24a1.74 1.74 0 00.432-.592c.117-.245.208-.512.272-.8a9.19 9.19 0 00.176-.88c.075-.501.123-1.003.144-1.504.021-.512.032-.917.032-1.216.011-.373.016-.741.016-1.104v-1.12h5.904v7.456h1.136v3.648h-1.104V228h-6.592v2.672h-1.104zm1.872-3.648h4.656v-6.48h-3.68c-.011.448-.021.933-.032 1.456a62.91 62.91 0 01-.048 1.488c-.011.363-.037.757-.08 1.184a7.022 7.022 0 01-.24 1.248 3.122 3.122 0 01-.576 1.104zm12.011 1.072c-.885 0-1.621-.181-2.208-.544a3.445 3.445 0 01-1.296-1.536c-.288-.651-.432-1.387-.432-2.208 0-.811.15-1.541.448-2.192a3.573 3.573 0 011.344-1.568c.598-.384 1.355-.576 2.272-.576.544 0 1.035.091 1.472.272.438.171.806.432 1.104.784.299.341.512.768.64 1.28h-1.168c-.17-.48-.448-.821-.832-1.024-.373-.213-.805-.32-1.296-.32-.672 0-1.216.16-1.632.48-.416.309-.725.72-.928 1.232a4.523 4.523 0 00-.288 1.632c0 .597.096 1.147.288 1.648.203.501.512.901.928 1.2.427.299.971.448 1.632.448.48 0 .928-.101 1.344-.304.416-.203.704-.549.864-1.04h1.184a2.737 2.737 0 01-.72 1.328 3.266 3.266 0 01-1.232.768c-.469.16-.965.24-1.488.24zm5.212-.096v-8.432h1.136v3.728h1.712l2.56-3.728h1.28l-2.816 4.032 3.072 4.4h-1.312l-2.64-3.728h-1.856V228h-1.136zm10.688.096c-.342 0-.688-.043-1.04-.128a3.267 3.267 0 01-.96-.432 2.432 2.432 0 01-.704-.768c-.171-.32-.256-.693-.256-1.12 0-.48.085-.88.256-1.2a2.16 2.16 0 01.72-.768c.298-.192.64-.325 1.024-.4a5.612 5.612 0 011.216-.128h2.672c0-.523-.075-.981-.224-1.376a1.903 1.903 0 00-.704-.96c-.32-.235-.752-.352-1.296-.352a3.55 3.55 0 00-.832.096 2.096 2.096 0 00-.72.32 1.423 1.423 0 00-.48.576h-1.216c.096-.373.256-.688.48-.944.234-.256.506-.459.816-.608.309-.16.634-.272.976-.336.341-.064.666-.096.976-.096.8 0 1.445.165 1.936.496.49.32.842.779 1.056 1.376.224.587.336 1.28.336 2.08V228h-.976l-.048-1.152c-.235.32-.518.571-.848.752a3.5 3.5 0 01-1.04.384 5.519 5.519 0 01-1.12.112zm.112-.992a3.8 3.8 0 001.424-.256 2.29 2.29 0 001.008-.8c.256-.352.384-.789.384-1.312v-.64h-1.888c-.331 0-.667.011-1.008.032a3.13 3.13 0 00-.928.16 1.378 1.378 0 00-.672.432c-.171.192-.256.469-.256.832s.09.661.272.896c.181.224.421.389.72.496.298.107.613.16.944.16zm5.579.896l2.256-3.376c-.64-.149-1.157-.416-1.552-.8-.384-.395-.576-.933-.576-1.616 0-.512.08-.939.24-1.28.16-.341.384-.608.672-.8a2.764 2.764 0 011.024-.432 6.554 6.554 0 011.344-.128h3.376V228h-1.136v-3.216h-2.192L514.42 228h-1.328zm4.24-4.192h1.408v-3.248h-2.016c-.331 0-.64.016-.928.048a2.19 2.19 0 00-.736.208 1.237 1.237 0 00-.512.48c-.117.203-.176.48-.176.832 0 .395.085.704.256.928a1.6 1.6 0 00.704.496c.288.107.608.176.96.208s.699.048 1.04.048zm12.749 4.288c-.885 0-1.627-.181-2.224-.544a3.485 3.485 0 01-1.344-1.536c-.288-.651-.432-1.392-.432-2.224 0-.843.144-1.584.432-2.224a3.485 3.485 0 011.344-1.536c.597-.373 1.344-.56 2.24-.56.885 0 1.621.187 2.208.56.597.373 1.04.885 1.328 1.536.299.64.448 1.381.448 2.224 0 .832-.149 1.573-.448 2.224a3.485 3.485 0 01-1.344 1.536c-.587.363-1.323.544-2.208.544zm0-.992c.661 0 1.205-.144 1.632-.432.427-.299.741-.699.944-1.2a4.437 4.437 0 00.304-1.68c0-.619-.101-1.179-.304-1.68a2.638 2.638 0 00-.944-1.2c-.427-.299-.971-.448-1.632-.448-.661 0-1.205.149-1.632.448a2.638 2.638 0 00-.944 1.2 4.663 4.663 0 00-.288 1.68c0 .619.096 1.179.288 1.68.203.501.517.901.944 1.2.427.288.971.432 1.632.432zm9.559.992c-.587 0-1.099-.085-1.536-.256a2.987 2.987 0 01-1.072-.752 3.98 3.98 0 01-.704-1.12 6.868 6.868 0 01-.384-1.36 10.05 10.05 0 01-.112-1.52c0-.757.021-1.472.064-2.144a6.506 6.506 0 01.384-1.808c.202-.544.528-.997.976-1.36.448-.363 1.066-.613 1.856-.752.458-.085.912-.155 1.36-.208l1.328-.16c.128-.021.261-.043.4-.064.138-.021.282-.043.432-.064a9.66 9.66 0 01.448-.08v1.04c-.107.043-.246.08-.416.112-.171.021-.352.048-.544.08l-.576.064a7.335 7.335 0 00-.512.048c-.15.011-.272.021-.368.032-.384.043-.779.096-1.184.16-.395.053-.768.16-1.12.32-.342.149-.63.411-.864.784-.16.256-.283.549-.368.88a6.373 6.373 0 00-.176.992c-.032.32-.054.608-.064.864.224-.405.506-.72.848-.944.341-.235.704-.4 1.088-.496.384-.107.746-.16 1.088-.16.757 0 1.402.16 1.936.48.533.32.933.768 1.2 1.344.277.576.416 1.243.416 2 0 .768-.15 1.461-.448 2.08a3.425 3.425 0 01-1.312 1.44c-.566.352-1.254.528-2.064.528zm.032-.992c.576 0 1.061-.133 1.456-.4.394-.277.693-.645.896-1.104.213-.459.32-.96.32-1.504s-.102-1.029-.304-1.456a2.335 2.335 0 00-.896-1.024c-.384-.256-.859-.384-1.424-.384-.544 0-1.019.133-1.424.4a2.782 2.782 0 00-.928 1.056 3.11 3.11 0 00-.336 1.44c0 .533.096 1.029.288 1.488.202.448.496.811.88 1.088.394.267.885.4 1.472.4zm4.82.928v-1.008a1.323 1.323 0 00.992-.496c.192-.235.336-.56.432-.976.096-.427.16-.885.192-1.376.043-.501.07-1.008.08-1.52.022-.523.038-1.04.048-1.552.022-.523.038-1.035.048-1.536h5.776V228h-1.136v-7.456h-3.536c-.01.405-.026.811-.048 1.216-.01.395-.026.789-.048 1.184-.01.395-.026.795-.048 1.2a13.7 13.7 0 01-.16 1.52 3.676 3.676 0 01-.528 1.424c-.213.341-.474.581-.784.72-.309.139-.736.213-1.28.224zm12.44.064c-.341 0-.688-.043-1.04-.128a3.267 3.267 0 01-.96-.432 2.432 2.432 0 01-.704-.768c-.171-.32-.256-.693-.256-1.12 0-.48.085-.88.256-1.2a2.16 2.16 0 01.72-.768c.299-.192.64-.325 1.024-.4a5.612 5.612 0 011.216-.128h2.672c0-.523-.075-.981-.224-1.376a1.897 1.897 0 00-.704-.96c-.32-.235-.752-.352-1.296-.352-.288 0-.565.032-.832.096a2.096 2.096 0 00-.72.32 1.423 1.423 0 00-.48.576h-1.216c.096-.373.256-.688.48-.944a2.68 2.68 0 01.816-.608c.309-.16.635-.272.976-.336a5.3 5.3 0 01.976-.096c.8 0 1.445.165 1.936.496.491.32.843.779 1.056 1.376.224.587.336 1.28.336 2.08V228h-.976l-.048-1.152c-.235.32-.517.571-.848.752a3.5 3.5 0 01-1.04.384 5.519 5.519 0 01-1.12.112zm.112-.992c.523 0 .997-.085 1.424-.256a2.28 2.28 0 001.008-.8c.256-.352.384-.789.384-1.312v-.64h-1.888c-.331 0-.667.011-1.008.032a3.137 3.137 0 00-.928.16 1.387 1.387 0 00-.672.432c-.171.192-.256.469-.256.832s.091.661.272.896c.181.224.421.389.72.496.299.107.613.16.944.16zm9.707.992c-.885 0-1.621-.181-2.208-.544a3.445 3.445 0 01-1.296-1.536c-.288-.651-.432-1.387-.432-2.208 0-.811.15-1.541.448-2.192a3.573 3.573 0 011.344-1.568c.598-.384 1.355-.576 2.272-.576.544 0 1.035.091 1.472.272.438.171.806.432 1.104.784.299.341.512.768.64 1.28h-1.168c-.17-.48-.448-.821-.832-1.024-.373-.213-.805-.32-1.296-.32-.672 0-1.216.16-1.632.48-.416.309-.725.72-.928 1.232a4.523 4.523 0 00-.288 1.632c0 .597.096 1.147.288 1.648.203.501.512.901.928 1.2.427.299.971.448 1.632.448.48 0 .928-.101 1.344-.304.416-.203.704-.549.864-1.04h1.184a2.737 2.737 0 01-.72 1.328 3.266 3.266 0 01-1.232.768c-.469.16-.965.24-1.488.24zm7.228-.096v-7.44h-3.008v-.992h7.12v.992h-2.992V228h-1.12zm5.344 0v-8.432h1.152v3.312h1.968c.469 0 .906.037 1.312.112a2.89 2.89 0 011.056.368c.309.181.549.432.72.752.17.32.256.731.256 1.232 0 .469-.08.875-.24 1.216-.16.331-.39.603-.688.816-.288.213-.63.373-1.024.48a5.484 5.484 0 01-1.296.144h-3.216zm1.152-.976h1.168c.373 0 .736-.011 1.088-.032a4.25 4.25 0 00.96-.192c.298-.096.533-.256.704-.48.17-.224.256-.533.256-.928 0-.363-.075-.645-.224-.848a1.33 1.33 0 00-.576-.448 2.248 2.248 0 00-.768-.192 7.266 7.266 0 00-.832-.048h-1.776v3.168z" fill="#fff" fill-opacity=".64"/><g clip-path="url(#clip2_44_799)"><path d="M613.901 390.436s2.742 2.225 7.239 1.222c4.263-.947 8.238-2.023 14.916.389v14.279s-6.142-2.928-11.737-1.622c-5.594 1.306-8.757.805-10.418-.856" fill="#E21B1B"/><path d="M614.088 389.492h-1.062V421h1.062v-31.508z" fill="#999"/><path d="M613.557 390.225a1.613 1.613 0 100-3.225 1.613 1.613 0 000 3.225z" fill="#666"/></g><path d="M607.724 444.112v-1.152c.245-.011.464-.064.656-.16.192-.107.357-.245.496-.416.149-.181.261-.384.336-.608.107-.32.187-.672.24-1.056.053-.384.091-.773.112-1.168.021-.405.032-.784.032-1.136l.096-5.728h7.44V444h-1.152v-10.272h-5.12l-.096 4.08c-.011.619-.027 1.243-.048 1.872-.021.619-.08 1.205-.176 1.76-.085.544-.251 1.003-.496 1.376a2.376 2.376 0 01-.88.928c-.373.213-.853.336-1.44.368zm12.263-.112v-11.312h1.152v5.232h6.463v-5.232h1.153V444h-1.153v-5.024h-6.463V444h-1.152zm11.609 0v-11.312h3.872c.821 0 1.525.133 2.112.4a2.844 2.844 0 011.344 1.232c.32.544.48 1.237.48 2.08 0 .832-.187 1.531-.56 2.096a3.301 3.301 0 01-1.504 1.264c-.629.277-1.355.416-2.176.416h-2.416V444h-1.152zm1.152-4.864h2.368c.917 0 1.664-.219 2.24-.656.576-.437.864-1.152.864-2.144 0-.896-.245-1.552-.736-1.968-.48-.427-1.179-.64-2.096-.64h-2.64v5.408z" fill="#fff" fill-opacity=".64"/><g clip-path="url(#clip3_44_799)"><path d="M518.901 551.436s2.742 2.225 7.239 1.222c4.263-.947 8.238-2.023 14.916.389v14.279s-6.142-2.928-11.737-1.622c-5.594 1.306-8.757.805-10.418-.856" fill="#E21B1B"/><path d="M519.088 550.492h-1.062V582h1.062v-31.508z" fill="#999"/><path d="M518.557 551.225a1.613 1.613 0 100-3.225 1.613 1.613 0 000 3.225z" fill="#666"/></g><path d="M512.884 608.184v-4.224c.405-.032.715-.149.928-.352a1.99 1.99 0 00.512-.736c.107-.267.192-.587.256-.96s.112-.768.144-1.184c.043-.416.075-.827.096-1.232.053-1.003.091-1.984.112-2.944.032-.96.053-1.915.064-2.864h7.12v10.272h1.392v4.224h-1.152V605h-8.304v3.184h-1.168zm2.176-4.224h5.904v-9.232h-4.832l-.16 4.832c-.011.256-.027.571-.048.944a9.172 9.172 0 01-.112 1.152 7.126 7.126 0 01-.272 1.2 4.83 4.83 0 01-.48 1.104zm10.255 1.04v-11.312h1.152v5.232h6.464v-5.232h1.152V605h-1.152v-5.024h-6.464V605h-1.152zm11.609 0v-11.312h3.872c.821 0 1.525.133 2.112.4a2.844 2.844 0 011.344 1.232c.32.544.48 1.237.48 2.08 0 .832-.187 1.531-.56 2.096a3.301 3.301 0 01-1.504 1.264c-.629.277-1.355.416-2.176.416h-2.416V605h-1.152zm1.152-4.864h2.368c.917 0 1.664-.219 2.24-.656.576-.437.864-1.152.864-2.144 0-.896-.245-1.552-.736-1.968-.48-.427-1.179-.64-2.096-.64h-2.64v5.408z" fill="#fff" fill-opacity=".64"/><g clip-path="url(#clip4_44_799)"><path d="M365.401 608.436s2.742 2.225 7.239 1.222c4.263-.947 8.238-2.023 14.916.389v14.279s-6.142-2.928-11.737-1.622c-5.594 1.306-8.757.805-10.418-.856" fill="#E21B1B"/><path d="M365.588 607.492h-1.062V639h1.062v-31.508z" fill="#999"/><path d="M365.057 608.225a1.613 1.613 0 100-3.225 1.613 1.613 0 000 3.225z" fill="#666"/></g><path d="M329.149 662.128a7.817 7.817 0 01-1.504-.144 5.175 5.175 0 01-1.36-.496 2.927 2.927 0 01-.992-.88c-.256-.363-.4-.805-.432-1.328h1.168c.043.341.16.629.352.864.192.224.437.411.736.56.299.139.619.24.96.304.352.053.688.08 1.008.08.32 0 .656-.027 1.008-.08.352-.053.683-.155.992-.304.309-.16.56-.384.752-.672.192-.299.288-.683.288-1.152 0-.448-.08-.811-.24-1.088a1.52 1.52 0 00-.656-.64 2.506 2.506 0 00-.976-.304 8.09 8.09 0 00-1.168-.08h-1.424v-1.04h.88c.384 0 .757-.037 1.12-.112a3.648 3.648 0 001.008-.352c.309-.171.555-.389.736-.656.181-.267.272-.592.272-.976 0-.544-.133-.96-.4-1.248a2.056 2.056 0 00-.976-.608 4.312 4.312 0 00-1.232-.176c-.416 0-.832.059-1.248.176a2.508 2.508 0 00-1.024.56c-.277.256-.432.592-.464 1.008h-1.168c.011-.459.112-.848.304-1.168.192-.32.437-.581.736-.784.309-.213.64-.379.992-.496a4.798 4.798 0 011.04-.256c.352-.053.661-.08.928-.08.469 0 .917.053 1.344.16a3.46 3.46 0 011.152.48c.352.224.629.523.832.896.203.363.304.811.304 1.344 0 .309-.053.624-.16.944a2.33 2.33 0 01-.544.912c-.267.288-.656.539-1.168.752.768.117 1.355.443 1.76.976.416.523.624 1.141.624 1.856-.011.587-.139 1.088-.384 1.504a2.853 2.853 0 01-.944 1.008 4.216 4.216 0 01-1.328.56c-.48.117-.981.176-1.504.176zm8.736-.032c-.341 0-.688-.043-1.04-.128a3.267 3.267 0 01-.96-.432 2.432 2.432 0 01-.704-.768c-.171-.32-.256-.693-.256-1.12 0-.48.085-.88.256-1.2a2.16 2.16 0 01.72-.768c.299-.192.64-.325 1.024-.4a5.612 5.612 0 011.216-.128h2.672c0-.523-.075-.981-.224-1.376a1.897 1.897 0 00-.704-.96c-.32-.235-.752-.352-1.296-.352-.288 0-.565.032-.832.096a2.096 2.096 0 00-.72.32 1.423 1.423 0 00-.48.576h-1.216c.096-.373.256-.688.48-.944a2.68 2.68 0 01.816-.608c.309-.16.635-.272.976-.336a5.3 5.3 0 01.976-.096c.8 0 1.445.165 1.936.496.491.32.843.779 1.056 1.376.224.587.336 1.28.336 2.08V662h-.976l-.048-1.152c-.235.32-.517.571-.848.752a3.5 3.5 0 01-1.04.384 5.519 5.519 0 01-1.12.112zm.112-.992c.523 0 .997-.085 1.424-.256a2.28 2.28 0 001.008-.8c.256-.352.384-.789.384-1.312v-.64h-1.888c-.331 0-.667.011-1.008.032a3.137 3.137 0 00-.928.16 1.387 1.387 0 00-.672.432c-.171.192-.256.469-.256.832s.091.661.272.896c.181.224.421.389.72.496.299.107.613.16.944.16zm6.091.896v-8.432h6.96V662h-1.136v-7.44h-4.688V662h-1.136zm12.852.096c-.885 0-1.626-.181-2.224-.544a3.485 3.485 0 01-1.344-1.536c-.288-.651-.432-1.392-.432-2.224 0-.843.144-1.584.432-2.224a3.485 3.485 0 011.344-1.536c.598-.373 1.344-.56 2.24-.56.886 0 1.622.187 2.208.56.598.373 1.04.885 1.328 1.536.299.64.448 1.381.448 2.224 0 .832-.149 1.573-.448 2.224a3.473 3.473 0 01-1.344 1.536c-.586.363-1.322.544-2.208.544zm0-.992c.662 0 1.206-.144 1.632-.432.427-.299.742-.699.944-1.2a4.437 4.437 0 00.304-1.68c0-.619-.101-1.179-.304-1.68a2.632 2.632 0 00-.944-1.2c-.426-.299-.97-.448-1.632-.448-.661 0-1.205.149-1.632.448a2.645 2.645 0 00-.944 1.2 4.663 4.663 0 00-.288 1.68c0 .619.096 1.179.288 1.68.203.501.518.901.944 1.2.427.288.971.432 1.632.432zm5.883 4.016v-11.552h1.088l.048 1.424c.33-.523.746-.907 1.248-1.152a3.914 3.914 0 011.712-.368c.853 0 1.552.192 2.096.576.544.384.949.907 1.216 1.568.266.651.4 1.381.4 2.192 0 .832-.139 1.573-.416 2.224a3.198 3.198 0 01-1.248 1.52c-.555.363-1.259.544-2.112.544-.395 0-.774-.043-1.136-.128a3.138 3.138 0 01-.992-.416 3.015 3.015 0 01-.768-.752v4.32h-1.136zm3.984-4.016c.661 0 1.184-.149 1.568-.448.394-.309.677-.715.848-1.216a4.82 4.82 0 00.272-1.648c0-.608-.091-1.163-.272-1.664a2.522 2.522 0 00-.88-1.2c-.406-.309-.939-.464-1.6-.464-.608 0-1.126.155-1.552.464-.416.309-.731.72-.944 1.232a4.228 4.228 0 00-.32 1.648c0 .629.101 1.195.304 1.696.213.491.533.88.96 1.168.437.288.976.432 1.616.432zm9.336.992c-.885 0-1.626-.181-2.224-.544a3.485 3.485 0 01-1.344-1.536c-.288-.651-.432-1.392-.432-2.224 0-.843.144-1.584.432-2.224a3.485 3.485 0 011.344-1.536c.598-.373 1.344-.56 2.24-.56.886 0 1.622.187 2.208.56.598.373 1.04.885 1.328 1.536.299.64.448 1.381.448 2.224 0 .832-.149 1.573-.448 2.224a3.473 3.473 0 01-1.344 1.536c-.586.363-1.322.544-2.208.544zm0-.992c.662 0 1.206-.144 1.632-.432.427-.299.742-.699.944-1.2a4.437 4.437 0 00.304-1.68c0-.619-.101-1.179-.304-1.68a2.632 2.632 0 00-.944-1.2c-.426-.299-.97-.448-1.632-.448-.661 0-1.205.149-1.632.448a2.645 2.645 0 00-.944 1.2 4.663 4.663 0 00-.288 1.68c0 .619.096 1.179.288 1.68.203.501.518.901.944 1.2.427.288.971.432 1.632.432zm4.879.896l2.72-4.416-2.48-4.016h1.232l2.272 3.744h1.472v-3.744h1.12v3.744h1.472l2.272-3.744h1.232l-2.48 4.016 2.72 4.416h-1.312l-2.272-3.744h-1.632V662h-1.12v-3.744h-1.632L382.334 662h-1.312zm16.37.096c-.885 0-1.621-.181-2.208-.544a3.445 3.445 0 01-1.296-1.536c-.288-.651-.432-1.387-.432-2.208 0-.811.149-1.541.448-2.192a3.573 3.573 0 011.344-1.568c.597-.384 1.355-.576 2.272-.576.544 0 1.035.091 1.472.272a2.73 2.73 0 011.104.784c.299.341.512.768.64 1.28h-1.168c-.171-.48-.448-.821-.832-1.024-.373-.213-.805-.32-1.296-.32-.672 0-1.216.16-1.632.48-.416.309-.725.72-.928 1.232a4.523 4.523 0 00-.288 1.632c0 .597.096 1.147.288 1.648.203.501.512.901.928 1.2.427.299.971.448 1.632.448.48 0 .928-.101 1.344-.304.416-.203.704-.549.864-1.04h1.184a2.737 2.737 0 01-.72 1.328 3.266 3.266 0 01-1.232.768c-.469.16-.965.24-1.488.24zm5.212-.096v-8.432h1.136v3.728h1.712l2.56-3.728h1.28l-2.816 4.032 3.072 4.4h-1.312l-2.64-3.728h-1.856V662h-1.136zm10.687.096c-.341 0-.688-.043-1.04-.128a3.267 3.267 0 01-.96-.432 2.444 2.444 0 01-.704-.768 2.352 2.352 0 01-.256-1.12c0-.48.086-.88.256-1.2.182-.32.422-.576.72-.768.299-.192.64-.325 1.024-.4.384-.085.79-.128 1.216-.128h2.672c0-.523-.074-.981-.224-1.376a1.892 1.892 0 00-.704-.96c-.32-.235-.752-.352-1.296-.352-.288 0-.565.032-.832.096a2.113 2.113 0 00-.72.32 1.44 1.44 0 00-.48.576h-1.216c.096-.373.256-.688.48-.944a2.68 2.68 0 01.816-.608c.31-.16.635-.272.976-.336.342-.064.667-.096.976-.096.8 0 1.446.165 1.936.496.491.32.843.779 1.056 1.376.224.587.336 1.28.336 2.08V662h-.976l-.048-1.152c-.234.32-.517.571-.848.752a3.49 3.49 0 01-1.04.384 5.512 5.512 0 01-1.12.112zm.112-.992c.523 0 .998-.085 1.424-.256a2.28 2.28 0 001.008-.8c.256-.352.384-.789.384-1.312v-.64h-1.888c-.33 0-.666.011-1.008.032-.341.011-.65.064-.928.16a1.387 1.387 0 00-.672.432c-.17.192-.256.469-.256.832s.091.661.272.896a1.6 1.6 0 00.72.496c.299.107.614.16.944.16zm5.58.896l2.256-3.376c-.64-.149-1.158-.416-1.552-.8-.384-.395-.576-.933-.576-1.616 0-.512.08-.939.24-1.28.16-.341.384-.608.672-.8a2.764 2.764 0 011.024-.432 6.554 6.554 0 011.344-.128h3.376V662h-1.136v-3.216h-2.192L420.311 662h-1.328zm4.24-4.192h1.408v-3.248h-2.016c-.331 0-.64.016-.928.048a2.183 2.183 0 00-.736.208 1.231 1.231 0 00-.512.48c-.118.203-.176.48-.176.832 0 .395.085.704.256.928a1.6 1.6 0 00.704.496c.288.107.608.176.96.208s.698.048 1.04.048zm-73.548 24.288c-.886 0-1.627-.181-2.224-.544a3.473 3.473 0 01-1.344-1.536c-.288-.651-.432-1.392-.432-2.224 0-.843.144-1.584.432-2.224a3.473 3.473 0 011.344-1.536c.597-.373 1.344-.56 2.24-.56.885 0 1.621.187 2.208.56.597.373 1.04.885 1.328 1.536.298.64.448 1.381.448 2.224 0 .832-.15 1.573-.448 2.224a3.485 3.485 0 01-1.344 1.536c-.587.363-1.323.544-2.208.544zm0-.992c.661 0 1.205-.144 1.632-.432.426-.299.741-.699.944-1.2a4.457 4.457 0 00.304-1.68c0-.619-.102-1.179-.304-1.68a2.645 2.645 0 00-.944-1.2c-.427-.299-.971-.448-1.632-.448-.662 0-1.206.149-1.632.448a2.632 2.632 0 00-.944 1.2 4.663 4.663 0 00-.288 1.68c0 .619.096 1.179.288 1.68.202.501.517.901.944 1.2.426.288.97.432 1.632.432zm9.558.992c-.586 0-1.098-.085-1.536-.256a2.996 2.996 0 01-1.072-.752 4.003 4.003 0 01-.704-1.12 7.006 7.006 0 01-.384-1.36 10.18 10.18 0 01-.112-1.52c0-.757.022-1.472.064-2.144a6.579 6.579 0 01.384-1.808c.203-.544.528-.997.976-1.36.448-.363 1.067-.613 1.856-.752.459-.085.912-.155 1.36-.208l1.328-.16c.128-.021.262-.043.4-.064.139-.021.283-.043.432-.064.16-.032.31-.059.448-.08v1.04c-.106.043-.245.08-.416.112-.17.021-.352.048-.544.08l-.576.064a7.393 7.393 0 00-.512.048 9.793 9.793 0 00-.368.032c-.384.043-.778.096-1.184.16-.394.053-.768.16-1.12.32-.341.149-.629.411-.864.784-.16.256-.282.549-.368.88a6.493 6.493 0 00-.176.992c-.032.32-.053.608-.064.864.224-.405.507-.72.848-.944.342-.235.704-.4 1.088-.496a4.06 4.06 0 011.088-.16c.758 0 1.403.16 1.936.48.534.32.934.768 1.2 1.344.278.576.416 1.243.416 2 0 .768-.149 1.461-.448 2.08a3.418 3.418 0 01-1.312 1.44c-.565.352-1.253.528-2.064.528zm.032-.992c.576 0 1.062-.133 1.456-.4.395-.277.694-.645.896-1.104.214-.459.32-.96.32-1.504s-.101-1.029-.304-1.456a2.322 2.322 0 00-.896-1.024c-.384-.256-.858-.384-1.424-.384-.544 0-1.018.133-1.424.4a2.79 2.79 0 00-.928 1.056 3.11 3.11 0 00-.336 1.44c0 .533.096 1.029.288 1.488.203.448.496.811.88 1.088.395.267.886.4 1.472.4zm4.821.928v-1.008a1.327 1.327 0 00.992-.496c.192-.235.336-.56.432-.976.096-.427.16-.885.192-1.376.043-.501.069-1.008.08-1.52.021-.523.037-1.04.048-1.552.021-.523.037-1.035.048-1.536h5.776V682h-1.136v-7.456h-3.536c-.011.405-.027.811-.048 1.216-.011.395-.027.789-.048 1.184a50.12 50.12 0 01-.048 1.2c-.021.469-.075.976-.16 1.52a3.676 3.676 0 01-.528 1.424c-.213.341-.475.581-.784.72-.309.139-.736.213-1.28.224zm12.44.064c-.342 0-.688-.043-1.04-.128a3.267 3.267 0 01-.96-.432 2.432 2.432 0 01-.704-.768c-.171-.32-.256-.693-.256-1.12 0-.48.085-.88.256-1.2a2.16 2.16 0 01.72-.768c.298-.192.64-.325 1.024-.4a5.612 5.612 0 011.216-.128h2.672c0-.523-.075-.981-.224-1.376a1.903 1.903 0 00-.704-.96c-.32-.235-.752-.352-1.296-.352a3.55 3.55 0 00-.832.096 2.096 2.096 0 00-.72.32 1.423 1.423 0 00-.48.576h-1.216c.096-.373.256-.688.48-.944.234-.256.506-.459.816-.608.309-.16.634-.272.976-.336.341-.064.666-.096.976-.096.8 0 1.445.165 1.936.496.49.32.842.779 1.056 1.376.224.587.336 1.28.336 2.08V682h-.976l-.048-1.152c-.235.32-.518.571-.848.752a3.5 3.5 0 01-1.04.384 5.519 5.519 0 01-1.12.112zm.112-.992a3.8 3.8 0 001.424-.256 2.29 2.29 0 001.008-.8c.256-.352.384-.789.384-1.312v-.64h-1.888c-.331 0-.667.011-1.008.032a3.13 3.13 0 00-.928.16 1.378 1.378 0 00-.672.432c-.171.192-.256.469-.256.832s.09.661.272.896c.181.224.421.389.72.496.298.107.613.16.944.16zm9.707.992c-.885 0-1.621-.181-2.208-.544a3.445 3.445 0 01-1.296-1.536c-.288-.651-.432-1.387-.432-2.208 0-.811.149-1.541.448-2.192a3.573 3.573 0 011.344-1.568c.597-.384 1.355-.576 2.272-.576.544 0 1.035.091 1.472.272a2.73 2.73 0 011.104.784c.299.341.512.768.64 1.28h-1.168c-.171-.48-.448-.821-.832-1.024-.373-.213-.805-.32-1.296-.32-.672 0-1.216.16-1.632.48-.416.309-.725.72-.928 1.232a4.523 4.523 0 00-.288 1.632c0 .597.096 1.147.288 1.648.203.501.512.901.928 1.2.427.299.971.448 1.632.448.48 0 .928-.101 1.344-.304.416-.203.704-.549.864-1.04h1.184a2.737 2.737 0 01-.72 1.328 3.266 3.266 0 01-1.232.768c-.469.16-.965.24-1.488.24zm7.228-.096v-7.44h-3.008v-.992h7.12v.992h-2.992V682h-1.12zm5.344 0v-8.432h1.152v3.312h1.967c.47 0 .907.037 1.313.112a2.89 2.89 0 011.056.368c.309.181.549.432.72.752.17.32.256.731.256 1.232 0 .469-.08.875-.24 1.216-.16.331-.39.603-.688.816-.288.213-.63.373-1.024.48a5.484 5.484 0 01-1.296.144h-3.216zm1.152-.976h1.168c.373 0 .736-.011 1.088-.032a4.25 4.25 0 00.96-.192c.298-.096.533-.256.704-.48.17-.224.256-.533.256-.928 0-.363-.075-.645-.224-.848a1.33 1.33 0 00-.576-.448 2.248 2.248 0 00-.768-.192 7.266 7.266 0 00-.832-.048h-1.776v3.168z" fill="#fff" fill-opacity=".64"/><g clip-path="url(#clip5_44_799)"><path d="M178.901 680.436s2.742 2.225 7.239 1.222c4.263-.947 8.238-2.023 14.916.389v14.279s-6.142-2.928-11.737-1.622c-5.594 1.306-8.757.805-10.418-.856" fill="#E21B1B"/><path d="M179.088 679.492h-1.062V711h1.062v-31.508z" fill="#999"/><path d="M178.557 680.225a1.613 1.613 0 100-3.225 1.613 1.613 0 000 3.225z" fill="#666"/></g><path d="M111.49 734l3.648-5.664-3.536-5.648h1.44l2.848 4.704 2.832-4.704h1.424l-3.52 5.6 3.648 5.712h-1.408l-2.992-4.736-3.008 4.736h-1.376zm13.777.096c-.885 0-1.621-.181-2.208-.544a3.417 3.417 0 01-1.312-1.536c-.288-.651-.432-1.392-.432-2.224 0-.832.15-1.568.448-2.208a3.52 3.52 0 011.328-1.536c.587-.384 1.307-.576 2.16-.576.619 0 1.158.117 1.616.352.47.224.859.533 1.168.928.31.395.534.843.672 1.344.15.501.224 1.019.224 1.552v.272a2 2 0 01-.016.256h-6.464c.043.565.171 1.072.384 1.52.214.437.523.784.928 1.04.416.245.934.368 1.552.368.288 0 .582-.032.88-.096.299-.075.571-.197.816-.368.246-.181.427-.416.544-.704h1.184c-.149.501-.4.912-.752 1.232a3.27 3.27 0 01-1.248.704c-.48.149-.97.224-1.472.224zm-2.784-4.896h5.312a3.063 3.063 0 00-.336-1.392 2.435 2.435 0 00-.88-.976c-.373-.245-.832-.368-1.376-.368-.565 0-1.045.128-1.44.384a2.603 2.603 0 00-.912 1.008 3.833 3.833 0 00-.368 1.344zm8.355 7.92v-11.552h1.088l.048 1.424c.331-.523.747-.907 1.248-1.152a3.917 3.917 0 011.712-.368c.854 0 1.552.192 2.096.576.544.384.95.907 1.216 1.568.267.651.4 1.381.4 2.192 0 .832-.138 1.573-.416 2.224a3.187 3.187 0 01-1.248 1.52c-.554.363-1.258.544-2.112.544a4.97 4.97 0 01-1.136-.128 3.157 3.157 0 01-.992-.416 3.048 3.048 0 01-.768-.752v4.32h-1.136zm3.984-4.016c.662 0 1.184-.149 1.568-.448.395-.309.678-.715.848-1.216a4.797 4.797 0 00.272-1.648c0-.608-.09-1.163-.272-1.664a2.509 2.509 0 00-.88-1.2c-.405-.309-.938-.464-1.6-.464-.608 0-1.125.155-1.552.464-.416.309-.73.72-.944 1.232a4.246 4.246 0 00-.32 1.648c0 .629.102 1.195.304 1.696.214.491.534.88.96 1.168.438.288.976.432 1.616.432zm9.429.992c-.885 0-1.621-.181-2.208-.544a3.445 3.445 0 01-1.296-1.536c-.288-.651-.432-1.387-.432-2.208 0-.811.15-1.541.448-2.192a3.573 3.573 0 011.344-1.568c.598-.384 1.355-.576 2.272-.576.544 0 1.035.091 1.472.272.438.171.806.432 1.104.784.299.341.512.768.64 1.28h-1.168c-.17-.48-.448-.821-.832-1.024-.373-.213-.805-.32-1.296-.32-.672 0-1.216.16-1.632.48-.416.309-.725.72-.928 1.232a4.523 4.523 0 00-.288 1.632c0 .597.096 1.147.288 1.648.203.501.512.901.928 1.2.427.299.971.448 1.632.448.48 0 .928-.101 1.344-.304.416-.203.704-.549.864-1.04h1.184a2.737 2.737 0 01-.72 1.328 3.266 3.266 0 01-1.232.768c-.469.16-.965.24-1.488.24zm8.892 0c-.885 0-1.626-.181-2.224-.544a3.485 3.485 0 01-1.344-1.536c-.288-.651-.432-1.392-.432-2.224 0-.843.144-1.584.432-2.224a3.485 3.485 0 011.344-1.536c.598-.373 1.344-.56 2.24-.56.886 0 1.622.187 2.208.56.598.373 1.04.885 1.328 1.536.299.64.448 1.381.448 2.224 0 .832-.149 1.573-.448 2.224a3.473 3.473 0 01-1.344 1.536c-.586.363-1.322.544-2.208.544zm0-.992c.662 0 1.206-.144 1.632-.432.427-.299.742-.699.944-1.2a4.437 4.437 0 00.304-1.68c0-.619-.101-1.179-.304-1.68a2.632 2.632 0 00-.944-1.2c-.426-.299-.97-.448-1.632-.448-.661 0-1.205.149-1.632.448a2.645 2.645 0 00-.944 1.2 4.663 4.663 0 00-.288 1.68c0 .619.096 1.179.288 1.68.203.501.518.901.944 1.2.427.288.971.432 1.632.432zm5.883.896v-8.432h1.136v3.808h4.64v-3.808h1.12V734h-1.12v-3.648h-4.64V734h-1.136zm12.725.096c-.885 0-1.621-.181-2.208-.544a3.445 3.445 0 01-1.296-1.536c-.288-.651-.432-1.387-.432-2.208 0-.811.15-1.541.448-2.192a3.573 3.573 0 011.344-1.568c.598-.384 1.355-.576 2.272-.576.544 0 1.035.091 1.472.272.438.171.806.432 1.104.784.299.341.512.768.64 1.28h-1.168c-.17-.48-.448-.821-.832-1.024-.373-.213-.805-.32-1.296-.32-.672 0-1.216.16-1.632.48-.416.309-.725.72-.928 1.232a4.523 4.523 0 00-.288 1.632c0 .597.096 1.147.288 1.648.203.501.512.901.928 1.2.427.299.971.448 1.632.448.48 0 .928-.101 1.344-.304.416-.203.704-.549.864-1.04h1.184a2.737 2.737 0 01-.72 1.328 3.266 3.266 0 01-1.232.768c-.469.16-.965.24-1.488.24zm5.212-.096v-8.432h1.136v3.728h1.712l2.56-3.728h1.28l-2.816 4.032 3.072 4.4h-1.312l-2.64-3.728h-1.856V734h-1.136zm10.688.096c-.342 0-.688-.043-1.04-.128a3.267 3.267 0 01-.96-.432 2.432 2.432 0 01-.704-.768c-.171-.32-.256-.693-.256-1.12 0-.48.085-.88.256-1.2a2.16 2.16 0 01.72-.768c.298-.192.64-.325 1.024-.4a5.612 5.612 0 011.216-.128h2.672c0-.523-.075-.981-.224-1.376a1.903 1.903 0 00-.704-.96c-.32-.235-.752-.352-1.296-.352a3.55 3.55 0 00-.832.096 2.096 2.096 0 00-.72.32 1.423 1.423 0 00-.48.576h-1.216c.096-.373.256-.688.48-.944.234-.256.506-.459.816-.608.309-.16.634-.272.976-.336.341-.064.666-.096.976-.096.8 0 1.445.165 1.936.496.49.32.842.779 1.056 1.376.224.587.336 1.28.336 2.08V734h-.976l-.048-1.152c-.235.32-.518.571-.848.752a3.5 3.5 0 01-1.04.384 5.519 5.519 0 01-1.12.112zm.112-.992a3.8 3.8 0 001.424-.256 2.29 2.29 0 001.008-.8c.256-.352.384-.789.384-1.312v-.64h-1.888c-.331 0-.667.011-1.008.032a3.13 3.13 0 00-.928.16 1.378 1.378 0 00-.672.432c-.171.192-.256.469-.256.832s.09.661.272.896c.181.224.421.389.72.496.298.107.613.16.944.16zm5.579.896l2.256-3.376c-.64-.149-1.157-.416-1.552-.8-.384-.395-.576-.933-.576-1.616 0-.512.08-.939.24-1.28.16-.341.384-.608.672-.8a2.764 2.764 0 011.024-.432 6.554 6.554 0 011.344-.128h3.376V734h-1.136v-3.216h-2.192L194.67 734h-1.328zm4.24-4.192h1.408v-3.248h-2.016c-.331 0-.64.016-.928.048a2.19 2.19 0 00-.736.208 1.237 1.237 0 00-.512.48c-.117.203-.176.48-.176.832 0 .395.085.704.256.928a1.6 1.6 0 00.704.496c.288.107.608.176.96.208s.699.048 1.04.048zm12.749 4.288c-.885 0-1.627-.181-2.224-.544a3.485 3.485 0 01-1.344-1.536c-.288-.651-.432-1.392-.432-2.224 0-.843.144-1.584.432-2.224a3.485 3.485 0 011.344-1.536c.597-.373 1.344-.56 2.24-.56.885 0 1.621.187 2.208.56.597.373 1.04.885 1.328 1.536.299.64.448 1.381.448 2.224 0 .832-.149 1.573-.448 2.224a3.485 3.485 0 01-1.344 1.536c-.587.363-1.323.544-2.208.544zm0-.992c.661 0 1.205-.144 1.632-.432.427-.299.741-.699.944-1.2a4.437 4.437 0 00.304-1.68c0-.619-.101-1.179-.304-1.68a2.638 2.638 0 00-.944-1.2c-.427-.299-.971-.448-1.632-.448-.661 0-1.205.149-1.632.448a2.638 2.638 0 00-.944 1.2 4.663 4.663 0 00-.288 1.68c0 .619.096 1.179.288 1.68.203.501.517.901.944 1.2.427.288.971.432 1.632.432zm9.559.992c-.587 0-1.099-.085-1.536-.256a2.987 2.987 0 01-1.072-.752 3.98 3.98 0 01-.704-1.12 6.868 6.868 0 01-.384-1.36 10.05 10.05 0 01-.112-1.52c0-.757.021-1.472.064-2.144a6.506 6.506 0 01.384-1.808c.202-.544.528-.997.976-1.36.448-.363 1.066-.613 1.856-.752.458-.085.912-.155 1.36-.208l1.328-.16c.128-.021.261-.043.4-.064.138-.021.282-.043.432-.064a9.66 9.66 0 01.448-.08v1.04c-.107.043-.246.08-.416.112-.171.021-.352.048-.544.08l-.576.064a7.335 7.335 0 00-.512.048c-.15.011-.272.021-.368.032-.384.043-.779.096-1.184.16-.395.053-.768.16-1.12.32-.342.149-.63.411-.864.784-.16.256-.283.549-.368.88a6.373 6.373 0 00-.176.992c-.032.32-.054.608-.064.864.224-.405.506-.72.848-.944.341-.235.704-.4 1.088-.496.384-.107.746-.16 1.088-.16.757 0 1.402.16 1.936.48.533.32.933.768 1.2 1.344.277.576.416 1.243.416 2 0 .768-.15 1.461-.448 2.08a3.425 3.425 0 01-1.312 1.44c-.566.352-1.254.528-2.064.528zm.032-.992c.576 0 1.061-.133 1.456-.4.394-.277.693-.645.896-1.104.213-.459.32-.96.32-1.504s-.102-1.029-.304-1.456a2.335 2.335 0 00-.896-1.024c-.384-.256-.859-.384-1.424-.384-.544 0-1.019.133-1.424.4a2.782 2.782 0 00-.928 1.056 3.11 3.11 0 00-.336 1.44c0 .533.096 1.029.288 1.488.202.448.496.811.88 1.088.394.267.885.4 1.472.4zm4.82.928v-1.008a1.323 1.323 0 00.992-.496c.192-.235.336-.56.432-.976.096-.427.16-.885.192-1.376.043-.501.07-1.008.08-1.52.022-.523.038-1.04.048-1.552.022-.523.038-1.035.048-1.536h5.776V734h-1.136v-7.456h-3.536c-.01.405-.026.811-.048 1.216-.01.395-.026.789-.048 1.184-.01.395-.026.795-.048 1.2a13.7 13.7 0 01-.16 1.52 3.676 3.676 0 01-.528 1.424c-.213.341-.474.581-.784.72-.309.139-.736.213-1.28.224zm12.44.064c-.341 0-.688-.043-1.04-.128a3.267 3.267 0 01-.96-.432 2.432 2.432 0 01-.704-.768c-.171-.32-.256-.693-.256-1.12 0-.48.085-.88.256-1.2a2.16 2.16 0 01.72-.768c.299-.192.64-.325 1.024-.4a5.612 5.612 0 011.216-.128h2.672c0-.523-.075-.981-.224-1.376a1.897 1.897 0 00-.704-.96c-.32-.235-.752-.352-1.296-.352-.288 0-.565.032-.832.096a2.096 2.096 0 00-.72.32 1.423 1.423 0 00-.48.576h-1.216c.096-.373.256-.688.48-.944a2.68 2.68 0 01.816-.608c.309-.16.635-.272.976-.336a5.3 5.3 0 01.976-.096c.8 0 1.445.165 1.936.496.491.32.843.779 1.056 1.376.224.587.336 1.28.336 2.08V734h-.976l-.048-1.152c-.235.32-.517.571-.848.752a3.5 3.5 0 01-1.04.384 5.519 5.519 0 01-1.12.112zm.112-.992c.523 0 .997-.085 1.424-.256a2.28 2.28 0 001.008-.8c.256-.352.384-.789.384-1.312v-.64h-1.888c-.331 0-.667.011-1.008.032a3.137 3.137 0 00-.928.16 1.387 1.387 0 00-.672.432c-.171.192-.256.469-.256.832s.091.661.272.896c.181.224.421.389.72.496.299.107.613.16.944.16zm9.707.992c-.885 0-1.621-.181-2.208-.544a3.445 3.445 0 01-1.296-1.536c-.288-.651-.432-1.387-.432-2.208 0-.811.15-1.541.448-2.192a3.573 3.573 0 011.344-1.568c.598-.384 1.355-.576 2.272-.576.544 0 1.035.091 1.472.272.438.171.806.432 1.104.784.299.341.512.768.64 1.28h-1.168c-.17-.48-.448-.821-.832-1.024-.373-.213-.805-.32-1.296-.32-.672 0-1.216.16-1.632.48-.416.309-.725.72-.928 1.232a4.523 4.523 0 00-.288 1.632c0 .597.096 1.147.288 1.648.203.501.512.901.928 1.2.427.299.971.448 1.632.448.48 0 .928-.101 1.344-.304.416-.203.704-.549.864-1.04h1.184a2.737 2.737 0 01-.72 1.328 3.266 3.266 0 01-1.232.768c-.469.16-.965.24-1.488.24zm7.228-.096v-7.44h-3.008v-.992h7.12v.992h-2.992V734h-1.12zm5.344 0v-8.432h1.152v3.312h1.968c.469 0 .906.037 1.312.112a2.89 2.89 0 011.056.368c.309.181.549.432.72.752.17.32.256.731.256 1.232 0 .469-.08.875-.24 1.216-.16.331-.39.603-.688.816-.288.213-.63.373-1.024.48a5.484 5.484 0 01-1.296.144h-3.216zm1.152-.976h1.168c.373 0 .736-.011 1.088-.032a4.25 4.25 0 00.96-.192c.298-.096.533-.256.704-.48.17-.224.256-.533.256-.928 0-.363-.075-.645-.224-.848a1.33 1.33 0 00-.576-.448 2.248 2.248 0 00-.768-.192 7.266 7.266 0 00-.832-.048h-1.776v3.168z" fill="#fff" fill-opacity=".64"/><defs><clipPath id="clip0_44_799"><path fill="#fff" transform="translate(370 48)" d="M0 0h34v34H0z"/></clipPath><clipPath id="clip1_44_799"><path fill="#fff" transform="translate(483 171)" d="M0 0h34v34H0z"/></clipPath><clipPath id="clip2_44_799"><path fill="#fff" transform="translate(607 387)" d="M0 0h34v34H0z"/></clipPath><clipPath id="clip3_44_799"><path fill="#fff" transform="translate(512 548)" d="M0 0h34v34H0z"/></clipPath><clipPath id="clip4_44_799"><path fill="#fff" transform="translate(358.5 605)" d="M0 0h34v34H0z"/></clipPath><clipPath id="clip5_44_799"><path fill="#fff" transform="translate(172 677)" d="M0 0h34v34H0z"/></clipPath></defs></svg>