<svg width="42" height="42" fill="none" xmlns="http://www.w3.org/2000/svg"><g clip-path="url(#clip0_81_718)" fill="#CC423F"><path d="M35.85 6.15A20.863 20.863 0 0021 0 20.863 20.863 0 006.15 6.15 20.863 20.863 0 000 21c0 5.61 2.184 10.883 6.15 14.85A20.863 20.863 0 0021 42c5.61 0 10.883-2.184 14.85-6.15A20.863 20.863 0 0042 21c0-5.61-2.184-10.883-6.15-14.85zM21 38.72C11.23 38.719 3.281 30.77 3.281 21S11.23 3.281 21 3.281c9.77 0 17.719 7.949 17.719 17.719 0 9.77-7.949 17.719-17.719 17.719z"/><path d="M21 7.219C13.401 7.219 7.219 13.4 7.219 21S13.4 34.781 21 34.781a13.63 13.63 0 006.008-1.38 1.64 1.64 0 00-1.435-2.95A10.376 10.376 0 0121 31.5c-5.79 0-10.5-4.71-10.5-10.5S15.21 10.5 21 10.5 31.5 15.21 31.5 21c0 1.554-.333 3.05-.99 4.448a1.64 1.64 0 102.97 1.396A13.638 13.638 0 0034.781 21C34.781 13.401 28.6 7.219 21 7.219z"/><path d="M23.247 17.9L20.2 20.948l-1.446-1.446a1.64 1.64 0 10-2.32 2.32l2.606 2.606c.32.32.74.48 1.16.48.42 0 .84-.16 1.16-.48l4.209-4.208a1.64 1.64 0 00-2.32-2.32z"/></g><defs><clipPath id="clip0_81_718"><path fill="#fff" d="M0 0h42v42H0z"/></clipPath></defs></svg>