<svg width="84" height="85" fill="none" xmlns="http://www.w3.org/2000/svg"><circle cx="42" cy="42.683" r="42" fill="#CC423F" fill-opacity=".16"/><circle cx="42" cy="42.683" r="26" fill="#CC423F"/><path d="M42.815 30.31l-3.269 2.58a.937.937 0 00-.356.736v1.852c2.055-1.542 4.083-2.842 6.072-3.892l-1.204-1.204a.937.937 0 00-1.243-.073zm6.725 15.5h1.835a.937.937 0 00.736-.356l2.58-3.268a.937.937 0 00-.073-1.244l-1.173-1.173c-.938 1.763-2.202 3.786-3.904 6.042zm-1.662-.912c6.151-8.076 6.385-12.948 6.392-13.203a.938.938 0 00-.99-.964c-.26.015-5.213.382-13.166 6.403l7.764 7.764z" fill="#24252A"/><path d="M55.607 34.577c-.198.68-.468 1.473-.839 2.374 2.318 4.89 1.705 10.968-2.14 15.349L32.701 32.371c4.433-3.891 10.546-4.437 15.392-2.12a24.81 24.81 0 012.36-.84c-6.133-3.82-14.356-3.131-19.763 2.275-4.419 4.42-5.682 10.721-3.921 16.21.424-.633.897-1.28 1.42-1.942-.9-4.236.147-8.794 3.186-12.257l19.928 19.927c-3.46 3.037-8.02 4.086-12.258 3.185a30.1 30.1 0 01-1.942 1.422c5.48 1.758 11.782.505 16.21-3.922 5.405-5.405 6.088-13.612 2.294-19.733z" fill="#24252A"/><path d="M44.254 49.227l-8.479-8.479a71.688 71.688 0 00-3.95 3.87l8.558 8.558a73.304 73.304 0 003.87-3.949zM30.57 46.015c-1.86 2.166-3.167 4.159-3.898 5.947-1.304 3.19-.467 4.97.465 5.901 1.564 1.565 3.843 1.307 5.901.465 1.789-.73 3.781-2.038 5.947-3.898l-8.415-8.415z" fill="#24252A"/></svg>