<svg width="84" height="85" fill="none" xmlns="http://www.w3.org/2000/svg"><path d="M84 42.683c0 23.196-18.804 42-42 42s-42-18.804-42-42 18.804-42 42-42 42 18.804 42 42z" fill="#CC423F" fill-opacity=".16"/><circle cx="42" cy="42.683" r="26" fill="#CC423F"/><path d="M45.847 43.746l-2.178 2.151c-.883.873-2.436.892-3.338 0l-2.178-2.151-7.821 7.726c.29.132.612.211.953.211h21.43a2.3 2.3 0 00.953-.211l-7.821-7.726z" fill="#24252A"/><path d="M52.715 33.683h-21.43a2.3 2.3 0 00-.953.212l8.357 8.256.002.001v.002l2.718 2.684c.289.284.893.284 1.182 0l2.717-2.684.001-.002h.002l8.357-8.257a2.29 2.29 0 00-.953-.212zm-23.472 1.261c-.15.3-.243.633-.243.99v13.5c0 .356.092.689.243.989l7.835-7.74-7.835-7.74zm25.514 0l-7.835 7.74 7.835 7.739c.15-.3.243-.633.243-.99v-13.5c0-.356-.092-.69-.243-.99z" fill="#24252A"/></svg>