<svg width="84" height="85" fill="none" xmlns="http://www.w3.org/2000/svg"><circle cx="42" cy="42.683" r="42" fill="#CC423F" fill-opacity=".16"/><circle cx="42" cy="42.683" r="26" fill="#CC423F"/><path fill-rule="evenodd" clip-rule="evenodd" d="M54.594 40.936c1.682 9.661-4.082 14.711-12.094 17.747-8.013-3.036-13.776-8.086-12.094-17.747.789-4.53.648-6.04-2.179-9.275a.907.907 0 01.202-1.37l4.015-2.525a1.215 1.215 0 011.527.18c1.57 1.604 4.534 2.036 6.687-.427a2.448 2.448 0 013.684 0c2.153 2.463 5.117 2.03 6.687.426a1.215 1.215 0 011.527-.18l4.015 2.526c.478.3.573.946.202 1.37-2.827 3.235-2.968 4.746-2.18 9.275zm-3.607-.168a9.945 9.945 0 00-8.487-4.742 9.945 9.945 0 00-8.488 4.742A9.945 9.945 0 0042.5 45.51a9.945 9.945 0 008.487-4.742zm-3.893 0c0 2.52-2.064 4.574-4.594 4.574-2.53 0-4.594-2.055-4.594-4.574 0-2.52 2.064-4.575 4.594-4.575 2.53 0 4.594 2.055 4.594 4.575zm-4.272-1.853a1.875 1.875 0 00-3.75 0 1.875 1.875 0 003.75 0z" fill="#24252A"/></svg>