<svg width="84" height="85" fill="none" xmlns="http://www.w3.org/2000/svg"><circle cx="42" cy="42.683" r="42" fill="#CC423F" fill-opacity=".16"/><circle cx="42" cy="42.683" r="26" fill="#CC423F"/><path d="M32.41 36.558c0-3.055 2.42-5.541 5.397-5.541h10.378c-.374-1.343-1.566-2.334-2.992-2.334H32.125c-1.724 0-3.125 1.439-3.125 3.209v18.083c0 1.77 1.401 3.208 3.125 3.208h.284V36.558z" fill="#24252A"/><path d="M50.875 33.35H37.807c-1.724 0-3.125 1.438-3.125 3.208v16.917c0 1.77 1.401 3.208 3.125 3.208h13.068c1.724 0 3.125-1.438 3.125-3.208V36.558c0-1.77-1.401-3.208-3.125-3.208zm-2.273 19.833H40.08a.864.864 0 01-.853-.875c0-.483.382-.875.853-.875h8.522c.47 0 .853.392.853.875a.864.864 0 01-.853.875zm0-4.666H40.08a.864.864 0 01-.853-.875c0-.483.382-.875.853-.875h8.522c.47 0 .853.392.853.875a.864.864 0 01-.853.875zm0-4.084H40.08a.864.864 0 01-.853-.875c0-.483.382-.875.853-.875h8.522c.47 0 .853.392.853.875a.864.864 0 01-.853.875zm0-4.666H40.08a.864.864 0 01-.853-.875c0-.483.382-.875.853-.875h8.522c.47 0 .853.392.853.875a.864.864 0 01-.853.875z" fill="#24252A"/></svg>