<svg width="118" height="111" viewBox="0 0 118 111" fill="none" xmlns="http://www.w3.org/2000/svg">
<path fill-rule="evenodd" clip-rule="evenodd" d="M109.75 55.2433C99.4138 65.3646 82.6548 65.3646 72.3182 55.2433C61.9816 45.1221 61.9816 28.7122 72.3182 18.591C82.6548 8.46968 99.4138 8.46968 109.75 18.591C120.087 28.7122 120.087 45.1221 109.75 55.2433ZM98.1206 54.8813C91.7585 57.2835 84.3776 56.3271 78.8267 52.0121L82.0631 48.843C85.9099 51.6247 90.7978 52.3941 95.2205 51.1512C96.4796 52.6497 97.4198 53.8835 98.1206 54.8813ZM99.2136 44.46C103.365 40.1482 103.287 33.3563 98.9791 29.1379C94.6365 24.8858 87.6237 24.8419 83.2261 29.0064C85.0114 30.4239 87.0934 32.1947 89.4572 34.3911C88.5139 35.8248 88.6831 37.7566 89.9648 39.0116C91.2465 40.2666 93.2194 40.4323 94.6836 39.5087C96.4515 41.3329 97.9495 42.9857 99.2136 44.46ZM80.1183 26.666C80.1911 26.5918 80.2648 26.5181 80.3394 26.445C82.6737 24.1593 85.5813 22.7769 88.6089 22.2979V17.8106C84.413 18.3183 80.3521 20.1493 77.1309 23.3034C76.8308 23.5973 76.5424 23.8983 76.2658 24.2058C77.0084 24.612 78.3034 25.3789 80.1183 26.666ZM72.5774 30.2663C73.5373 30.8526 74.8125 31.7163 76.4501 32.9832C75.184 37.4997 76.1415 42.4887 79.3227 46.2903L76.1019 49.444C71.3567 44.0325 70.1819 36.6525 72.5774 30.2663ZM79.8588 35.7772C81.8074 37.4546 84.0939 39.5463 86.7563 42.1532C88.9413 44.2927 90.7719 46.1843 92.3051 47.8485C89.0223 48.2123 85.6071 47.1616 83.0895 44.6964C80.5991 42.2579 79.5222 38.9595 79.8588 35.7772ZM101.663 47.4535C102.848 48.9792 103.702 50.2101 104.296 51.132C104.513 50.9372 104.727 50.7369 104.938 50.5309C108.173 47.3633 110.045 43.3666 110.554 39.2394H105.973C105.492 42.2229 104.077 45.09 101.729 47.3893C101.707 47.4107 101.685 47.4322 101.663 47.4535ZM110.646 35.5369C110.321 31.0793 108.418 26.7115 104.938 23.3034C101.443 19.8819 96.9612 18.0175 92.3902 17.71L92.3902 22.1666C95.7975 22.4651 99.1211 23.8913 101.729 26.445C104.324 28.9854 105.778 32.219 106.094 35.5369H110.646Z" fill="#24252A"/>
<path d="M65.1751 67.5011C63.3754 65.2153 60.8438 62.6653 58.4745 60.802L66.9236 54.0725C68.5581 52.7711 73.1977 57.4091 71.8957 59.0477L65.1751 67.5011Z" fill="#24252A"/>
<path d="M52.0293 62.5564C49.601 63.974 47.1902 66.3467 45.7241 68.8647L30.7564 52.2784C27.8616 49.0699 32.2266 44.7017 35.4414 47.5997L52.0293 62.5564Z" fill="#24252A"/>
<path d="M5.8274 18.8797C3.99436 19.39 2.55766 20.8267 2.04743 22.6597C-3.65156 43.157 7.14145 61.7672 21.6941 75.2188C24.0611 77.4039 27.7688 77.0556 29.6519 74.4874C31.7462 71.6317 35.0914 68.5054 38.5913 66.2585L28.1182 54.653C25.9584 52.2595 25.6514 49.059 27.1727 46.5146L13.3146 32.6565C12.6139 31.9557 12.6076 30.8258 13.3005 30.1328C13.9934 29.4399 15.1234 29.4462 15.8241 30.1469L29.6854 44.0082C32.228 42.496 35.4225 42.8045 37.813 44.9617L49.4216 55.4285C51.6701 51.927 54.798 48.5802 57.6552 46.4843C60.2234 44.6013 60.5718 40.8936 58.3867 38.5266C44.9349 23.9738 26.3247 13.1807 5.8274 18.8797Z" fill="#24252A"/>
<path d="M48.7047 77.0442L65.4643 93.8037C73.2105 101.55 84.7134 90.0382 76.9716 82.2965L60.212 65.5369C55.638 60.9629 44.1352 72.4746 48.7047 77.0442ZM73.0057 87.3285C73.7065 88.0292 73.7128 89.1592 73.0198 89.8521C72.3269 90.5451 71.1969 90.5388 70.4962 89.838L66.5668 85.9086C65.866 85.2079 65.8597 84.0779 66.5527 83.385C67.2456 82.692 68.3756 82.6983 69.0763 83.3991L73.0057 87.3285Z" fill="#24252A"/>
<path d="M48.7048 77.0442L65.4644 93.8037C73.2106 101.55 84.7135 90.0382 76.9717 82.2965L60.2121 65.5369C55.6381 60.9629 44.1353 72.4746 48.7048 77.0442ZM73.0058 87.3285C73.7066 88.0292 73.7129 89.1592 73.0199 89.8522C72.327 90.5451 71.197 90.5388 70.4963 89.838L66.5669 85.9086C65.8661 85.2079 65.8598 84.0779 66.5528 83.385C67.2457 82.692 68.3757 82.6984 69.0764 83.3991L73.0058 87.3285Z" fill="#CC423F"/>
<path d="M44.4554 76.1278C45.9305 78.4984 48.3054 80.9071 50.7635 82.4331L35.9747 95.6034C33.1138 98.1505 28.7458 93.7853 31.2956 90.9187L44.4554 76.1278Z" fill="#24252A"/>
</svg>
