<svg width="100" height="111" viewBox="0 0 100 111" fill="none" xmlns="http://www.w3.org/2000/svg">
<path fill-rule="evenodd" clip-rule="evenodd" d="M78.9896 56.8991H97.875C96.9385 60.2018 95.6847 63.3783 94.148 66.3923H79.9692C79.9802 63.951 79.7598 61.3743 79.2881 58.6532C79.1813 58.037 79.0809 57.454 78.9896 56.8991ZM20.7119 58.6532C20.8188 58.037 20.9189 57.454 21.0105 56.8991H2.125C3.06157 60.2018 4.31535 63.3783 5.85199 66.3923H20.0308C20.0198 63.951 20.2402 61.3743 20.7119 58.6532ZM99.8113 40.3979C99.7991 40.1027 99.7843 39.8073 99.767 39.5114H84.2956C84.0904 40.3263 83.6944 41.1098 83.098 41.7951C79.0448 46.4524 78.134 49.0069 78.5044 53.3075H98.7566C99.6227 49.1503 99.9947 44.8244 99.8113 40.3979ZM16.9018 41.7951C16.3054 41.1098 15.9094 40.3263 15.7042 39.5114H0.232773C0.198426 40.1034 0.173957 40.6936 0.159365 41.282C0.0569975 45.4005 0.435039 49.4276 1.24343 53.3075H21.4954C21.8655 49.0069 20.955 46.4524 16.9018 41.7951ZM20.2227 69.9842H7.86365C9.6883 72.9623 11.8028 75.7493 14.1709 78.3036H22.2452C21.8123 77.2184 21.4433 76.0943 21.1335 74.9346C20.7117 73.3551 20.403 71.7078 20.2227 69.9842ZM79.7773 69.9842C79.5546 72.1137 79.1382 74.1285 78.5496 76.0393C78.3118 76.8105 78.049 77.5666 77.7549 78.3036H85.8291C88.1973 75.7493 90.312 72.9625 92.1364 69.9842H79.7773ZM43.3679 28.2229C46.8726 24.1962 53.1276 24.1962 56.6321 28.2229C57.3384 29.0344 58.1643 29.7158 59.0997 30.1582L65.8376 26.2683V20.0041H55.5088V3.47174C55.5088 1.93825 54.2541 0.68335 52.7206 0.68335H47.2796C45.7462 0.68335 44.4915 1.93803 44.4915 3.47174V20.0041H34.1625V26.2683L40.9003 30.1582C41.8358 29.7158 42.6617 29.0342 43.3679 28.2229ZM41.6604 97.4793V102.344L50 110.683L58.3398 102.344V97.4793C55.6042 98.8559 52.854 99.97 50 101.056C47.1461 99.9702 44.3958 98.8561 41.6604 97.4793Z" fill="#24252A"/>
<path fill-rule="evenodd" clip-rule="evenodd" d="M43.3679 28.2229C46.8727 24.1962 53.1276 24.1962 56.6322 28.2229C57.3384 29.0344 58.1643 29.7158 59.0998 30.1582L65.8376 26.2683V20.0041H55.5088V3.47174C55.5088 1.93825 54.2541 0.68335 52.7206 0.68335H47.2797C45.7462 0.68335 44.4915 1.93803 44.4915 3.47174V20.0041H34.1625V26.2683L40.9003 30.1582C41.8358 29.7158 42.6617 29.0342 43.3679 28.2229ZM41.6604 97.4793V102.344L50 110.683L58.3398 102.344V97.4793C55.6042 98.8559 52.854 99.97 50 101.056C47.1461 99.9702 44.3959 98.8561 41.6604 97.4793Z" fill="#CC423F"/>
<path fill-rule="evenodd" clip-rule="evenodd" d="M75.749 59.2668C79.3301 79.9239 67.0594 90.7215 50 97.213C32.9403 90.7215 20.6697 79.9239 24.251 59.2668C25.9299 49.5829 25.6298 46.3528 19.6114 39.4371C18.8217 38.5297 19.0239 37.1491 20.0411 36.5066L28.5892 31.1078C29.6392 30.4447 30.9742 30.6025 31.841 31.4917C35.1839 34.9224 41.4945 35.8464 46.0775 30.5812C48.1518 28.1978 51.8489 28.198 53.9232 30.5812C58.5059 35.8464 64.8166 34.9224 68.1597 31.4917C69.0264 30.6023 70.3612 30.4447 71.4114 31.1078L79.9596 36.5066C80.9765 37.1491 81.179 38.5297 80.3892 39.4371C74.3709 46.3528 74.0701 49.5829 75.749 59.2668ZM68.0712 58.9074C64.3516 52.8266 57.6499 48.7683 49.9998 48.7683C42.3496 48.7683 35.6479 52.8266 31.9283 58.9074C35.6479 64.9881 42.3496 69.0462 49.9998 69.0462C57.6499 69.0462 64.3516 64.9881 68.0712 58.9074ZM59.7808 58.9074C59.7808 64.2945 55.3871 68.6882 49.9998 68.6882C44.6124 68.6882 40.2189 64.2945 40.2189 58.9074C40.2189 53.5203 44.6127 49.1263 49.9998 49.1263C55.3869 49.1263 59.7808 53.5201 59.7808 58.9074ZM50.6863 54.9465C50.6863 52.7471 48.8926 50.9532 46.693 50.9532C44.4935 50.9532 42.6998 52.7471 42.6998 54.9465C42.6998 57.1458 44.4937 58.9397 46.693 58.9397C48.8923 58.9397 50.6863 57.1458 50.6863 54.9465Z" fill="#24252A"/>
</svg>
