<svg width="90" height="91" viewBox="0 0 90 91" fill="none" xmlns="http://www.w3.org/2000/svg">
<path d="M47.2907 9.98992L38.0989 17.2486C37.4658 17.7486 37.0964 18.5109 37.0964 19.3176V24.5263C42.877 20.1895 48.5788 16.5341 54.1745 13.581L50.7884 10.1949C49.843 9.24918 48.3396 9.16129 47.2907 9.98992Z" fill="#24252A"/>
<path d="M66.2087 53.5879H71.3669C72.1735 53.5879 72.9359 53.2186 73.4358 52.5855L80.6944 43.3937C81.5228 42.3444 81.4348 40.8411 80.4894 39.8958L77.1884 36.5948C74.5506 41.5534 70.996 47.2442 66.2087 53.5879Z" fill="#24252A"/>
<path d="M61.531 51.0212C78.8328 28.3086 79.4886 14.604 79.5104 13.8882C79.557 12.3424 78.2673 11.0872 76.7234 11.1766C75.9925 11.2188 62.0627 12.2505 39.6943 29.1842L61.531 51.0212Z" fill="#24252A"/>
<path d="M83.2695 21.9937C82.7129 23.906 81.952 26.1374 80.9106 28.6695C87.4302 42.4223 85.7056 59.5179 74.8915 71.8381L18.8461 15.7925C31.3139 4.84867 48.5078 3.31216 62.137 9.83067C64.6574 8.7932 66.8784 8.02873 68.7743 7.46711C51.5247 -3.27841 28.3975 -1.33989 13.1915 13.8659C0.763444 26.2942 -2.79068 44.0193 2.16179 59.4559C3.35394 57.6757 4.68636 55.8543 6.15906 53.9945C3.62569 42.0809 6.56933 29.2598 15.1179 19.5206L71.1634 75.5662C61.4312 84.1087 48.6066 87.0592 36.6897 84.5251C34.8297 85.9978 33.0083 87.3304 31.2283 88.5224C46.6391 93.4666 64.3654 89.9452 76.8181 77.4926C92.0188 62.2918 93.9403 39.2085 83.2695 21.9937Z" fill="#CC423F"/>
<path d="M51.3387 63.1974L27.4922 39.3507C23.9287 42.5874 19.7669 46.6108 16.3809 50.2335L40.4508 74.3034C44.0445 70.9446 48.0959 66.7575 51.3387 63.1974Z" fill="#24252A"/>
<path d="M12.8543 54.1633C7.6229 60.256 3.94608 65.8592 1.88926 70.8894C-1.77842 79.8585 0.576351 84.8658 3.1976 87.4869C7.59689 91.8867 14.0057 91.1623 19.7949 88.795C24.8252 86.738 30.4284 83.0612 36.521 77.8298L12.8543 54.1633Z" fill="#24252A"/>
</svg>
