<svg width="724" height="816" viewBox="0 0 724 816" fill="none" xmlns="http://www.w3.org/2000/svg">
<path d="M255.599 67.7408L254.203 69.8359V75.4228L255.599 85.8982L245.822 89.39L241.632 85.8982L231.157 91.485L233.95 98.4686L241.632 106.151L245.822 111.737V117.324V124.308V129.895L251.409 133.387L245.822 137.577L241.632 143.862L245.822 149.449L251.409 150.846L255.599 148.052H267.472L272.36 154.337C274.222 154.337 278.366 155.455 280.042 159.924C281.718 164.394 283.999 162.718 284.931 161.321V154.337V147.354L292.612 136.18L296.104 133.387H305.183H309.373L319.848 137.577L326.832 141.767L333.816 148.052L335.212 154.337C334.747 156.665 333.816 161.88 333.816 164.114C333.816 166.349 331.953 165.977 331.022 165.511H326.832V169.701L330.324 180.177V183.668L335.911 194.842V203.921L340.101 208.111L342.196 216.491V220.681L340.101 224.872L335.911 225.57L335.212 229.062L335.911 236.744L340.101 242.331L348.481 251.409H351.275V257.694L356.163 266.773H361.75L367.337 257.694L370.13 254.901H384.098H391.081L398.065 256.298L401.556 261.186L407.143 266.773L409.937 274.455L418.317 286.327L430.888 294.009L435.776 286.327C436.707 283.534 439.128 277.668 441.363 276.55L446.251 271.662L464.409 268.868L478.376 263.98L483.963 257.694L486.058 254.901H494.438L503.517 251.409V254.901L499.327 261.186L505.612 263.98L507.707 268.868H513.294L514.691 273.757L513.294 280.74L514.691 282.835L517.484 290.517L525.166 297.501L532.848 302.389L539.832 304.485L541.228 310.77L549.609 313.563V321.944L552.402 328.927H547.513V335.212L544.022 337.307C544.022 338.704 545.139 343.313 549.609 350.576C549.609 353.928 548.212 352.904 547.513 351.973L544.022 355.465L541.228 357.56L537.737 361.052L532.848 365.94V369.432L526.563 377.812L517.484 382.701L514.691 388.986V393.875V396.668C515.156 397.366 516.925 399.182 520.278 400.858C523.63 402.534 524.933 402.488 525.166 402.255L526.563 408.54C527.494 409.704 529.635 412.172 530.753 412.73C531.87 413.289 532.615 414.36 532.848 414.825L534.943 418.317L536.34 419.714L539.832 421.809L541.228 423.904H552.402L558.687 430.189L563.576 435.776L567.766 437.871L563.576 449.045V456.727L555.195 463.012H549.609L544.022 469.996V476.979V487.455C543.556 488.619 542.346 491.505 541.228 493.74C540.111 495.975 538.435 498.396 537.737 499.327C537.271 500.723 533.127 504.215 520.278 507.009C517.484 506.31 513.992 507.707 510.5 510.5C507.009 513.294 502.12 516.786 493.042 520.976C486.756 523.071 489.55 522.373 486.058 520.976C483.264 519.859 483.497 520.51 483.963 520.976L469.996 531.451C466.504 534.943 459.66 541.927 460.219 541.927C460.777 541.927 461.383 543.789 461.615 544.72V549.609C460.684 550.307 458.124 551.704 455.33 551.704C452.537 551.704 451.838 550.307 451.838 549.609C450.442 549.376 447.508 548.631 446.95 547.513C446.391 546.396 445.786 547.048 445.553 547.513L441.363 544.72L438.569 543.323L435.776 541.927V543.323L430.888 544.72V547.513V554.497C430.655 556.825 430.329 561.76 430.888 562.877C431.586 564.274 430.189 572.654 429.491 573.353C428.932 573.911 427.396 573.586 426.697 573.353C425.999 573.818 424.323 574.75 423.206 574.75C422.088 574.75 419.481 575.215 418.317 575.448L413.429 572.654H409.937C409.704 573.586 409.378 575.727 409.937 576.845C410.495 577.962 408.307 576.379 407.143 575.448L404.35 574.75L401.556 572.654L399.461 570.559L398.065 571.956H393.875V570.559L395.271 568.464C395.038 567.766 394.433 566.09 393.875 564.972C393.316 563.855 393.642 561.714 393.875 560.782H391.081L389.684 557.291L388.986 553.799L389.684 551.704C390.15 551.005 391.081 549.19 391.081 547.513C391.081 545.837 390.15 544.953 389.684 544.72H388.288L384.098 546.117L382.701 543.323V541.927C381.77 542.392 379.628 543.323 378.511 543.323H376.416L372.924 544.72L370.13 543.323V541.927H367.337H363.845L359.655 536.34L357.56 537.737L354.068 539.133L351.275 541.927H348.481H344.989H342.196L335.212 539.133L331.022 536.34H326.832H323.34H319.848L316.357 539.133H312.167H309.373L307.278 541.927H300.993H296.104V536.34H292.612V539.133L294.708 546.117L291.216 547.513L292.612 553.1L296.104 560.782H292.612H289.819L287.724 562.179L289.819 567.068L292.612 568.464L296.104 571.956L294.708 575.448C294.708 576.612 294.987 579.219 296.104 580.336C297.501 581.733 298.199 581.035 300.993 581.733C303.228 582.292 301.924 584.294 300.993 585.225C300.062 585.923 297.78 587.879 296.104 590.113C294.428 592.348 295.406 594.304 296.104 595.002C296.803 595.7 298.199 597.376 298.199 598.494V602.684L300.993 606.176L298.199 611.413L289.819 610.366L285.629 607.572H280.042H275.153L270.265 604.081L264.678 606.176L261.186 609.667L249.314 610.366H245.124L242.331 615.254H235.347L230.458 619.445L224.173 617.349H221.38L219.983 615.254L217.888 611.413L214.396 613.159H206.016L194.842 615.254V613.159L189.954 611.413L191.35 609.667L192.049 606.176V601.287H187.16L184.367 602.684L182.272 607.572H180.875L172.495 610.366L171.098 615.254H169.003L167.606 610.366L163.416 607.572L161.321 606.176L155.734 604.081L148.052 602.684C148.75 603.848 150.147 606.455 150.147 607.572C150.147 608.69 152.475 607.107 153.639 606.176L155.734 610.366L153.639 615.254V621.54L152.242 624.333L148.052 623.635V617.349L146.655 619.445L144.56 621.54V623.635L146.655 626.428H150.147L153.639 628.523V632.713L155.734 638.999V645.284H153.639V643.189H150.147L146.655 650.871L144.56 648.776H140.37V652.267L136.18 653.664V658.553V661.346L138.275 663.441L144.56 668.33L148.052 663.441L150.147 658.553L153.639 655.759V658.553V661.346L150.147 668.33L144.56 673.917L142.465 671.821H138.275C139.206 673.684 141.348 677.827 142.465 679.503C143.583 681.179 141.069 680.202 139.672 679.503L136.18 682.995H134.085L136.18 686.487H138.275L136.18 689.28L129.196 691.375L120.816 694.169L117.324 692.772V689.28H113.833H107.547V691.375L105.452 694.169L100.564 692.772L97.7703 691.375H94.9768L91.485 694.169V697.661H89.39L87.9932 694.169H83.1047L78.9146 697.661L76.1211 701.153H73.3277L68.4392 703.248V706.041V710.93H63.5507L60.0589 713.025L57.2654 714.421L55.8687 717.913V722.802V726.293L47.4884 729.785L45.3933 732.579L47.4884 736.769V742.356L45.3933 747.244H42.5999H34.2196L27.9344 745.149L19.5541 742.356L9.07867 740.959L0 742.356L1.39672 752.831V761.91L4.88851 766.1L12.5705 777.274L27.9344 784.956L45.3933 787.749C48.1868 788.215 54.1927 789.146 55.8687 789.146C57.5448 789.146 64.0163 791.939 67.0425 793.336L81.0097 799.621L112.436 807.303C114.531 807.769 119.14 808.839 120.816 809.398C122.911 810.097 129.196 808.001 131.292 807.303C132.968 806.744 140.836 803.811 144.56 802.415L188.557 789.146L191.034 782.861L188.557 777.274L192.049 773.083V770.29L191.034 766.1L192.049 761.91L196.239 764.005L200.429 766.1L206.016 767.497H209.508H214.396L222.777 774.48L225.57 778.67L230.458 774.48L234.649 778.67L238.839 780.067L243.029 782.861L247.917 780.067L251.409 782.861C253.039 785.421 256.437 790.822 256.996 791.939C257.555 793.057 259.557 795.664 260.488 796.828H263.98L268.17 790.542L270.963 789.146L277.249 791.939L284.232 799.621L287.026 802.415V810.795L291.914 812.192L295.406 815.683H301.691H312.167L318.452 812.192L322.642 810.795L319.848 805.906L315.658 796.828H318.452L326.832 793.336L332.419 789.146L338.006 780.067L341.498 773.083L344.291 767.497L350.576 760.513L351.973 758.418L356.861 755.625L362.448 748.641L371.527 742.356C372.691 743.752 375.438 746.965 377.114 748.641C378.79 750.317 381.537 752.133 382.701 752.831L391.779 754.228L401.556 752.831L410.635 746.546L412.73 742.356L416.92 739.562C418.596 738.445 419.947 736.769 420.412 736.07L425.301 726.992L428.094 728.388C429.724 729.552 433.122 732.02 433.681 732.579C434.24 733.137 437.638 735.139 439.268 736.07H451.14L460.917 729.785L464.409 724.198L466.504 716.516V714.421L469.996 709.533L474.186 708.136H479.074L481.169 709.533H486.058H493.042C494.438 709.533 500.025 704.644 502.12 703.248C503.796 702.13 510.733 695.333 513.992 692.074H523.071C529.589 691.375 542.904 689.979 544.022 689.979H549.609H555.195C556.872 689.979 557.756 688.116 557.989 687.185L559.386 682.995C561.481 682.064 566.09 679.922 567.766 678.805C569.861 677.408 571.956 675.313 571.956 673.917C571.956 672.799 570.559 670.658 569.861 669.726L567.766 663.441L563.576 660.648V656.458V652.966C564.041 650.172 565.531 644.446 567.766 643.887C570.001 643.328 570.094 642.258 569.861 641.792L571.956 637.602L569.861 635.507H567.766H563.576L561.481 633.412L563.576 629.221L567.766 626.428L569.861 623.635V608.271H571.956L573.353 600.589H579.638L583.828 598.494V595.7H588.018H594.304L597.097 593.605L598.494 590.812L602.684 588.018V592.208H608.271L606.874 588.018L609.667 585.225L608.271 581.035V576.845L611.763 575.448V571.956H613.858L616.651 569.163L620.143 568.464H629.92L634.808 574.051L638.3 570.559H646.68C648.915 570.559 650.405 569.163 650.871 568.464L657.156 570.559L659.251 574.051L661.346 569.163L665.536 571.956L667.631 574.051H673.917H676.012H678.805L682.297 575.448L685.789 574.051L689.28 568.464V562.179H690.677V555.894L689.28 552.402V546.815L693.471 545.418L695.566 543.323V537.737H699.057V531.451H701.851L702.549 525.864H706.041V522.373V516.786L703.946 514.691C702.316 513.527 699.057 511.059 699.057 510.5V507.707L701.851 503.517L695.566 497.232V493.74V487.455L690.677 481.868H687.884H682.995C681.598 481.868 678.805 481.588 678.805 480.471C678.805 479.074 682.297 477.678 682.297 476.979V469.996V467.202V463.012C683.461 462.546 685.789 461.336 685.789 460.219C685.789 459.101 687.185 457.425 687.884 456.727C688.815 454.865 691.236 451.14 693.471 451.14C695.705 451.14 696.73 453.933 696.962 455.33C698.592 455.33 702.13 455.609 703.248 456.727C704.365 457.844 705.575 456.261 706.041 455.33L712.326 449.045L711.628 443.458L708.834 442.061C707.903 443.225 706.041 445.832 706.041 446.95C706.041 448.067 703.248 447.415 701.851 446.95L699.057 445.553H693.471H690.677L687.884 442.061L684.392 437.871L682.297 435.776L676.012 433.681C676.943 432.284 678.805 429.072 678.805 427.396C678.805 425.72 681.133 426.697 682.297 427.396L687.884 425.999L693.471 423.904H699.057L703.946 417.619L706.041 410.635H710.231C711.628 409.704 714.701 407.562 715.818 406.445C716.935 405.328 717.215 403.652 717.215 402.953H721.405L723.5 400.858L721.405 398.763C721.172 397.599 720.846 394.992 721.405 393.875C721.964 392.757 719.775 388.753 718.612 386.891L715.818 382.701L710.231 377.812C709.766 376.648 708.834 373.901 708.834 372.225C708.834 370.549 711.162 367.337 712.326 365.94C713.49 365.009 716.097 363.426 717.215 364.543C718.332 365.661 718.612 362.681 718.612 361.052L715.818 355.465L712.326 357.56H703.946L702.549 361.052L696.962 363.147L687.884 361.052L685.789 358.258L678.805 355.465L676.012 350.576V346.386L673.917 341.498H670.425L665.536 338.704L662.743 337.307H659.251L655.759 341.498L652.966 338.704L645.982 337.307L644.585 335.212L645.982 328.927L642.49 326.134L640.395 321.944V319.848V316.357L642.49 313.563V310.77L645.982 309.373L646.68 307.278L648.077 304.485L645.982 302.389H643.887L644.585 297.501H642.49L640.395 296.803V294.009C640.395 293.311 640.395 291.914 638.3 290.517C637.741 289.959 636.671 289.353 636.205 289.121V286.327C636.205 285.769 637.602 283.767 638.3 282.835L636.205 280.74C635.74 280.275 634.808 279.064 634.808 277.947V276.55L633.412 274.455L631.317 273.757C630.618 273.291 629.221 272.22 629.221 271.662C629.221 270.963 630.618 269.567 631.317 268.868L633.412 266.773C633.97 266.214 633.644 264.678 633.412 263.98L631.317 263.281L629.221 261.186L628.523 257.694L627.126 256.298L624.333 254.901L625.73 251.409C626.661 250.245 628.663 247.778 629.221 247.219C629.78 246.66 631.782 246.055 632.713 245.822L634.808 244.426V241.632L633.412 240.934V238.839C632.946 236.511 631.875 231.716 631.317 231.157C630.758 230.598 632.481 229.527 633.412 229.062L630.618 227.665L628.523 225.57H625.73L622.936 224.872L624.333 221.38L625.031 218.586L621.54 220.681H615.953L615.254 216.491L610.366 217.19L609.667 212.301L610.366 210.904L612.461 208.111L610.366 206.714H608.271L606.874 208.111H602.684L600.589 206.714V203.921L603.382 202.524V198.334V194.842L606.176 192.049H609.667L611.763 193.445L614.556 194.842L615.254 192.049V187.859L613.858 187.16L610.366 185.065L609.667 183.668L611.763 181.573L613.858 180.875L614.556 176.685H612.461L610.366 175.288L609.667 171.098L604.779 169.701L603.382 172.495L600.589 173.891V178.082L597.795 180.177H594.304H591.51L590.113 178.082L585.923 176.685L587.32 172.495L584.527 169.701L581.035 171.098L579.638 173.891L576.146 172.495V169.701L575.448 165.511L574.75 164.114L575.448 161.321H579.638L583.828 162.718L585.923 159.924L587.32 154.337H585.923H582.431L581.035 150.846V148.052V145.259L578.241 144.56H576.146L575.448 145.259L572.654 148.052L570.559 147.354L569.163 143.164L570.559 141.767L571.956 137.577L575.448 136.18V131.292L570.559 133.387L569.163 129.895V125.705L570.559 124.308V120.816L567.766 117.324V113.134L565.671 111.737L563.576 108.944H561.481L563.576 106.151L561.481 102.659L555.894 101.96V96.3736L559.386 94.9768H562.179L563.576 90.7867H565.671H569.163L573.353 93.5801H579.638L582.431 89.39L583.828 85.8982H581.035L579.638 82.4064L578.241 78.9146L579.638 75.4228V72.6293L578.241 70.5343L579.638 67.7408V64.249V62.154V59.3605H573.353L570.559 62.154H569.163V56.5671V55.1704L565.671 57.9638L563.576 62.154H559.386L557.989 59.3605H554.497L553.1 64.249H549.609L546.815 65.6458H541.927L538.435 64.249H533.546L532.15 59.3605L530.753 55.1704L529.356 51.6786L525.166 49.5835L522.373 53.0753L520.976 55.1704H516.786V51.6786H513.294H511.199L507.707 49.5835L505.612 48.1868L503.517 51.6786V57.9638L499.327 59.3605L494.438 56.5671L492.343 53.0753L490.248 49.5835H486.058L480.471 48.1868V46.0917L481.868 41.2032L480.471 39.1081H478.376L474.884 41.2032C474.419 40.5048 473.208 39.1081 472.091 39.1081C470.973 39.1081 470.228 41.436 469.996 42.5999L467.202 41.2032V37.7114H464.409L462.314 41.2032L460.219 39.1081L456.028 37.7114L451.838 36.3147L446.251 33.5212V30.7278V28.6327H440.665L435.776 26.5376V23.7442H427.396L423.904 19.5541L421.809 16.7606L420.412 13.9672L421.809 10.4754L419.015 6.98359L415.524 4.19015L411.333 1.39672C410.402 1.86229 408.261 2.79344 407.143 2.79344C405.747 2.79344 405.048 2.79344 403.652 4.19015C402.534 5.30753 401.789 6.51802 401.556 6.98359L398.763 8.38031H397.366L394.573 10.4754L384.098 11.8721L382.002 13.9672L379.907 15.3639H377.812L374.32 11.8721H369.432L361.75 19.5541H356.163V13.9672L357.56 11.8721V8.38031L353.37 5.58687V2.79344L349.878 0L344.989 1.39672L342.196 2.79344H333.816L330.324 1.39672H326.134H321.245L318.452 4.19015L314.96 6.98359L311.468 10.4754H307.278C307.045 9.31145 306.3 6.98359 305.183 6.98359H300.294H298.199C298.432 8.14752 298.758 10.7547 298.199 11.8721C297.641 12.9895 297.035 13.7344 296.803 13.9672L292.612 19.5541H296.803C298.479 19.5541 296.104 22.3475 294.708 23.7442L290.517 25.1409L288.422 28.6327L284.931 26.5376L281.439 23.7442L280.042 25.1409L277.947 26.5376V28.6327C278.645 29.0983 280.321 30.1691 281.439 30.7278C282.556 31.2865 282.835 32.8229 282.835 33.5212V37.7114L280.042 41.2032L277.947 43.9966L274.455 42.5999V46.0917H269.567L267.472 43.9966H264.678L263.281 48.1868L259.091 49.5835L255.599 51.6786V54.472L254.203 57.9638L251.409 59.3605V62.154H254.203L255.599 63.5507L259.091 62.154V66.3441L255.599 67.7408Z" fill="#2A2B31"/>
<path d="M333.117 187.859H336.609H339.402L342.196 190.652H346.386H347.783L349.179 192.747L353.37 194.144V190.652H355.465L358.258 194.144L361.052 190.652V187.859L362.448 184.367H365.242L367.337 187.859C368.035 189.721 369.572 192.887 370.13 190.652C370.829 187.859 372.225 187.859 372.924 187.859C373.482 187.859 373.156 185.531 372.924 184.367C373.156 184.6 373.901 184.646 375.019 182.97C376.136 181.294 377.347 179.944 377.812 179.478C378.278 179.246 379.488 178.64 380.606 178.082C381.723 177.523 383.399 172.495 383.399 175.288V169.701L380.606 168.305L379.209 165.511C378.743 166.209 378.371 167.187 380.606 165.511C382.84 163.835 385.727 162.019 386.891 161.321H389.684L392.478 165.511H393.874H398.065H399.461L402.255 163.416H403.651V168.305L408.54 169.701H410.635H412.032C412.032 169.236 412.311 168.305 413.428 168.305C414.825 168.305 415.524 165.511 416.92 165.511C418.038 165.511 419.248 167.373 419.714 168.305L421.11 169.701L423.206 173.193L425.301 169.701V165.511H427.396L430.189 168.305H431.586V171.796L434.379 169.701H436.474H442.061C442.061 169.003 442.341 167.187 443.458 165.511C444.575 163.835 448.579 162.019 450.442 161.321L453.235 159.924H456.727L463.71 157.131V155.734V153.639C464.409 153.173 465.945 152.103 466.504 151.544C467.062 150.985 469.064 149.914 469.996 149.449L473.487 151.544H475.582V149.449V143.862V140.37L476.979 136.878H481.868C482.1 137.577 482.845 138.973 483.963 138.973C485.08 138.973 488.153 138.973 489.55 138.973L490.946 134.783L495.136 133.387C495.602 133.387 496.952 133.387 498.628 133.387C500.304 133.387 503.051 133.387 504.215 133.387C505.146 132.688 507.148 131.292 507.707 131.292C508.405 131.292 509.802 131.292 511.199 131.292C512.316 131.292 517.717 131.292 520.277 131.292C520.51 131.292 521.115 131.292 521.674 131.292C522.233 131.292 524.235 131.292 525.166 131.292L526.563 133.387H530.054H531.451C532.382 133.852 534.524 134.783 535.641 134.783C537.038 134.783 540.53 132.688 541.927 134.783C543.044 136.459 544.254 135.482 544.72 134.783C545.186 134.783 546.396 135.202 547.513 136.878C548.91 138.973 549.608 136.878 551.005 136.878C552.123 136.878 554.264 136.878 555.195 136.878C555.428 137.577 556.173 138.973 557.29 138.973C558.408 138.973 560.084 138.973 560.782 138.973L562.179 140.37V143.862H569.163" stroke="#18191F"/>
<path d="M550.307 316.357H554.497H557.989L560.782 312.865L562.877 309.373C562.179 308.908 560.782 307.557 560.782 305.881C560.782 304.205 559.851 301.924 559.386 300.993V297.501L564.274 298.898H567.766L569.861 297.501H572.654V300.993L574.051 307.278L576.845 309.373H580.336H583.13L585.225 312.865H588.018H592.209V311.468H597.097V312.865L599.192 307.278H601.287C601.287 308.209 601.287 310.351 601.287 311.468C601.287 312.586 599.891 314.262 599.192 314.96L604.081 318.452C604.546 318.452 605.617 318.871 606.176 320.547C606.734 322.223 608.271 323.107 608.969 323.34C610.599 323.573 613.997 324.178 614.556 324.737C615.115 325.296 618.513 325.901 620.143 326.134L618.746 331.022C618.281 331.953 617.629 333.816 618.746 333.816C619.864 333.816 622.005 333.816 622.936 333.816L625.73 331.022V329.625H630.618H634.11C633.412 328.462 632.434 326.134 634.11 326.134C635.786 326.134 639.464 324.271 641.094 323.34" stroke="#18191F"/>
<path d="M564.274 456.727H567.766V458.822V461.615C567.533 462.779 567.347 465.107 568.464 465.107C569.582 465.107 570.792 466.038 571.258 466.504L569.861 469.297V472.091L567.766 474.884L564.973 475.583V478.376L566.369 479.773V483.963L567.766 486.756L569.861 490.248V494.438C569.163 495.137 567.766 496.673 567.766 497.232C567.766 497.79 565.904 499.792 564.973 500.723L569.861 502.12H571.258L573.353 500.025H577.543H579.638L582.432 502.12L581.733 505.612L580.336 512.596L579.638 516.786L581.733 519.579C582.432 520.045 583.968 520.836 584.527 520.277C585.085 519.719 588.018 520.045 589.415 520.277H591.51L592.907 523.769C592.907 524.235 592.907 525.445 592.907 526.563C592.907 527.68 592.907 530.753 592.907 532.15L595.002 533.546L599.192 534.245L601.287 536.34H604.081H606.874L609.668 538.435L611.064 540.53V545.418L611.763 548.212L614.556 550.307L615.953 551.704H622.238H625.73L629.222 553.799L630.618 557.291L632.713 560.782L633.412 562.179L630.618 566.369V568.464" stroke="#18191F"/>
<path d="M428.792 572.654L432.983 577.543L435.776 581.733L432.983 585.923L435.776 588.717L439.268 592.209L442.061 595.7L444.156 600.589L449.743 599.192L451.838 597.795V601.986L455.33 605.477V608.271L459.52 605.477H462.314L466.504 608.271L468.599 609.668L471.392 613.159L474.186 615.254L476.979 616.651L480.471 615.254L483.264 616.651L485.36 618.048C484.661 619.445 483.264 622.517 483.264 623.635C483.264 624.752 481.402 627.825 480.471 629.222H476.979H474.186V632.015L468.599 635.507C469.297 635.972 470.275 636.904 468.599 636.904C466.923 636.904 463.71 635.972 462.314 635.507H459.52L456.727 638.999L459.52 641.094V646.681V650.871H463.71V655.061V659.949V664.14H466.504L471.392 666.933C473.255 666.002 476.7 664.14 475.583 664.14C474.465 664.14 474.186 667.864 474.186 669.726V672.52L475.583 674.615L471.392 678.107L466.504 681.598L468.599 686.487L471.392 689.979L479.074 708.136" stroke="#18191F"/>
<path d="M239.537 615.254L241.632 618.048L239.537 622.238L243.029 624.333C243.494 625.497 244.426 627.965 244.426 628.523C244.426 629.082 244.426 632.481 244.426 634.11C245.124 634.343 246.521 635.227 246.521 636.904C246.521 638.58 246.521 640.395 246.521 641.094H249.314C250.245 640.163 252.247 638.3 252.806 638.3C253.365 638.3 254.901 638.3 255.599 638.3L257.694 635.507L259.091 634.11H262.583H263.98V636.904L262.583 639.697L265.376 641.094V642.49L263.98 644.585V648.077L265.376 652.267V654.363L267.471 659.251L268.868 662.044V666.235L270.265 669.726L272.36 671.123V674.615H274.455L276.55 676.012H279.344L282.835 677.408V679.503C283.301 680.667 284.232 683.135 284.232 683.694C284.232 684.252 284.232 685.789 284.232 686.487H289.819L288.422 692.772L284.232 696.264L282.835 699.756L280.74 701.153L277.947 702.549V706.041L279.344 707.438V712.326C279.344 713.956 279.344 717.354 279.344 717.913C279.344 718.472 281.671 720.008 282.835 720.707V724.897L284.93 725.595L289.121 724.198H291.216L294.707 724.897V729.785H298.199L301.691 731.88L303.088 733.277L307.976 735.372C308.442 736.536 309.373 739.004 309.373 739.562C309.373 740.121 309.373 744.451 309.373 746.546C309.373 747.71 309.373 750.317 309.373 751.434C309.373 752.552 309.373 754.228 309.373 754.926H317.055L321.943 757.021L326.134 759.116L330.324 764.005L335.212 767.497L342.196 772.385" stroke="#18191F"/>
<g clip-path="url(#clip0_44_799)">
<path d="M376.901 51.4362C376.901 51.4362 379.643 53.6605 384.14 52.658C388.403 51.7108 392.378 50.635 399.056 53.0469V67.3264C399.056 67.3264 392.914 64.3976 387.319 65.704C381.725 67.0103 378.562 66.5088 376.901 64.8481" fill="#E21B1B"/>
<path d="M377.088 50.4918H376.026V82H377.088V50.4918Z" fill="#999999"/>
<path d="M376.557 51.2252C377.448 51.2252 378.17 50.5032 378.17 49.6126C378.17 48.722 377.448 48 376.557 48C375.666 48 374.944 48.722 374.944 49.6126C374.944 50.5032 375.666 51.2252 376.557 51.2252Z" fill="#666666"/>
</g>
<path d="M324.424 105V93.688H325.576V99.016H327.464L331.24 93.688H332.568L328.52 99.304L332.6 105H331.24L327.608 100.056H325.576V105H324.424ZM333.735 108.712V107.64C334.258 107.64 334.679 107.56 334.999 107.4C335.33 107.24 335.602 106.995 335.815 106.664C336.039 106.333 336.252 105.923 336.455 105.432L332.695 96.568H334.039L337.079 104.088L339.591 96.568H340.887L338.343 103.704C338.236 104.013 338.108 104.365 337.959 104.76C337.82 105.144 337.666 105.539 337.495 105.944C337.324 106.349 337.138 106.728 336.935 107.08C336.732 107.432 336.508 107.715 336.263 107.928C336.039 108.131 335.815 108.285 335.591 108.392C335.378 108.509 335.127 108.589 334.839 108.632C334.551 108.685 334.183 108.712 333.735 108.712ZM342.213 108.12V96.568H343.301L343.349 97.992C343.68 97.4693 344.096 97.0853 344.597 96.84C345.109 96.5947 345.68 96.472 346.309 96.472C347.163 96.472 347.861 96.664 348.405 97.048C348.949 97.432 349.355 97.9547 349.621 98.616C349.888 99.2667 350.021 99.9973 350.021 100.808C350.021 101.64 349.883 102.381 349.605 103.032C349.339 103.683 348.923 104.189 348.357 104.552C347.803 104.915 347.099 105.096 346.245 105.096C345.851 105.096 345.472 105.053 345.109 104.968C344.747 104.883 344.416 104.744 344.117 104.552C343.819 104.349 343.563 104.099 343.349 103.8V108.12H342.213ZM346.197 104.104C346.859 104.104 347.381 103.955 347.765 103.656C348.16 103.347 348.443 102.941 348.613 102.44C348.795 101.939 348.885 101.389 348.885 100.792C348.885 100.184 348.795 99.6293 348.613 99.128C348.432 98.6267 348.139 98.2267 347.733 97.928C347.328 97.6187 346.795 97.464 346.133 97.464C345.525 97.464 345.008 97.6187 344.581 97.928C344.165 98.2373 343.851 98.648 343.637 99.16C343.424 99.672 343.317 100.221 343.317 100.808C343.317 101.437 343.419 102.003 343.621 102.504C343.835 102.995 344.155 103.384 344.581 103.672C345.019 103.96 345.557 104.104 346.197 104.104ZM355.626 105.096C354.741 105.096 354.005 104.915 353.418 104.552C352.842 104.179 352.41 103.667 352.122 103.016C351.834 102.365 351.69 101.629 351.69 100.808C351.69 99.9973 351.84 99.2667 352.138 98.616C352.437 97.9547 352.885 97.432 353.482 97.048C354.08 96.664 354.837 96.472 355.754 96.472C356.298 96.472 356.789 96.5627 357.226 96.744C357.664 96.9147 358.032 97.176 358.33 97.528C358.629 97.8693 358.842 98.296 358.97 98.808H357.802C357.632 98.328 357.354 97.9867 356.97 97.784C356.597 97.5707 356.165 97.464 355.674 97.464C355.002 97.464 354.458 97.624 354.042 97.944C353.626 98.2533 353.317 98.664 353.114 99.176C352.922 99.6773 352.826 100.221 352.826 100.808C352.826 101.405 352.922 101.955 353.114 102.456C353.317 102.957 353.626 103.357 354.042 103.656C354.469 103.955 355.013 104.104 355.674 104.104C356.154 104.104 356.602 104.003 357.018 103.8C357.434 103.597 357.722 103.251 357.882 102.76H359.066C358.938 103.293 358.698 103.736 358.346 104.088C358.005 104.429 357.594 104.685 357.114 104.856C356.645 105.016 356.149 105.096 355.626 105.096ZM360.838 105V96.568H361.974V100.296H363.686L366.246 96.568H367.526L364.71 100.6L367.782 105H366.47L363.83 101.272H361.974V105H360.838ZM371.526 105.096C371.184 105.096 370.838 105.053 370.486 104.968C370.134 104.872 369.814 104.728 369.526 104.536C369.238 104.333 369.003 104.077 368.822 103.768C368.651 103.448 368.566 103.075 368.566 102.648C368.566 102.168 368.651 101.768 368.822 101.448C369.003 101.128 369.243 100.872 369.542 100.68C369.84 100.488 370.182 100.355 370.566 100.28C370.95 100.195 371.355 100.152 371.782 100.152H374.454C374.454 99.6293 374.379 99.1707 374.23 98.776C374.091 98.3707 373.856 98.0507 373.526 97.816C373.206 97.5813 372.774 97.464 372.23 97.464C371.942 97.464 371.664 97.496 371.398 97.56C371.131 97.624 370.891 97.7307 370.678 97.88C370.475 98.0187 370.315 98.2107 370.198 98.456H368.982C369.078 98.0827 369.238 97.768 369.462 97.512C369.696 97.256 369.968 97.0533 370.278 96.904C370.587 96.744 370.912 96.632 371.254 96.568C371.595 96.504 371.92 96.472 372.23 96.472C373.03 96.472 373.675 96.6373 374.166 96.968C374.656 97.288 375.008 97.7467 375.222 98.344C375.446 98.9307 375.558 99.624 375.558 100.424V105H374.582L374.534 103.848C374.299 104.168 374.016 104.419 373.686 104.6C373.366 104.781 373.019 104.909 372.646 104.984C372.283 105.059 371.91 105.096 371.526 105.096ZM371.638 104.104C372.16 104.104 372.635 104.019 373.062 103.848C373.488 103.667 373.824 103.4 374.07 103.048C374.326 102.696 374.454 102.259 374.454 101.736V101.096H372.566C372.235 101.096 371.899 101.107 371.558 101.128C371.216 101.139 370.907 101.192 370.63 101.288C370.352 101.373 370.128 101.517 369.958 101.72C369.787 101.912 369.702 102.189 369.702 102.552C369.702 102.915 369.792 103.213 369.974 103.448C370.155 103.672 370.395 103.837 370.694 103.944C370.992 104.051 371.307 104.104 371.638 104.104ZM377.217 105L379.473 101.624C378.833 101.475 378.316 101.208 377.921 100.824C377.537 100.429 377.345 99.8907 377.345 99.208C377.345 98.696 377.425 98.2693 377.585 97.928C377.745 97.5867 377.969 97.32 378.257 97.128C378.545 96.9253 378.886 96.7813 379.281 96.696C379.686 96.6107 380.134 96.568 380.625 96.568H384.001V105H382.865V101.784H380.673L378.545 105H377.217ZM381.457 100.808H382.865V97.56H380.849C380.518 97.56 380.209 97.576 379.921 97.608C379.644 97.64 379.398 97.7093 379.185 97.816C378.972 97.9227 378.801 98.0827 378.673 98.296C378.556 98.4987 378.497 98.776 378.497 99.128C378.497 99.5227 378.582 99.832 378.753 100.056C378.934 100.28 379.169 100.445 379.457 100.552C379.745 100.659 380.065 100.728 380.417 100.76C380.769 100.792 381.116 100.808 381.457 100.808ZM394.206 105.096C393.321 105.096 392.579 104.915 391.982 104.552C391.385 104.179 390.937 103.667 390.638 103.016C390.35 102.365 390.206 101.624 390.206 100.792C390.206 99.9493 390.35 99.208 390.638 98.568C390.937 97.9173 391.385 97.4053 391.982 97.032C392.579 96.6587 393.326 96.472 394.222 96.472C395.107 96.472 395.843 96.6587 396.43 97.032C397.027 97.4053 397.47 97.9173 397.758 98.568C398.057 99.208 398.206 99.9493 398.206 100.792C398.206 101.624 398.057 102.365 397.758 103.016C397.459 103.667 397.011 104.179 396.414 104.552C395.827 104.915 395.091 105.096 394.206 105.096ZM394.206 104.104C394.867 104.104 395.411 103.96 395.838 103.672C396.265 103.373 396.579 102.973 396.782 102.472C396.985 101.971 397.086 101.411 397.086 100.792C397.086 100.173 396.985 99.6133 396.782 99.112C396.579 98.6107 396.265 98.2107 395.838 97.912C395.411 97.6133 394.867 97.464 394.206 97.464C393.545 97.464 393.001 97.6133 392.574 97.912C392.147 98.2107 391.833 98.6107 391.63 99.112C391.438 99.6133 391.342 100.173 391.342 100.792C391.342 101.411 391.438 101.971 391.63 102.472C391.833 102.973 392.147 103.373 392.574 103.672C393.001 103.96 393.545 104.104 394.206 104.104ZM403.765 105.096C403.178 105.096 402.666 105.011 402.229 104.84C401.802 104.659 401.445 104.408 401.157 104.088C400.869 103.768 400.634 103.395 400.453 102.968C400.282 102.541 400.154 102.088 400.069 101.608C399.994 101.117 399.957 100.611 399.957 100.088C399.957 99.3307 399.978 98.616 400.021 97.944C400.074 97.272 400.202 96.6693 400.405 96.136C400.607 95.592 400.933 95.1387 401.381 94.776C401.829 94.4133 402.447 94.1627 403.237 94.024C403.695 93.9387 404.149 93.8693 404.597 93.816C405.045 93.7627 405.487 93.7093 405.925 93.656C406.053 93.6347 406.186 93.6133 406.325 93.592C406.463 93.5707 406.607 93.5493 406.757 93.528C406.917 93.496 407.066 93.4693 407.205 93.448V94.488C407.098 94.5307 406.959 94.568 406.789 94.6C406.618 94.6213 406.437 94.648 406.245 94.68C406.053 94.7013 405.861 94.7227 405.669 94.744C405.487 94.7547 405.317 94.7707 405.157 94.792C405.007 94.8027 404.885 94.8133 404.789 94.824C404.405 94.8667 404.01 94.92 403.605 94.984C403.21 95.0373 402.837 95.144 402.485 95.304C402.143 95.4533 401.855 95.7147 401.621 96.088C401.461 96.344 401.338 96.6373 401.253 96.968C401.167 97.2987 401.109 97.6293 401.077 97.96C401.045 98.28 401.023 98.568 401.013 98.824C401.237 98.4187 401.519 98.104 401.861 97.88C402.202 97.6453 402.565 97.48 402.949 97.384C403.333 97.2773 403.695 97.224 404.037 97.224C404.794 97.224 405.439 97.384 405.973 97.704C406.506 98.024 406.906 98.472 407.173 99.048C407.45 99.624 407.589 100.291 407.589 101.048C407.589 101.816 407.439 102.509 407.141 103.128C406.842 103.736 406.405 104.216 405.829 104.568C405.263 104.92 404.575 105.096 403.765 105.096ZM403.797 104.104C404.373 104.104 404.858 103.971 405.253 103.704C405.647 103.427 405.946 103.059 406.149 102.6C406.362 102.141 406.469 101.64 406.469 101.096C406.469 100.552 406.367 100.067 406.165 99.64C405.962 99.2027 405.663 98.8613 405.269 98.616C404.885 98.36 404.41 98.232 403.845 98.232C403.301 98.232 402.826 98.3653 402.421 98.632C402.026 98.8987 401.717 99.2507 401.493 99.688C401.269 100.125 401.157 100.605 401.157 101.128C401.157 101.661 401.253 102.157 401.445 102.616C401.647 103.064 401.941 103.427 402.325 103.704C402.719 103.971 403.21 104.104 403.797 104.104ZM408.617 105.032V104.024C408.831 104.013 409.017 103.965 409.177 103.88C409.348 103.795 409.492 103.677 409.609 103.528C409.801 103.293 409.945 102.968 410.041 102.552C410.137 102.125 410.201 101.667 410.233 101.176C410.276 100.675 410.303 100.168 410.313 99.656C410.335 99.1333 410.351 98.616 410.361 98.104C410.383 97.5813 410.399 97.0693 410.409 96.568H416.185V105H415.049V97.544H411.513C411.503 97.9493 411.487 98.3547 411.465 98.76C411.455 99.1547 411.439 99.5493 411.417 99.944C411.407 100.339 411.391 100.739 411.369 101.144C411.348 101.613 411.295 102.12 411.209 102.664C411.124 103.197 410.948 103.672 410.681 104.088C410.468 104.429 410.207 104.669 409.897 104.808C409.588 104.947 409.161 105.021 408.617 105.032ZM421.057 105.096C420.716 105.096 420.369 105.053 420.017 104.968C419.665 104.872 419.345 104.728 419.057 104.536C418.769 104.333 418.534 104.077 418.353 103.768C418.182 103.448 418.097 103.075 418.097 102.648C418.097 102.168 418.182 101.768 418.353 101.448C418.534 101.128 418.774 100.872 419.073 100.68C419.372 100.488 419.713 100.355 420.097 100.28C420.481 100.195 420.886 100.152 421.313 100.152H423.985C423.985 99.6293 423.91 99.1707 423.761 98.776C423.622 98.3707 423.388 98.0507 423.057 97.816C422.737 97.5813 422.305 97.464 421.761 97.464C421.473 97.464 421.196 97.496 420.929 97.56C420.662 97.624 420.422 97.7307 420.209 97.88C420.006 98.0187 419.846 98.2107 419.729 98.456H418.513C418.609 98.0827 418.769 97.768 418.993 97.512C419.228 97.256 419.5 97.0533 419.809 96.904C420.118 96.744 420.444 96.632 420.785 96.568C421.126 96.504 421.452 96.472 421.761 96.472C422.561 96.472 423.206 96.6373 423.697 96.968C424.188 97.288 424.54 97.7467 424.753 98.344C424.977 98.9307 425.089 99.624 425.089 100.424V105H424.113L424.065 103.848C423.83 104.168 423.548 104.419 423.217 104.6C422.897 104.781 422.55 104.909 422.177 104.984C421.814 105.059 421.441 105.096 421.057 105.096ZM421.169 104.104C421.692 104.104 422.166 104.019 422.593 103.848C423.02 103.667 423.356 103.4 423.601 103.048C423.857 102.696 423.985 102.259 423.985 101.736V101.096H422.097C421.766 101.096 421.43 101.107 421.089 101.128C420.748 101.139 420.438 101.192 420.161 101.288C419.884 101.373 419.66 101.517 419.489 101.72C419.318 101.912 419.233 102.189 419.233 102.552C419.233 102.915 419.324 103.213 419.505 103.448C419.686 103.672 419.926 103.837 420.225 103.944C420.524 104.051 420.838 104.104 421.169 104.104ZM430.876 105.096C429.991 105.096 429.255 104.915 428.668 104.552C428.092 104.179 427.66 103.667 427.372 103.016C427.084 102.365 426.94 101.629 426.94 100.808C426.94 99.9973 427.09 99.2667 427.388 98.616C427.687 97.9547 428.135 97.432 428.732 97.048C429.33 96.664 430.087 96.472 431.004 96.472C431.548 96.472 432.039 96.5627 432.476 96.744C432.914 96.9147 433.282 97.176 433.58 97.528C433.879 97.8693 434.092 98.296 434.22 98.808H433.052C432.882 98.328 432.604 97.9867 432.22 97.784C431.847 97.5707 431.415 97.464 430.924 97.464C430.252 97.464 429.708 97.624 429.292 97.944C428.876 98.2533 428.567 98.664 428.364 99.176C428.172 99.6773 428.076 100.221 428.076 100.808C428.076 101.405 428.172 101.955 428.364 102.456C428.567 102.957 428.876 103.357 429.292 103.656C429.719 103.955 430.263 104.104 430.924 104.104C431.404 104.104 431.852 104.003 432.268 103.8C432.684 103.597 432.972 103.251 433.132 102.76H434.316C434.188 103.293 433.948 103.736 433.596 104.088C433.255 104.429 432.844 104.685 432.364 104.856C431.895 105.016 431.399 105.096 430.876 105.096ZM438.104 105V97.56H435.096V96.568H442.216V97.56H439.224V105H438.104ZM443.448 105V96.568H444.6V99.88H446.568C447.037 99.88 447.474 99.9173 447.88 99.992C448.285 100.056 448.637 100.179 448.936 100.36C449.245 100.541 449.485 100.792 449.656 101.112C449.826 101.432 449.912 101.843 449.912 102.344C449.912 102.813 449.832 103.219 449.672 103.56C449.512 103.891 449.282 104.163 448.984 104.376C448.696 104.589 448.354 104.749 447.96 104.856C447.565 104.952 447.133 105 446.664 105H443.448ZM444.6 104.024H445.768C446.141 104.024 446.504 104.013 446.856 103.992C447.208 103.96 447.528 103.896 447.816 103.8C448.114 103.704 448.349 103.544 448.52 103.32C448.69 103.096 448.776 102.787 448.776 102.392C448.776 102.029 448.701 101.747 448.552 101.544C448.402 101.341 448.21 101.192 447.976 101.096C447.741 100.989 447.485 100.925 447.208 100.904C446.93 100.872 446.653 100.856 446.376 100.856H444.6V104.024Z" fill="white" fill-opacity="0.64"/>
<g clip-path="url(#clip1_44_799)">
<path d="M489.901 174.436C489.901 174.436 492.643 176.661 497.14 175.658C501.403 174.711 505.378 173.635 512.056 176.047V190.326C512.056 190.326 505.914 187.398 500.319 188.704C494.725 190.01 491.562 189.509 489.901 187.848" fill="#E21B1B"/>
<path d="M490.088 173.492H489.026V205H490.088V173.492Z" fill="#999999"/>
<path d="M489.557 174.225C490.448 174.225 491.17 173.503 491.17 172.613C491.17 171.722 490.448 171 489.557 171C488.666 171 487.944 171.722 487.944 172.613C487.944 173.503 488.666 174.225 489.557 174.225Z" fill="#666666"/>
</g>
<path d="M414.424 228V216.688H422.024V217.728H415.576V221.456H418.36C418.893 221.456 419.405 221.499 419.896 221.584C420.397 221.669 420.845 221.824 421.24 222.048C421.635 222.261 421.944 222.571 422.168 222.976C422.403 223.381 422.52 223.915 422.52 224.576C422.52 225.216 422.413 225.76 422.2 226.208C421.987 226.645 421.688 226.997 421.304 227.264C420.92 227.52 420.467 227.707 419.944 227.824C419.432 227.941 418.877 228 418.28 228H414.424ZM415.576 226.96H418.104C418.509 226.96 418.909 226.928 419.304 226.864C419.699 226.8 420.045 226.693 420.344 226.544C420.653 226.384 420.899 226.149 421.08 225.84C421.261 225.531 421.352 225.136 421.352 224.656C421.352 224.155 421.261 223.76 421.08 223.472C420.899 223.184 420.653 222.971 420.344 222.832C420.045 222.693 419.704 222.608 419.32 222.576C418.947 222.533 418.563 222.512 418.168 222.512H415.576V226.96ZM428.174 228.096C427.288 228.096 426.552 227.915 425.966 227.552C425.379 227.179 424.942 226.667 424.654 226.016C424.366 225.365 424.222 224.624 424.222 223.792C424.222 222.96 424.371 222.224 424.67 221.584C424.968 220.933 425.411 220.421 425.998 220.048C426.584 219.664 427.304 219.472 428.158 219.472C428.776 219.472 429.315 219.589 429.774 219.824C430.243 220.048 430.632 220.357 430.942 220.752C431.251 221.147 431.475 221.595 431.614 222.096C431.763 222.597 431.838 223.115 431.838 223.648C431.838 223.744 431.838 223.835 431.838 223.92C431.838 224.005 431.832 224.091 431.822 224.176H425.358C425.4 224.741 425.528 225.248 425.742 225.696C425.955 226.133 426.264 226.48 426.67 226.736C427.086 226.981 427.603 227.104 428.222 227.104C428.51 227.104 428.803 227.072 429.102 227.008C429.4 226.933 429.672 226.811 429.918 226.64C430.163 226.459 430.344 226.224 430.462 225.936H431.646C431.496 226.437 431.246 226.848 430.894 227.168C430.542 227.488 430.126 227.723 429.646 227.872C429.166 228.021 428.675 228.096 428.174 228.096ZM425.39 223.2H430.702C430.691 222.677 430.579 222.213 430.366 221.808C430.152 221.392 429.859 221.067 429.486 220.832C429.112 220.587 428.654 220.464 428.11 220.464C427.544 220.464 427.064 220.592 426.67 220.848C426.275 221.104 425.971 221.44 425.758 221.856C425.555 222.272 425.432 222.72 425.39 223.2ZM432.899 228.032V227.024C433.112 227.013 433.299 226.965 433.459 226.88C433.629 226.795 433.773 226.677 433.891 226.528C434.083 226.293 434.227 225.968 434.323 225.552C434.419 225.125 434.483 224.667 434.515 224.176C434.557 223.675 434.584 223.168 434.595 222.656C434.616 222.133 434.632 221.616 434.643 221.104C434.664 220.581 434.68 220.069 434.691 219.568H440.467V228H439.331V220.544H435.795C435.784 220.949 435.768 221.355 435.747 221.76C435.736 222.155 435.72 222.549 435.699 222.944C435.688 223.339 435.672 223.739 435.651 224.144C435.629 224.613 435.576 225.12 435.491 225.664C435.405 226.197 435.229 226.672 434.963 227.088C434.749 227.429 434.488 227.669 434.179 227.808C433.869 227.947 433.443 228.021 432.899 228.032ZM442.682 228V219.568H448.426V220.56H443.818V228H442.682ZM453.456 228.096C452.571 228.096 451.829 227.915 451.232 227.552C450.635 227.179 450.187 226.667 449.888 226.016C449.6 225.365 449.456 224.624 449.456 223.792C449.456 222.949 449.6 222.208 449.888 221.568C450.187 220.917 450.635 220.405 451.232 220.032C451.829 219.659 452.576 219.472 453.472 219.472C454.357 219.472 455.093 219.659 455.68 220.032C456.277 220.405 456.72 220.917 457.008 221.568C457.307 222.208 457.456 222.949 457.456 223.792C457.456 224.624 457.307 225.365 457.008 226.016C456.709 226.667 456.261 227.179 455.664 227.552C455.077 227.915 454.341 228.096 453.456 228.096ZM453.456 227.104C454.117 227.104 454.661 226.96 455.088 226.672C455.515 226.373 455.829 225.973 456.032 225.472C456.235 224.971 456.336 224.411 456.336 223.792C456.336 223.173 456.235 222.613 456.032 222.112C455.829 221.611 455.515 221.211 455.088 220.912C454.661 220.613 454.117 220.464 453.456 220.464C452.795 220.464 452.251 220.613 451.824 220.912C451.397 221.211 451.083 221.611 450.88 222.112C450.688 222.613 450.592 223.173 450.592 223.792C450.592 224.411 450.688 224.971 450.88 225.472C451.083 225.973 451.397 226.373 451.824 226.672C452.251 226.96 452.795 227.104 453.456 227.104ZM459.338 231.12V219.568H460.426L460.474 220.992C460.805 220.469 461.221 220.085 461.722 219.84C462.234 219.595 462.805 219.472 463.434 219.472C464.288 219.472 464.986 219.664 465.53 220.048C466.074 220.432 466.48 220.955 466.746 221.616C467.013 222.267 467.146 222.997 467.146 223.808C467.146 224.64 467.008 225.381 466.73 226.032C466.464 226.683 466.048 227.189 465.482 227.552C464.928 227.915 464.224 228.096 463.37 228.096C462.976 228.096 462.597 228.053 462.234 227.968C461.872 227.883 461.541 227.744 461.242 227.552C460.944 227.349 460.688 227.099 460.474 226.8V231.12H459.338ZM463.322 227.104C463.984 227.104 464.506 226.955 464.89 226.656C465.285 226.347 465.568 225.941 465.738 225.44C465.92 224.939 466.01 224.389 466.01 223.792C466.01 223.184 465.92 222.629 465.738 222.128C465.557 221.627 465.264 221.227 464.858 220.928C464.453 220.619 463.92 220.464 463.258 220.464C462.65 220.464 462.133 220.619 461.706 220.928C461.29 221.237 460.976 221.648 460.762 222.16C460.549 222.672 460.442 223.221 460.442 223.808C460.442 224.437 460.544 225.003 460.746 225.504C460.96 225.995 461.28 226.384 461.706 226.672C462.144 226.96 462.682 227.104 463.322 227.104ZM472.659 228.096C471.774 228.096 471.032 227.915 470.435 227.552C469.838 227.179 469.39 226.667 469.091 226.016C468.803 225.365 468.659 224.624 468.659 223.792C468.659 222.949 468.803 222.208 469.091 221.568C469.39 220.917 469.838 220.405 470.435 220.032C471.032 219.659 471.779 219.472 472.675 219.472C473.56 219.472 474.296 219.659 474.883 220.032C475.48 220.405 475.923 220.917 476.211 221.568C476.51 222.208 476.659 222.949 476.659 223.792C476.659 224.624 476.51 225.365 476.211 226.016C475.912 226.667 475.464 227.179 474.867 227.552C474.28 227.915 473.544 228.096 472.659 228.096ZM472.659 227.104C473.32 227.104 473.864 226.96 474.291 226.672C474.718 226.373 475.032 225.973 475.235 225.472C475.438 224.971 475.539 224.411 475.539 223.792C475.539 223.173 475.438 222.613 475.235 222.112C475.032 221.611 474.718 221.211 474.291 220.912C473.864 220.613 473.32 220.464 472.659 220.464C471.998 220.464 471.454 220.613 471.027 220.912C470.6 221.211 470.286 221.611 470.083 222.112C469.891 222.613 469.795 223.173 469.795 223.792C469.795 224.411 469.891 224.971 470.083 225.472C470.286 225.973 470.6 226.373 471.027 226.672C471.454 226.96 471.998 227.104 472.659 227.104ZM477.618 230.672V227.024C477.895 227.013 478.125 226.933 478.306 226.784C478.487 226.624 478.631 226.427 478.738 226.192C478.855 225.947 478.946 225.68 479.01 225.392C479.085 225.093 479.143 224.8 479.186 224.512C479.261 224.011 479.309 223.509 479.33 223.008C479.351 222.496 479.362 222.091 479.362 221.792C479.373 221.419 479.378 221.051 479.378 220.688C479.378 220.315 479.378 219.941 479.378 219.568H485.282V227.024H486.418V230.672H485.314V228H478.722V230.672H477.618ZM479.49 227.024H484.146V220.544H480.466C480.455 220.992 480.445 221.477 480.434 222C480.423 222.523 480.407 223.019 480.386 223.488C480.375 223.851 480.349 224.245 480.306 224.672C480.263 225.099 480.183 225.515 480.066 225.92C479.949 226.325 479.757 226.693 479.49 227.024ZM491.501 228.096C490.616 228.096 489.88 227.915 489.293 227.552C488.717 227.179 488.285 226.667 487.997 226.016C487.709 225.365 487.565 224.629 487.565 223.808C487.565 222.997 487.715 222.267 488.013 221.616C488.312 220.955 488.76 220.432 489.357 220.048C489.955 219.664 490.712 219.472 491.629 219.472C492.173 219.472 492.664 219.563 493.101 219.744C493.539 219.915 493.907 220.176 494.205 220.528C494.504 220.869 494.717 221.296 494.845 221.808H493.677C493.507 221.328 493.229 220.987 492.845 220.784C492.472 220.571 492.04 220.464 491.549 220.464C490.877 220.464 490.333 220.624 489.917 220.944C489.501 221.253 489.192 221.664 488.989 222.176C488.797 222.677 488.701 223.221 488.701 223.808C488.701 224.405 488.797 224.955 488.989 225.456C489.192 225.957 489.501 226.357 489.917 226.656C490.344 226.955 490.888 227.104 491.549 227.104C492.029 227.104 492.477 227.003 492.893 226.8C493.309 226.597 493.597 226.251 493.757 225.76H494.941C494.813 226.293 494.573 226.736 494.221 227.088C493.88 227.429 493.469 227.685 492.989 227.856C492.52 228.016 492.024 228.096 491.501 228.096ZM496.713 228V219.568H497.849V223.296H499.561L502.121 219.568H503.401L500.585 223.6L503.657 228H502.345L499.705 224.272H497.849V228H496.713ZM507.401 228.096C507.059 228.096 506.713 228.053 506.361 227.968C506.009 227.872 505.689 227.728 505.401 227.536C505.113 227.333 504.878 227.077 504.697 226.768C504.526 226.448 504.441 226.075 504.441 225.648C504.441 225.168 504.526 224.768 504.697 224.448C504.878 224.128 505.118 223.872 505.417 223.68C505.715 223.488 506.057 223.355 506.441 223.28C506.825 223.195 507.23 223.152 507.657 223.152H510.329C510.329 222.629 510.254 222.171 510.105 221.776C509.966 221.371 509.731 221.051 509.401 220.816C509.081 220.581 508.649 220.464 508.105 220.464C507.817 220.464 507.539 220.496 507.273 220.56C507.006 220.624 506.766 220.731 506.553 220.88C506.35 221.019 506.19 221.211 506.073 221.456H504.857C504.953 221.083 505.113 220.768 505.337 220.512C505.571 220.256 505.843 220.053 506.153 219.904C506.462 219.744 506.787 219.632 507.129 219.568C507.47 219.504 507.795 219.472 508.105 219.472C508.905 219.472 509.55 219.637 510.041 219.968C510.531 220.288 510.883 220.747 511.097 221.344C511.321 221.931 511.433 222.624 511.433 223.424V228H510.457L510.409 226.848C510.174 227.168 509.891 227.419 509.561 227.6C509.241 227.781 508.894 227.909 508.521 227.984C508.158 228.059 507.785 228.096 507.401 228.096ZM507.513 227.104C508.035 227.104 508.51 227.019 508.937 226.848C509.363 226.667 509.699 226.4 509.945 226.048C510.201 225.696 510.329 225.259 510.329 224.736V224.096H508.441C508.11 224.096 507.774 224.107 507.433 224.128C507.091 224.139 506.782 224.192 506.505 224.288C506.227 224.373 506.003 224.517 505.833 224.72C505.662 224.912 505.577 225.189 505.577 225.552C505.577 225.915 505.667 226.213 505.849 226.448C506.03 226.672 506.27 226.837 506.569 226.944C506.867 227.051 507.182 227.104 507.513 227.104ZM513.092 228L515.348 224.624C514.708 224.475 514.191 224.208 513.796 223.824C513.412 223.429 513.22 222.891 513.22 222.208C513.22 221.696 513.3 221.269 513.46 220.928C513.62 220.587 513.844 220.32 514.132 220.128C514.42 219.925 514.761 219.781 515.156 219.696C515.561 219.611 516.009 219.568 516.5 219.568H519.876V228H518.74V224.784H516.548L514.42 228H513.092ZM517.332 223.808H518.74V220.56H516.724C516.393 220.56 516.084 220.576 515.796 220.608C515.519 220.64 515.273 220.709 515.06 220.816C514.847 220.923 514.676 221.083 514.548 221.296C514.431 221.499 514.372 221.776 514.372 222.128C514.372 222.523 514.457 222.832 514.628 223.056C514.809 223.28 515.044 223.445 515.332 223.552C515.62 223.659 515.94 223.728 516.292 223.76C516.644 223.792 516.991 223.808 517.332 223.808ZM530.081 228.096C529.196 228.096 528.454 227.915 527.857 227.552C527.26 227.179 526.812 226.667 526.513 226.016C526.225 225.365 526.081 224.624 526.081 223.792C526.081 222.949 526.225 222.208 526.513 221.568C526.812 220.917 527.26 220.405 527.857 220.032C528.454 219.659 529.201 219.472 530.097 219.472C530.982 219.472 531.718 219.659 532.305 220.032C532.902 220.405 533.345 220.917 533.633 221.568C533.932 222.208 534.081 222.949 534.081 223.792C534.081 224.624 533.932 225.365 533.633 226.016C533.334 226.667 532.886 227.179 532.289 227.552C531.702 227.915 530.966 228.096 530.081 228.096ZM530.081 227.104C530.742 227.104 531.286 226.96 531.713 226.672C532.14 226.373 532.454 225.973 532.657 225.472C532.86 224.971 532.961 224.411 532.961 223.792C532.961 223.173 532.86 222.613 532.657 222.112C532.454 221.611 532.14 221.211 531.713 220.912C531.286 220.613 530.742 220.464 530.081 220.464C529.42 220.464 528.876 220.613 528.449 220.912C528.022 221.211 527.708 221.611 527.505 222.112C527.313 222.613 527.217 223.173 527.217 223.792C527.217 224.411 527.313 224.971 527.505 225.472C527.708 225.973 528.022 226.373 528.449 226.672C528.876 226.96 529.42 227.104 530.081 227.104ZM539.64 228.096C539.053 228.096 538.541 228.011 538.104 227.84C537.677 227.659 537.32 227.408 537.032 227.088C536.744 226.768 536.509 226.395 536.328 225.968C536.157 225.541 536.029 225.088 535.944 224.608C535.869 224.117 535.832 223.611 535.832 223.088C535.832 222.331 535.853 221.616 535.896 220.944C535.949 220.272 536.077 219.669 536.28 219.136C536.482 218.592 536.808 218.139 537.256 217.776C537.704 217.413 538.322 217.163 539.112 217.024C539.57 216.939 540.024 216.869 540.472 216.816C540.92 216.763 541.362 216.709 541.8 216.656C541.928 216.635 542.061 216.613 542.2 216.592C542.338 216.571 542.482 216.549 542.632 216.528C542.792 216.496 542.941 216.469 543.08 216.448V217.488C542.973 217.531 542.834 217.568 542.664 217.6C542.493 217.621 542.312 217.648 542.12 217.68C541.928 217.701 541.736 217.723 541.544 217.744C541.362 217.755 541.192 217.771 541.032 217.792C540.882 217.803 540.76 217.813 540.664 217.824C540.28 217.867 539.885 217.92 539.48 217.984C539.085 218.037 538.712 218.144 538.36 218.304C538.018 218.453 537.73 218.715 537.496 219.088C537.336 219.344 537.213 219.637 537.128 219.968C537.042 220.299 536.984 220.629 536.952 220.96C536.92 221.28 536.898 221.568 536.888 221.824C537.112 221.419 537.394 221.104 537.736 220.88C538.077 220.645 538.44 220.48 538.824 220.384C539.208 220.277 539.57 220.224 539.912 220.224C540.669 220.224 541.314 220.384 541.848 220.704C542.381 221.024 542.781 221.472 543.048 222.048C543.325 222.624 543.464 223.291 543.464 224.048C543.464 224.816 543.314 225.509 543.016 226.128C542.717 226.736 542.28 227.216 541.704 227.568C541.138 227.92 540.45 228.096 539.64 228.096ZM539.672 227.104C540.248 227.104 540.733 226.971 541.128 226.704C541.522 226.427 541.821 226.059 542.024 225.6C542.237 225.141 542.344 224.64 542.344 224.096C542.344 223.552 542.242 223.067 542.04 222.64C541.837 222.203 541.538 221.861 541.144 221.616C540.76 221.36 540.285 221.232 539.72 221.232C539.176 221.232 538.701 221.365 538.296 221.632C537.901 221.899 537.592 222.251 537.368 222.688C537.144 223.125 537.032 223.605 537.032 224.128C537.032 224.661 537.128 225.157 537.32 225.616C537.522 226.064 537.816 226.427 538.2 226.704C538.594 226.971 539.085 227.104 539.672 227.104ZM544.492 228.032V227.024C544.706 227.013 544.892 226.965 545.052 226.88C545.223 226.795 545.367 226.677 545.484 226.528C545.676 226.293 545.82 225.968 545.916 225.552C546.012 225.125 546.076 224.667 546.108 224.176C546.151 223.675 546.178 223.168 546.188 222.656C546.21 222.133 546.226 221.616 546.236 221.104C546.258 220.581 546.274 220.069 546.284 219.568H552.06V228H550.924V220.544H547.388C547.378 220.949 547.362 221.355 547.34 221.76C547.33 222.155 547.314 222.549 547.292 222.944C547.282 223.339 547.266 223.739 547.244 224.144C547.223 224.613 547.17 225.12 547.084 225.664C546.999 226.197 546.823 226.672 546.556 227.088C546.343 227.429 546.082 227.669 545.772 227.808C545.463 227.947 545.036 228.021 544.492 228.032ZM556.932 228.096C556.591 228.096 556.244 228.053 555.892 227.968C555.54 227.872 555.22 227.728 554.932 227.536C554.644 227.333 554.409 227.077 554.228 226.768C554.057 226.448 553.972 226.075 553.972 225.648C553.972 225.168 554.057 224.768 554.228 224.448C554.409 224.128 554.649 223.872 554.948 223.68C555.247 223.488 555.588 223.355 555.972 223.28C556.356 223.195 556.761 223.152 557.188 223.152H559.86C559.86 222.629 559.785 222.171 559.636 221.776C559.497 221.371 559.263 221.051 558.932 220.816C558.612 220.581 558.18 220.464 557.636 220.464C557.348 220.464 557.071 220.496 556.804 220.56C556.537 220.624 556.297 220.731 556.084 220.88C555.881 221.019 555.721 221.211 555.604 221.456H554.388C554.484 221.083 554.644 220.768 554.868 220.512C555.103 220.256 555.375 220.053 555.684 219.904C555.993 219.744 556.319 219.632 556.66 219.568C557.001 219.504 557.327 219.472 557.636 219.472C558.436 219.472 559.081 219.637 559.572 219.968C560.063 220.288 560.415 220.747 560.628 221.344C560.852 221.931 560.964 222.624 560.964 223.424V228H559.988L559.94 226.848C559.705 227.168 559.423 227.419 559.092 227.6C558.772 227.781 558.425 227.909 558.052 227.984C557.689 228.059 557.316 228.096 556.932 228.096ZM557.044 227.104C557.567 227.104 558.041 227.019 558.468 226.848C558.895 226.667 559.231 226.4 559.476 226.048C559.732 225.696 559.86 225.259 559.86 224.736V224.096H557.972C557.641 224.096 557.305 224.107 556.964 224.128C556.623 224.139 556.313 224.192 556.036 224.288C555.759 224.373 555.535 224.517 555.364 224.72C555.193 224.912 555.108 225.189 555.108 225.552C555.108 225.915 555.199 226.213 555.38 226.448C555.561 226.672 555.801 226.837 556.1 226.944C556.399 227.051 556.713 227.104 557.044 227.104ZM566.751 228.096C565.866 228.096 565.13 227.915 564.543 227.552C563.967 227.179 563.535 226.667 563.247 226.016C562.959 225.365 562.815 224.629 562.815 223.808C562.815 222.997 562.965 222.267 563.263 221.616C563.562 220.955 564.01 220.432 564.607 220.048C565.205 219.664 565.962 219.472 566.879 219.472C567.423 219.472 567.914 219.563 568.351 219.744C568.789 219.915 569.157 220.176 569.455 220.528C569.754 220.869 569.967 221.296 570.095 221.808H568.927C568.757 221.328 568.479 220.987 568.095 220.784C567.722 220.571 567.29 220.464 566.799 220.464C566.127 220.464 565.583 220.624 565.167 220.944C564.751 221.253 564.442 221.664 564.239 222.176C564.047 222.677 563.951 223.221 563.951 223.808C563.951 224.405 564.047 224.955 564.239 225.456C564.442 225.957 564.751 226.357 565.167 226.656C565.594 226.955 566.138 227.104 566.799 227.104C567.279 227.104 567.727 227.003 568.143 226.8C568.559 226.597 568.847 226.251 569.007 225.76H570.191C570.063 226.293 569.823 226.736 569.471 227.088C569.13 227.429 568.719 227.685 568.239 227.856C567.77 228.016 567.274 228.096 566.751 228.096ZM573.979 228V220.56H570.971V219.568H578.091V220.56H575.099V228H573.979ZM579.323 228V219.568H580.475V222.88H582.443C582.912 222.88 583.349 222.917 583.755 222.992C584.16 223.056 584.512 223.179 584.811 223.36C585.12 223.541 585.36 223.792 585.531 224.112C585.701 224.432 585.787 224.843 585.787 225.344C585.787 225.813 585.707 226.219 585.547 226.56C585.387 226.891 585.157 227.163 584.859 227.376C584.571 227.589 584.229 227.749 583.835 227.856C583.44 227.952 583.008 228 582.539 228H579.323ZM580.475 227.024H581.643C582.016 227.024 582.379 227.013 582.731 226.992C583.083 226.96 583.403 226.896 583.691 226.8C583.989 226.704 584.224 226.544 584.395 226.32C584.565 226.096 584.651 225.787 584.651 225.392C584.651 225.029 584.576 224.747 584.427 224.544C584.277 224.341 584.085 224.192 583.851 224.096C583.616 223.989 583.36 223.925 583.083 223.904C582.805 223.872 582.528 223.856 582.251 223.856H580.475V227.024Z" fill="white" fill-opacity="0.64"/>
<g clip-path="url(#clip2_44_799)">
<path d="M613.901 390.436C613.901 390.436 616.643 392.661 621.14 391.658C625.403 390.711 629.378 389.635 636.056 392.047V406.326C636.056 406.326 629.914 403.398 624.319 404.704C618.725 406.01 615.562 405.509 613.901 403.848" fill="#E21B1B"/>
<path d="M614.088 389.492H613.026V421H614.088V389.492Z" fill="#999999"/>
<path d="M613.557 390.225C614.448 390.225 615.17 389.503 615.17 388.613C615.17 387.722 614.448 387 613.557 387C612.666 387 611.944 387.722 611.944 388.613C611.944 389.503 612.666 390.225 613.557 390.225Z" fill="#666666"/>
</g>
<path d="M607.724 444.112V442.96C607.969 442.949 608.188 442.896 608.38 442.8C608.572 442.693 608.737 442.555 608.876 442.384C609.025 442.203 609.137 442 609.212 441.776C609.319 441.456 609.399 441.104 609.452 440.72C609.505 440.336 609.543 439.947 609.564 439.552C609.585 439.147 609.596 438.768 609.596 438.416L609.692 432.688H617.132V444H615.98V433.728H610.86L610.764 437.808C610.753 438.427 610.737 439.051 610.716 439.68C610.695 440.299 610.636 440.885 610.54 441.44C610.455 441.984 610.289 442.443 610.044 442.816C609.831 443.211 609.537 443.52 609.164 443.744C608.791 443.957 608.311 444.08 607.724 444.112ZM619.987 444V432.688H621.139V437.92H627.602V432.688H628.755V444H627.602V438.976H621.139V444H619.987ZM631.596 444V432.688H635.468C636.289 432.688 636.993 432.821 637.58 433.088C638.167 433.355 638.615 433.765 638.924 434.32C639.244 434.864 639.404 435.557 639.404 436.4C639.404 437.232 639.217 437.931 638.844 438.496C638.481 439.061 637.98 439.483 637.34 439.76C636.711 440.037 635.985 440.176 635.164 440.176H632.748V444H631.596ZM632.748 439.136H635.116C636.033 439.136 636.78 438.917 637.356 438.48C637.932 438.043 638.22 437.328 638.22 436.336C638.22 435.44 637.975 434.784 637.484 434.368C637.004 433.941 636.305 433.728 635.388 433.728H632.748V439.136Z" fill="white" fill-opacity="0.64"/>
<g clip-path="url(#clip3_44_799)">
<path d="M518.901 551.436C518.901 551.436 521.643 553.661 526.14 552.658C530.403 551.711 534.378 550.635 541.056 553.047V567.326C541.056 567.326 534.914 564.398 529.319 565.704C523.725 567.01 520.562 566.509 518.901 564.848" fill="#E21B1B"/>
<path d="M519.088 550.492H518.026V582H519.088V550.492Z" fill="#999999"/>
<path d="M518.557 551.225C519.448 551.225 520.17 550.503 520.17 549.613C520.17 548.722 519.448 548 518.557 548C517.666 548 516.944 548.722 516.944 549.613C516.944 550.503 517.666 551.225 518.557 551.225Z" fill="#666666"/>
</g>
<path d="M512.884 608.184V603.96C513.289 603.928 513.599 603.811 513.812 603.608C514.036 603.405 514.207 603.16 514.324 602.872C514.431 602.605 514.516 602.285 514.58 601.912C514.644 601.539 514.692 601.144 514.724 600.728C514.767 600.312 514.799 599.901 514.82 599.496C514.873 598.493 514.911 597.512 514.932 596.552C514.964 595.592 514.985 594.637 514.996 593.688H522.116V603.96H523.508V608.184H522.356V605H514.052V608.184H512.884ZM515.06 603.96H520.964V594.728H516.132L515.972 599.56C515.961 599.816 515.945 600.131 515.924 600.504C515.913 600.867 515.876 601.251 515.812 601.656C515.759 602.051 515.668 602.451 515.54 602.856C515.423 603.251 515.263 603.619 515.06 603.96ZM525.315 605V593.688H526.467V598.92H532.931V593.688H534.083V605H532.931V599.976H526.467V605H525.315ZM536.924 605V593.688H540.796C541.617 593.688 542.321 593.821 542.908 594.088C543.495 594.355 543.943 594.765 544.252 595.32C544.572 595.864 544.732 596.557 544.732 597.4C544.732 598.232 544.545 598.931 544.172 599.496C543.809 600.061 543.308 600.483 542.668 600.76C542.039 601.037 541.313 601.176 540.492 601.176H538.076V605H536.924ZM538.076 600.136H540.444C541.361 600.136 542.108 599.917 542.684 599.48C543.26 599.043 543.548 598.328 543.548 597.336C543.548 596.44 543.303 595.784 542.812 595.368C542.332 594.941 541.633 594.728 540.716 594.728H538.076V600.136Z" fill="white" fill-opacity="0.64"/>
<g clip-path="url(#clip4_44_799)">
<path d="M365.401 608.436C365.401 608.436 368.143 610.661 372.64 609.658C376.903 608.711 380.878 607.635 387.556 610.047V624.326C387.556 624.326 381.414 621.398 375.819 622.704C370.225 624.01 367.062 623.509 365.401 621.848" fill="#E21B1B"/>
<path d="M365.588 607.492H364.526V639H365.588V607.492Z" fill="#999999"/>
<path d="M365.057 608.225C365.948 608.225 366.67 607.503 366.67 606.613C366.67 605.722 365.948 605 365.057 605C364.166 605 363.444 605.722 363.444 606.613C363.444 607.503 364.166 608.225 365.057 608.225Z" fill="#666666"/>
</g>
<path d="M329.149 662.128C328.637 662.128 328.136 662.08 327.645 661.984C327.154 661.877 326.701 661.712 326.285 661.488C325.88 661.264 325.549 660.971 325.293 660.608C325.037 660.245 324.893 659.803 324.861 659.28H326.029C326.072 659.621 326.189 659.909 326.381 660.144C326.573 660.368 326.818 660.555 327.117 660.704C327.416 660.843 327.736 660.944 328.077 661.008C328.429 661.061 328.765 661.088 329.085 661.088C329.405 661.088 329.741 661.061 330.093 661.008C330.445 660.955 330.776 660.853 331.085 660.704C331.394 660.544 331.645 660.32 331.837 660.032C332.029 659.733 332.125 659.349 332.125 658.88C332.125 658.432 332.045 658.069 331.885 657.792C331.736 657.515 331.517 657.301 331.229 657.152C330.952 656.992 330.626 656.891 330.253 656.848C329.89 656.795 329.501 656.768 329.085 656.768H327.661V655.728H328.541C328.925 655.728 329.298 655.691 329.661 655.616C330.034 655.541 330.37 655.424 330.669 655.264C330.978 655.093 331.224 654.875 331.405 654.608C331.586 654.341 331.677 654.016 331.677 653.632C331.677 653.088 331.544 652.672 331.277 652.384C331.021 652.096 330.696 651.893 330.301 651.776C329.906 651.659 329.496 651.6 329.069 651.6C328.653 651.6 328.237 651.659 327.821 651.776C327.416 651.893 327.074 652.08 326.797 652.336C326.52 652.592 326.365 652.928 326.333 653.344H325.165C325.176 652.885 325.277 652.496 325.469 652.176C325.661 651.856 325.906 651.595 326.205 651.392C326.514 651.179 326.845 651.013 327.197 650.896C327.549 650.768 327.896 650.683 328.237 650.64C328.589 650.587 328.898 650.56 329.165 650.56C329.634 650.56 330.082 650.613 330.509 650.72C330.936 650.816 331.32 650.976 331.661 651.2C332.013 651.424 332.29 651.723 332.493 652.096C332.696 652.459 332.797 652.907 332.797 653.44C332.797 653.749 332.744 654.064 332.637 654.384C332.541 654.704 332.36 655.008 332.093 655.296C331.826 655.584 331.437 655.835 330.925 656.048C331.693 656.165 332.28 656.491 332.685 657.024C333.101 657.547 333.309 658.165 333.309 658.88C333.298 659.467 333.17 659.968 332.925 660.384C332.69 660.8 332.376 661.136 331.981 661.392C331.586 661.648 331.144 661.835 330.653 661.952C330.173 662.069 329.672 662.128 329.149 662.128ZM337.885 662.096C337.544 662.096 337.197 662.053 336.845 661.968C336.493 661.872 336.173 661.728 335.885 661.536C335.597 661.333 335.362 661.077 335.181 660.768C335.01 660.448 334.925 660.075 334.925 659.648C334.925 659.168 335.01 658.768 335.181 658.448C335.362 658.128 335.602 657.872 335.901 657.68C336.2 657.488 336.541 657.355 336.925 657.28C337.309 657.195 337.714 657.152 338.141 657.152H340.813C340.813 656.629 340.738 656.171 340.589 655.776C340.45 655.371 340.216 655.051 339.885 654.816C339.565 654.581 339.133 654.464 338.589 654.464C338.301 654.464 338.024 654.496 337.757 654.56C337.49 654.624 337.25 654.731 337.037 654.88C336.834 655.019 336.674 655.211 336.557 655.456H335.341C335.437 655.083 335.597 654.768 335.821 654.512C336.056 654.256 336.328 654.053 336.637 653.904C336.946 653.744 337.272 653.632 337.613 653.568C337.954 653.504 338.28 653.472 338.589 653.472C339.389 653.472 340.034 653.637 340.525 653.968C341.016 654.288 341.368 654.747 341.581 655.344C341.805 655.931 341.917 656.624 341.917 657.424V662H340.941L340.893 660.848C340.658 661.168 340.376 661.419 340.045 661.6C339.725 661.781 339.378 661.909 339.005 661.984C338.642 662.059 338.269 662.096 337.885 662.096ZM337.997 661.104C338.52 661.104 338.994 661.019 339.421 660.848C339.848 660.667 340.184 660.4 340.429 660.048C340.685 659.696 340.813 659.259 340.813 658.736V658.096H338.925C338.594 658.096 338.258 658.107 337.917 658.128C337.576 658.139 337.266 658.192 336.989 658.288C336.712 658.373 336.488 658.517 336.317 658.72C336.146 658.912 336.061 659.189 336.061 659.552C336.061 659.915 336.152 660.213 336.333 660.448C336.514 660.672 336.754 660.837 337.053 660.944C337.352 661.051 337.666 661.104 337.997 661.104ZM344.088 662V653.568H351.048V662H349.912V654.56H345.224V662H344.088ZM356.94 662.096C356.055 662.096 355.314 661.915 354.716 661.552C354.119 661.179 353.671 660.667 353.372 660.016C353.084 659.365 352.94 658.624 352.94 657.792C352.94 656.949 353.084 656.208 353.372 655.568C353.671 654.917 354.119 654.405 354.716 654.032C355.314 653.659 356.06 653.472 356.956 653.472C357.842 653.472 358.578 653.659 359.164 654.032C359.762 654.405 360.204 654.917 360.492 655.568C360.791 656.208 360.94 656.949 360.94 657.792C360.94 658.624 360.791 659.365 360.492 660.016C360.194 660.667 359.746 661.179 359.148 661.552C358.562 661.915 357.826 662.096 356.94 662.096ZM356.94 661.104C357.602 661.104 358.146 660.96 358.572 660.672C358.999 660.373 359.314 659.973 359.516 659.472C359.719 658.971 359.82 658.411 359.82 657.792C359.82 657.173 359.719 656.613 359.516 656.112C359.314 655.611 358.999 655.211 358.572 654.912C358.146 654.613 357.602 654.464 356.94 654.464C356.279 654.464 355.735 654.613 355.308 654.912C354.882 655.211 354.567 655.611 354.364 656.112C354.172 656.613 354.076 657.173 354.076 657.792C354.076 658.411 354.172 658.971 354.364 659.472C354.567 659.973 354.882 660.373 355.308 660.672C355.735 660.96 356.279 661.104 356.94 661.104ZM362.823 665.12V653.568H363.911L363.959 654.992C364.289 654.469 364.705 654.085 365.207 653.84C365.719 653.595 366.289 653.472 366.919 653.472C367.772 653.472 368.471 653.664 369.015 654.048C369.559 654.432 369.964 654.955 370.231 655.616C370.497 656.267 370.631 656.997 370.631 657.808C370.631 658.64 370.492 659.381 370.215 660.032C369.948 660.683 369.532 661.189 368.967 661.552C368.412 661.915 367.708 662.096 366.855 662.096C366.46 662.096 366.081 662.053 365.719 661.968C365.356 661.883 365.025 661.744 364.727 661.552C364.428 661.349 364.172 661.099 363.959 660.8V665.12H362.823ZM366.807 661.104C367.468 661.104 367.991 660.955 368.375 660.656C368.769 660.347 369.052 659.941 369.223 659.44C369.404 658.939 369.495 658.389 369.495 657.792C369.495 657.184 369.404 656.629 369.223 656.128C369.041 655.627 368.748 655.227 368.343 654.928C367.937 654.619 367.404 654.464 366.743 654.464C366.135 654.464 365.617 654.619 365.191 654.928C364.775 655.237 364.46 655.648 364.247 656.16C364.033 656.672 363.927 657.221 363.927 657.808C363.927 658.437 364.028 659.003 364.231 659.504C364.444 659.995 364.764 660.384 365.191 660.672C365.628 660.96 366.167 661.104 366.807 661.104ZM376.143 662.096C375.258 662.096 374.517 661.915 373.919 661.552C373.322 661.179 372.874 660.667 372.575 660.016C372.287 659.365 372.143 658.624 372.143 657.792C372.143 656.949 372.287 656.208 372.575 655.568C372.874 654.917 373.322 654.405 373.919 654.032C374.517 653.659 375.263 653.472 376.159 653.472C377.045 653.472 377.781 653.659 378.367 654.032C378.965 654.405 379.407 654.917 379.695 655.568C379.994 656.208 380.143 656.949 380.143 657.792C380.143 658.624 379.994 659.365 379.695 660.016C379.397 660.667 378.949 661.179 378.351 661.552C377.765 661.915 377.029 662.096 376.143 662.096ZM376.143 661.104C376.805 661.104 377.349 660.96 377.775 660.672C378.202 660.373 378.517 659.973 378.719 659.472C378.922 658.971 379.023 658.411 379.023 657.792C379.023 657.173 378.922 656.613 378.719 656.112C378.517 655.611 378.202 655.211 377.775 654.912C377.349 654.613 376.805 654.464 376.143 654.464C375.482 654.464 374.938 654.613 374.511 654.912C374.085 655.211 373.77 655.611 373.567 656.112C373.375 656.613 373.279 657.173 373.279 657.792C373.279 658.411 373.375 658.971 373.567 659.472C373.77 659.973 374.085 660.373 374.511 660.672C374.938 660.96 375.482 661.104 376.143 661.104ZM381.022 662L383.742 657.584L381.262 653.568H382.494L384.766 657.312H386.238V653.568H387.358V657.312H388.83L391.102 653.568H392.334L389.854 657.584L392.574 662H391.262L388.99 658.256H387.358V662H386.238V658.256H384.606L382.334 662H381.022ZM397.392 662.096C396.507 662.096 395.771 661.915 395.184 661.552C394.608 661.179 394.176 660.667 393.888 660.016C393.6 659.365 393.456 658.629 393.456 657.808C393.456 656.997 393.605 656.267 393.904 655.616C394.203 654.955 394.651 654.432 395.248 654.048C395.845 653.664 396.603 653.472 397.52 653.472C398.064 653.472 398.555 653.563 398.992 653.744C399.429 653.915 399.797 654.176 400.096 654.528C400.395 654.869 400.608 655.296 400.736 655.808H399.568C399.397 655.328 399.12 654.987 398.736 654.784C398.363 654.571 397.931 654.464 397.44 654.464C396.768 654.464 396.224 654.624 395.808 654.944C395.392 655.253 395.083 655.664 394.88 656.176C394.688 656.677 394.592 657.221 394.592 657.808C394.592 658.405 394.688 658.955 394.88 659.456C395.083 659.957 395.392 660.357 395.808 660.656C396.235 660.955 396.779 661.104 397.44 661.104C397.92 661.104 398.368 661.003 398.784 660.8C399.2 660.597 399.488 660.251 399.648 659.76H400.832C400.704 660.293 400.464 660.736 400.112 661.088C399.771 661.429 399.36 661.685 398.88 661.856C398.411 662.016 397.915 662.096 397.392 662.096ZM402.604 662V653.568H403.74V657.296H405.452L408.012 653.568H409.292L406.476 657.6L409.548 662H408.236L405.596 658.272H403.74V662H402.604ZM413.291 662.096C412.95 662.096 412.603 662.053 412.251 661.968C411.899 661.872 411.579 661.728 411.291 661.536C411.003 661.333 410.769 661.077 410.587 660.768C410.417 660.448 410.331 660.075 410.331 659.648C410.331 659.168 410.417 658.768 410.587 658.448C410.769 658.128 411.009 657.872 411.307 657.68C411.606 657.488 411.947 657.355 412.331 657.28C412.715 657.195 413.121 657.152 413.547 657.152H416.219C416.219 656.629 416.145 656.171 415.995 655.776C415.857 655.371 415.622 655.051 415.291 654.816C414.971 654.581 414.539 654.464 413.995 654.464C413.707 654.464 413.43 654.496 413.163 654.56C412.897 654.624 412.657 654.731 412.443 654.88C412.241 655.019 412.081 655.211 411.963 655.456H410.747C410.843 655.083 411.003 654.768 411.227 654.512C411.462 654.256 411.734 654.053 412.043 653.904C412.353 653.744 412.678 653.632 413.019 653.568C413.361 653.504 413.686 653.472 413.995 653.472C414.795 653.472 415.441 653.637 415.931 653.968C416.422 654.288 416.774 654.747 416.987 655.344C417.211 655.931 417.323 656.624 417.323 657.424V662H416.347L416.299 660.848C416.065 661.168 415.782 661.419 415.451 661.6C415.131 661.781 414.785 661.909 414.411 661.984C414.049 662.059 413.675 662.096 413.291 662.096ZM413.403 661.104C413.926 661.104 414.401 661.019 414.827 660.848C415.254 660.667 415.59 660.4 415.835 660.048C416.091 659.696 416.219 659.259 416.219 658.736V658.096H414.331C414.001 658.096 413.665 658.107 413.323 658.128C412.982 658.139 412.673 658.192 412.395 658.288C412.118 658.373 411.894 658.517 411.723 658.72C411.553 658.912 411.467 659.189 411.467 659.552C411.467 659.915 411.558 660.213 411.739 660.448C411.921 660.672 412.161 660.837 412.459 660.944C412.758 661.051 413.073 661.104 413.403 661.104ZM418.983 662L421.239 658.624C420.599 658.475 420.081 658.208 419.687 657.824C419.303 657.429 419.111 656.891 419.111 656.208C419.111 655.696 419.191 655.269 419.351 654.928C419.511 654.587 419.735 654.32 420.023 654.128C420.311 653.925 420.652 653.781 421.047 653.696C421.452 653.611 421.9 653.568 422.391 653.568H425.767V662H424.631V658.784H422.439L420.311 662H418.983ZM423.223 657.808H424.631V654.56H422.615C422.284 654.56 421.975 654.576 421.687 654.608C421.409 654.64 421.164 654.709 420.951 654.816C420.737 654.923 420.567 655.083 420.439 655.296C420.321 655.499 420.263 655.776 420.263 656.128C420.263 656.523 420.348 656.832 420.519 657.056C420.7 657.28 420.935 657.445 421.223 657.552C421.511 657.659 421.831 657.728 422.183 657.76C422.535 657.792 422.881 657.808 423.223 657.808ZM349.675 682.096C348.789 682.096 348.048 681.915 347.451 681.552C346.853 681.179 346.405 680.667 346.107 680.016C345.819 679.365 345.675 678.624 345.675 677.792C345.675 676.949 345.819 676.208 346.107 675.568C346.405 674.917 346.853 674.405 347.451 674.032C348.048 673.659 348.795 673.472 349.691 673.472C350.576 673.472 351.312 673.659 351.899 674.032C352.496 674.405 352.939 674.917 353.227 675.568C353.525 676.208 353.675 676.949 353.675 677.792C353.675 678.624 353.525 679.365 353.227 680.016C352.928 680.667 352.48 681.179 351.883 681.552C351.296 681.915 350.56 682.096 349.675 682.096ZM349.675 681.104C350.336 681.104 350.88 680.96 351.307 680.672C351.733 680.373 352.048 679.973 352.251 679.472C352.453 678.971 352.555 678.411 352.555 677.792C352.555 677.173 352.453 676.613 352.251 676.112C352.048 675.611 351.733 675.211 351.307 674.912C350.88 674.613 350.336 674.464 349.675 674.464C349.013 674.464 348.469 674.613 348.043 674.912C347.616 675.211 347.301 675.611 347.099 676.112C346.907 676.613 346.811 677.173 346.811 677.792C346.811 678.411 346.907 678.971 347.099 679.472C347.301 679.973 347.616 680.373 348.043 680.672C348.469 680.96 349.013 681.104 349.675 681.104ZM359.233 682.096C358.647 682.096 358.135 682.011 357.697 681.84C357.271 681.659 356.913 681.408 356.625 681.088C356.337 680.768 356.103 680.395 355.921 679.968C355.751 679.541 355.623 679.088 355.537 678.608C355.463 678.117 355.425 677.611 355.425 677.088C355.425 676.331 355.447 675.616 355.489 674.944C355.543 674.272 355.671 673.669 355.873 673.136C356.076 672.592 356.401 672.139 356.849 671.776C357.297 671.413 357.916 671.163 358.705 671.024C359.164 670.939 359.617 670.869 360.065 670.816C360.513 670.763 360.956 670.709 361.393 670.656C361.521 670.635 361.655 670.613 361.793 670.592C361.932 670.571 362.076 670.549 362.225 670.528C362.385 670.496 362.535 670.469 362.673 670.448V671.488C362.567 671.531 362.428 671.568 362.257 671.6C362.087 671.621 361.905 671.648 361.713 671.68C361.521 671.701 361.329 671.723 361.137 671.744C360.956 671.755 360.785 671.771 360.625 671.792C360.476 671.803 360.353 671.813 360.257 671.824C359.873 671.867 359.479 671.92 359.073 671.984C358.679 672.037 358.305 672.144 357.953 672.304C357.612 672.453 357.324 672.715 357.089 673.088C356.929 673.344 356.807 673.637 356.721 673.968C356.636 674.299 356.577 674.629 356.545 674.96C356.513 675.28 356.492 675.568 356.481 675.824C356.705 675.419 356.988 675.104 357.329 674.88C357.671 674.645 358.033 674.48 358.417 674.384C358.801 674.277 359.164 674.224 359.505 674.224C360.263 674.224 360.908 674.384 361.441 674.704C361.975 675.024 362.375 675.472 362.641 676.048C362.919 676.624 363.057 677.291 363.057 678.048C363.057 678.816 362.908 679.509 362.609 680.128C362.311 680.736 361.873 681.216 361.297 681.568C360.732 681.92 360.044 682.096 359.233 682.096ZM359.265 681.104C359.841 681.104 360.327 680.971 360.721 680.704C361.116 680.427 361.415 680.059 361.617 679.6C361.831 679.141 361.937 678.64 361.937 678.096C361.937 677.552 361.836 677.067 361.633 676.64C361.431 676.203 361.132 675.861 360.737 675.616C360.353 675.36 359.879 675.232 359.313 675.232C358.769 675.232 358.295 675.365 357.889 675.632C357.495 675.899 357.185 676.251 356.961 676.688C356.737 677.125 356.625 677.605 356.625 678.128C356.625 678.661 356.721 679.157 356.913 679.616C357.116 680.064 357.409 680.427 357.793 680.704C358.188 680.971 358.679 681.104 359.265 681.104ZM364.086 682.032V681.024C364.299 681.013 364.486 680.965 364.646 680.88C364.817 680.795 364.961 680.677 365.078 680.528C365.27 680.293 365.414 679.968 365.51 679.552C365.606 679.125 365.67 678.667 365.702 678.176C365.745 677.675 365.771 677.168 365.782 676.656C365.803 676.133 365.819 675.616 365.83 675.104C365.851 674.581 365.867 674.069 365.878 673.568H371.654V682H370.518V674.544H366.982C366.971 674.949 366.955 675.355 366.934 675.76C366.923 676.155 366.907 676.549 366.886 676.944C366.875 677.339 366.859 677.739 366.838 678.144C366.817 678.613 366.763 679.12 366.678 679.664C366.593 680.197 366.417 680.672 366.15 681.088C365.937 681.429 365.675 681.669 365.366 681.808C365.057 681.947 364.63 682.021 364.086 682.032ZM376.526 682.096C376.184 682.096 375.838 682.053 375.486 681.968C375.134 681.872 374.814 681.728 374.526 681.536C374.238 681.333 374.003 681.077 373.822 680.768C373.651 680.448 373.566 680.075 373.566 679.648C373.566 679.168 373.651 678.768 373.822 678.448C374.003 678.128 374.243 677.872 374.542 677.68C374.84 677.488 375.182 677.355 375.566 677.28C375.95 677.195 376.355 677.152 376.782 677.152H379.454C379.454 676.629 379.379 676.171 379.23 675.776C379.091 675.371 378.856 675.051 378.526 674.816C378.206 674.581 377.774 674.464 377.23 674.464C376.942 674.464 376.664 674.496 376.398 674.56C376.131 674.624 375.891 674.731 375.678 674.88C375.475 675.019 375.315 675.211 375.198 675.456H373.982C374.078 675.083 374.238 674.768 374.462 674.512C374.696 674.256 374.968 674.053 375.278 673.904C375.587 673.744 375.912 673.632 376.254 673.568C376.595 673.504 376.92 673.472 377.23 673.472C378.03 673.472 378.675 673.637 379.166 673.968C379.656 674.288 380.008 674.747 380.222 675.344C380.446 675.931 380.558 676.624 380.558 677.424V682H379.582L379.534 680.848C379.299 681.168 379.016 681.419 378.686 681.6C378.366 681.781 378.019 681.909 377.646 681.984C377.283 682.059 376.91 682.096 376.526 682.096ZM376.638 681.104C377.16 681.104 377.635 681.019 378.062 680.848C378.488 680.667 378.824 680.4 379.07 680.048C379.326 679.696 379.454 679.259 379.454 678.736V678.096H377.566C377.235 678.096 376.899 678.107 376.558 678.128C376.216 678.139 375.907 678.192 375.63 678.288C375.352 678.373 375.128 678.517 374.958 678.72C374.787 678.912 374.702 679.189 374.702 679.552C374.702 679.915 374.792 680.213 374.974 680.448C375.155 680.672 375.395 680.837 375.694 680.944C375.992 681.051 376.307 681.104 376.638 681.104ZM386.345 682.096C385.46 682.096 384.724 681.915 384.137 681.552C383.561 681.179 383.129 680.667 382.841 680.016C382.553 679.365 382.409 678.629 382.409 677.808C382.409 676.997 382.558 676.267 382.857 675.616C383.156 674.955 383.604 674.432 384.201 674.048C384.798 673.664 385.556 673.472 386.473 673.472C387.017 673.472 387.508 673.563 387.945 673.744C388.382 673.915 388.75 674.176 389.049 674.528C389.348 674.869 389.561 675.296 389.689 675.808H388.521C388.35 675.328 388.073 674.987 387.689 674.784C387.316 674.571 386.884 674.464 386.393 674.464C385.721 674.464 385.177 674.624 384.761 674.944C384.345 675.253 384.036 675.664 383.833 676.176C383.641 676.677 383.545 677.221 383.545 677.808C383.545 678.405 383.641 678.955 383.833 679.456C384.036 679.957 384.345 680.357 384.761 680.656C385.188 680.955 385.732 681.104 386.393 681.104C386.873 681.104 387.321 681.003 387.737 680.8C388.153 680.597 388.441 680.251 388.601 679.76H389.785C389.657 680.293 389.417 680.736 389.065 681.088C388.724 681.429 388.313 681.685 387.833 681.856C387.364 682.016 386.868 682.096 386.345 682.096ZM393.573 682V674.56H390.565V673.568H397.685V674.56H394.693V682H393.573ZM398.917 682V673.568H400.069V676.88H402.036C402.506 676.88 402.943 676.917 403.349 676.992C403.754 677.056 404.106 677.179 404.405 677.36C404.714 677.541 404.954 677.792 405.125 678.112C405.295 678.432 405.381 678.843 405.381 679.344C405.381 679.813 405.301 680.219 405.141 680.56C404.981 680.891 404.751 681.163 404.453 681.376C404.165 681.589 403.823 681.749 403.429 681.856C403.034 681.952 402.602 682 402.133 682H398.917ZM400.069 681.024H401.237C401.61 681.024 401.973 681.013 402.325 680.992C402.677 680.96 402.997 680.896 403.285 680.8C403.583 680.704 403.818 680.544 403.989 680.32C404.159 680.096 404.245 679.787 404.245 679.392C404.245 679.029 404.17 678.747 404.021 678.544C403.871 678.341 403.679 678.192 403.445 678.096C403.21 677.989 402.954 677.925 402.677 677.904C402.399 677.872 402.122 677.856 401.845 677.856H400.069V681.024Z" fill="white" fill-opacity="0.64"/>
<g clip-path="url(#clip5_44_799)">
<path d="M178.901 680.436C178.901 680.436 181.643 682.661 186.14 681.658C190.403 680.711 194.378 679.635 201.056 682.047V696.326C201.056 696.326 194.914 693.398 189.319 694.704C183.725 696.01 180.562 695.509 178.901 693.848" fill="#E21B1B"/>
<path d="M179.088 679.492H178.026V711H179.088V679.492Z" fill="#999999"/>
<path d="M178.557 680.225C179.448 680.225 180.17 679.503 180.17 678.613C180.17 677.722 179.448 677 178.557 677C177.666 677 176.944 677.722 176.944 678.613C176.944 679.503 177.666 680.225 178.557 680.225Z" fill="#666666"/>
</g>
<path d="M111.49 734L115.138 728.336L111.602 722.688H113.042L115.89 727.392L118.722 722.688H120.146L116.626 728.288L120.274 734H118.866L115.874 729.264L112.866 734H111.49ZM125.267 734.096C124.382 734.096 123.646 733.915 123.059 733.552C122.473 733.179 122.035 732.667 121.747 732.016C121.459 731.365 121.315 730.624 121.315 729.792C121.315 728.96 121.465 728.224 121.763 727.584C122.062 726.933 122.505 726.421 123.091 726.048C123.678 725.664 124.398 725.472 125.251 725.472C125.87 725.472 126.409 725.589 126.867 725.824C127.337 726.048 127.726 726.357 128.035 726.752C128.345 727.147 128.569 727.595 128.707 728.096C128.857 728.597 128.931 729.115 128.931 729.648C128.931 729.744 128.931 729.835 128.931 729.92C128.931 730.005 128.926 730.091 128.915 730.176H122.451C122.494 730.741 122.622 731.248 122.835 731.696C123.049 732.133 123.358 732.48 123.763 732.736C124.179 732.981 124.697 733.104 125.315 733.104C125.603 733.104 125.897 733.072 126.195 733.008C126.494 732.933 126.766 732.811 127.011 732.64C127.257 732.459 127.438 732.224 127.555 731.936H128.739C128.59 732.437 128.339 732.848 127.987 733.168C127.635 733.488 127.219 733.723 126.739 733.872C126.259 734.021 125.769 734.096 125.267 734.096ZM122.483 729.2H127.795C127.785 728.677 127.673 728.213 127.459 727.808C127.246 727.392 126.953 727.067 126.579 726.832C126.206 726.587 125.747 726.464 125.203 726.464C124.638 726.464 124.158 726.592 123.763 726.848C123.369 727.104 123.065 727.44 122.851 727.856C122.649 728.272 122.526 728.72 122.483 729.2ZM130.838 737.12V725.568H131.926L131.974 726.992C132.305 726.469 132.721 726.085 133.222 725.84C133.734 725.595 134.305 725.472 134.934 725.472C135.788 725.472 136.486 725.664 137.03 726.048C137.574 726.432 137.98 726.955 138.246 727.616C138.513 728.267 138.646 728.997 138.646 729.808C138.646 730.64 138.508 731.381 138.23 732.032C137.964 732.683 137.548 733.189 136.982 733.552C136.428 733.915 135.724 734.096 134.87 734.096C134.476 734.096 134.097 734.053 133.734 733.968C133.372 733.883 133.041 733.744 132.742 733.552C132.444 733.349 132.188 733.099 131.974 732.8V737.12H130.838ZM134.822 733.104C135.484 733.104 136.006 732.955 136.39 732.656C136.785 732.347 137.068 731.941 137.238 731.44C137.42 730.939 137.51 730.389 137.51 729.792C137.51 729.184 137.42 728.629 137.238 728.128C137.057 727.627 136.764 727.227 136.358 726.928C135.953 726.619 135.42 726.464 134.758 726.464C134.15 726.464 133.633 726.619 133.206 726.928C132.79 727.237 132.476 727.648 132.262 728.16C132.049 728.672 131.942 729.221 131.942 729.808C131.942 730.437 132.044 731.003 132.246 731.504C132.46 731.995 132.78 732.384 133.206 732.672C133.644 732.96 134.182 733.104 134.822 733.104ZM144.251 734.096C143.366 734.096 142.63 733.915 142.043 733.552C141.467 733.179 141.035 732.667 140.747 732.016C140.459 731.365 140.315 730.629 140.315 729.808C140.315 728.997 140.465 728.267 140.763 727.616C141.062 726.955 141.51 726.432 142.107 726.048C142.705 725.664 143.462 725.472 144.379 725.472C144.923 725.472 145.414 725.563 145.851 725.744C146.289 725.915 146.657 726.176 146.955 726.528C147.254 726.869 147.467 727.296 147.595 727.808H146.427C146.257 727.328 145.979 726.987 145.595 726.784C145.222 726.571 144.79 726.464 144.299 726.464C143.627 726.464 143.083 726.624 142.667 726.944C142.251 727.253 141.942 727.664 141.739 728.176C141.547 728.677 141.451 729.221 141.451 729.808C141.451 730.405 141.547 730.955 141.739 731.456C141.942 731.957 142.251 732.357 142.667 732.656C143.094 732.955 143.638 733.104 144.299 733.104C144.779 733.104 145.227 733.003 145.643 732.8C146.059 732.597 146.347 732.251 146.507 731.76H147.691C147.563 732.293 147.323 732.736 146.971 733.088C146.63 733.429 146.219 733.685 145.739 733.856C145.27 734.016 144.774 734.096 144.251 734.096ZM153.143 734.096C152.258 734.096 151.517 733.915 150.919 733.552C150.322 733.179 149.874 732.667 149.575 732.016C149.287 731.365 149.143 730.624 149.143 729.792C149.143 728.949 149.287 728.208 149.575 727.568C149.874 726.917 150.322 726.405 150.919 726.032C151.517 725.659 152.263 725.472 153.159 725.472C154.045 725.472 154.781 725.659 155.367 726.032C155.965 726.405 156.407 726.917 156.695 727.568C156.994 728.208 157.143 728.949 157.143 729.792C157.143 730.624 156.994 731.365 156.695 732.016C156.397 732.667 155.949 733.179 155.351 733.552C154.765 733.915 154.029 734.096 153.143 734.096ZM153.143 733.104C153.805 733.104 154.349 732.96 154.775 732.672C155.202 732.373 155.517 731.973 155.719 731.472C155.922 730.971 156.023 730.411 156.023 729.792C156.023 729.173 155.922 728.613 155.719 728.112C155.517 727.611 155.202 727.211 154.775 726.912C154.349 726.613 153.805 726.464 153.143 726.464C152.482 726.464 151.938 726.613 151.511 726.912C151.085 727.211 150.77 727.611 150.567 728.112C150.375 728.613 150.279 729.173 150.279 729.792C150.279 730.411 150.375 730.971 150.567 731.472C150.77 731.973 151.085 732.373 151.511 732.672C151.938 732.96 152.482 733.104 153.143 733.104ZM159.026 734V725.568H160.162V729.376H164.802V725.568H165.922V734H164.802V730.352H160.162V734H159.026ZM171.751 734.096C170.866 734.096 170.13 733.915 169.543 733.552C168.967 733.179 168.535 732.667 168.247 732.016C167.959 731.365 167.815 730.629 167.815 729.808C167.815 728.997 167.965 728.267 168.263 727.616C168.562 726.955 169.01 726.432 169.607 726.048C170.205 725.664 170.962 725.472 171.879 725.472C172.423 725.472 172.914 725.563 173.351 725.744C173.789 725.915 174.157 726.176 174.455 726.528C174.754 726.869 174.967 727.296 175.095 727.808H173.927C173.757 727.328 173.479 726.987 173.095 726.784C172.722 726.571 172.29 726.464 171.799 726.464C171.127 726.464 170.583 726.624 170.167 726.944C169.751 727.253 169.442 727.664 169.239 728.176C169.047 728.677 168.951 729.221 168.951 729.808C168.951 730.405 169.047 730.955 169.239 731.456C169.442 731.957 169.751 732.357 170.167 732.656C170.594 732.955 171.138 733.104 171.799 733.104C172.279 733.104 172.727 733.003 173.143 732.8C173.559 732.597 173.847 732.251 174.007 731.76H175.191C175.063 732.293 174.823 732.736 174.471 733.088C174.13 733.429 173.719 733.685 173.239 733.856C172.77 734.016 172.274 734.096 171.751 734.096ZM176.963 734V725.568H178.099V729.296H179.811L182.371 725.568H183.651L180.835 729.6L183.907 734H182.595L179.955 730.272H178.099V734H176.963ZM187.651 734.096C187.309 734.096 186.963 734.053 186.611 733.968C186.259 733.872 185.939 733.728 185.651 733.536C185.363 733.333 185.128 733.077 184.947 732.768C184.776 732.448 184.691 732.075 184.691 731.648C184.691 731.168 184.776 730.768 184.947 730.448C185.128 730.128 185.368 729.872 185.667 729.68C185.965 729.488 186.307 729.355 186.691 729.28C187.075 729.195 187.48 729.152 187.907 729.152H190.579C190.579 728.629 190.504 728.171 190.355 727.776C190.216 727.371 189.981 727.051 189.651 726.816C189.331 726.581 188.899 726.464 188.355 726.464C188.067 726.464 187.789 726.496 187.523 726.56C187.256 726.624 187.016 726.731 186.803 726.88C186.6 727.019 186.44 727.211 186.323 727.456H185.107C185.203 727.083 185.363 726.768 185.587 726.512C185.821 726.256 186.093 726.053 186.403 725.904C186.712 725.744 187.037 725.632 187.379 725.568C187.72 725.504 188.045 725.472 188.355 725.472C189.155 725.472 189.8 725.637 190.291 725.968C190.781 726.288 191.133 726.747 191.347 727.344C191.571 727.931 191.683 728.624 191.683 729.424V734H190.707L190.659 732.848C190.424 733.168 190.141 733.419 189.811 733.6C189.491 733.781 189.144 733.909 188.771 733.984C188.408 734.059 188.035 734.096 187.651 734.096ZM187.763 733.104C188.285 733.104 188.76 733.019 189.187 732.848C189.613 732.667 189.949 732.4 190.195 732.048C190.451 731.696 190.579 731.259 190.579 730.736V730.096H188.691C188.36 730.096 188.024 730.107 187.683 730.128C187.341 730.139 187.032 730.192 186.755 730.288C186.477 730.373 186.253 730.517 186.083 730.72C185.912 730.912 185.827 731.189 185.827 731.552C185.827 731.915 185.917 732.213 186.099 732.448C186.28 732.672 186.52 732.837 186.819 732.944C187.117 733.051 187.432 733.104 187.763 733.104ZM193.342 734L195.598 730.624C194.958 730.475 194.441 730.208 194.046 729.824C193.662 729.429 193.47 728.891 193.47 728.208C193.47 727.696 193.55 727.269 193.71 726.928C193.87 726.587 194.094 726.32 194.382 726.128C194.67 725.925 195.011 725.781 195.406 725.696C195.811 725.611 196.259 725.568 196.75 725.568H200.126V734H198.99V730.784H196.798L194.67 734H193.342ZM197.582 729.808H198.99V726.56H196.974C196.643 726.56 196.334 726.576 196.046 726.608C195.769 726.64 195.523 726.709 195.31 726.816C195.097 726.923 194.926 727.083 194.798 727.296C194.681 727.499 194.622 727.776 194.622 728.128C194.622 728.523 194.707 728.832 194.878 729.056C195.059 729.28 195.294 729.445 195.582 729.552C195.87 729.659 196.19 729.728 196.542 729.76C196.894 729.792 197.241 729.808 197.582 729.808ZM210.331 734.096C209.446 734.096 208.704 733.915 208.107 733.552C207.51 733.179 207.062 732.667 206.763 732.016C206.475 731.365 206.331 730.624 206.331 729.792C206.331 728.949 206.475 728.208 206.763 727.568C207.062 726.917 207.51 726.405 208.107 726.032C208.704 725.659 209.451 725.472 210.347 725.472C211.232 725.472 211.968 725.659 212.555 726.032C213.152 726.405 213.595 726.917 213.883 727.568C214.182 728.208 214.331 728.949 214.331 729.792C214.331 730.624 214.182 731.365 213.883 732.016C213.584 732.667 213.136 733.179 212.539 733.552C211.952 733.915 211.216 734.096 210.331 734.096ZM210.331 733.104C210.992 733.104 211.536 732.96 211.963 732.672C212.39 732.373 212.704 731.973 212.907 731.472C213.11 730.971 213.211 730.411 213.211 729.792C213.211 729.173 213.11 728.613 212.907 728.112C212.704 727.611 212.39 727.211 211.963 726.912C211.536 726.613 210.992 726.464 210.331 726.464C209.67 726.464 209.126 726.613 208.699 726.912C208.272 727.211 207.958 727.611 207.755 728.112C207.563 728.613 207.467 729.173 207.467 729.792C207.467 730.411 207.563 730.971 207.755 731.472C207.958 731.973 208.272 732.373 208.699 732.672C209.126 732.96 209.67 733.104 210.331 733.104ZM219.89 734.096C219.303 734.096 218.791 734.011 218.354 733.84C217.927 733.659 217.57 733.408 217.282 733.088C216.994 732.768 216.759 732.395 216.578 731.968C216.407 731.541 216.279 731.088 216.194 730.608C216.119 730.117 216.082 729.611 216.082 729.088C216.082 728.331 216.103 727.616 216.146 726.944C216.199 726.272 216.327 725.669 216.53 725.136C216.732 724.592 217.058 724.139 217.506 723.776C217.954 723.413 218.572 723.163 219.362 723.024C219.82 722.939 220.274 722.869 220.722 722.816C221.17 722.763 221.612 722.709 222.05 722.656C222.178 722.635 222.311 722.613 222.45 722.592C222.588 722.571 222.732 722.549 222.882 722.528C223.042 722.496 223.191 722.469 223.33 722.448V723.488C223.223 723.531 223.084 723.568 222.914 723.6C222.743 723.621 222.562 723.648 222.37 723.68C222.178 723.701 221.986 723.723 221.794 723.744C221.612 723.755 221.442 723.771 221.282 723.792C221.132 723.803 221.01 723.813 220.914 723.824C220.53 723.867 220.135 723.92 219.73 723.984C219.335 724.037 218.962 724.144 218.61 724.304C218.268 724.453 217.98 724.715 217.746 725.088C217.586 725.344 217.463 725.637 217.378 725.968C217.292 726.299 217.234 726.629 217.202 726.96C217.17 727.28 217.148 727.568 217.138 727.824C217.362 727.419 217.644 727.104 217.986 726.88C218.327 726.645 218.69 726.48 219.074 726.384C219.458 726.277 219.82 726.224 220.162 726.224C220.919 726.224 221.564 726.384 222.098 726.704C222.631 727.024 223.031 727.472 223.298 728.048C223.575 728.624 223.714 729.291 223.714 730.048C223.714 730.816 223.564 731.509 223.266 732.128C222.967 732.736 222.53 733.216 221.954 733.568C221.388 733.92 220.7 734.096 219.89 734.096ZM219.922 733.104C220.498 733.104 220.983 732.971 221.378 732.704C221.772 732.427 222.071 732.059 222.274 731.6C222.487 731.141 222.594 730.64 222.594 730.096C222.594 729.552 222.492 729.067 222.29 728.64C222.087 728.203 221.788 727.861 221.394 727.616C221.01 727.36 220.535 727.232 219.97 727.232C219.426 727.232 218.951 727.365 218.546 727.632C218.151 727.899 217.842 728.251 217.618 728.688C217.394 729.125 217.282 729.605 217.282 730.128C217.282 730.661 217.378 731.157 217.57 731.616C217.772 732.064 218.066 732.427 218.45 732.704C218.844 732.971 219.335 733.104 219.922 733.104ZM224.742 734.032V733.024C224.956 733.013 225.142 732.965 225.302 732.88C225.473 732.795 225.617 732.677 225.734 732.528C225.926 732.293 226.07 731.968 226.166 731.552C226.262 731.125 226.326 730.667 226.358 730.176C226.401 729.675 226.428 729.168 226.438 728.656C226.46 728.133 226.476 727.616 226.486 727.104C226.508 726.581 226.524 726.069 226.534 725.568H232.31V734H231.174V726.544H227.638C227.628 726.949 227.612 727.355 227.59 727.76C227.58 728.155 227.564 728.549 227.542 728.944C227.532 729.339 227.516 729.739 227.494 730.144C227.473 730.613 227.42 731.12 227.334 731.664C227.249 732.197 227.073 732.672 226.806 733.088C226.593 733.429 226.332 733.669 226.022 733.808C225.713 733.947 225.286 734.021 224.742 734.032ZM237.182 734.096C236.841 734.096 236.494 734.053 236.142 733.968C235.79 733.872 235.47 733.728 235.182 733.536C234.894 733.333 234.659 733.077 234.478 732.768C234.307 732.448 234.222 732.075 234.222 731.648C234.222 731.168 234.307 730.768 234.478 730.448C234.659 730.128 234.899 729.872 235.198 729.68C235.497 729.488 235.838 729.355 236.222 729.28C236.606 729.195 237.011 729.152 237.438 729.152H240.11C240.11 728.629 240.035 728.171 239.886 727.776C239.747 727.371 239.513 727.051 239.182 726.816C238.862 726.581 238.43 726.464 237.886 726.464C237.598 726.464 237.321 726.496 237.054 726.56C236.787 726.624 236.547 726.731 236.334 726.88C236.131 727.019 235.971 727.211 235.854 727.456H234.638C234.734 727.083 234.894 726.768 235.118 726.512C235.353 726.256 235.625 726.053 235.934 725.904C236.243 725.744 236.569 725.632 236.91 725.568C237.251 725.504 237.577 725.472 237.886 725.472C238.686 725.472 239.331 725.637 239.822 725.968C240.313 726.288 240.665 726.747 240.878 727.344C241.102 727.931 241.214 728.624 241.214 729.424V734H240.238L240.19 732.848C239.955 733.168 239.673 733.419 239.342 733.6C239.022 733.781 238.675 733.909 238.302 733.984C237.939 734.059 237.566 734.096 237.182 734.096ZM237.294 733.104C237.817 733.104 238.291 733.019 238.718 732.848C239.145 732.667 239.481 732.4 239.726 732.048C239.982 731.696 240.11 731.259 240.11 730.736V730.096H238.222C237.891 730.096 237.555 730.107 237.214 730.128C236.873 730.139 236.563 730.192 236.286 730.288C236.009 730.373 235.785 730.517 235.614 730.72C235.443 730.912 235.358 731.189 235.358 731.552C235.358 731.915 235.449 732.213 235.63 732.448C235.811 732.672 236.051 732.837 236.35 732.944C236.649 733.051 236.963 733.104 237.294 733.104ZM247.001 734.096C246.116 734.096 245.38 733.915 244.793 733.552C244.217 733.179 243.785 732.667 243.497 732.016C243.209 731.365 243.065 730.629 243.065 729.808C243.065 728.997 243.215 728.267 243.513 727.616C243.812 726.955 244.26 726.432 244.857 726.048C245.455 725.664 246.212 725.472 247.129 725.472C247.673 725.472 248.164 725.563 248.601 725.744C249.039 725.915 249.407 726.176 249.705 726.528C250.004 726.869 250.217 727.296 250.345 727.808H249.177C249.007 727.328 248.729 726.987 248.345 726.784C247.972 726.571 247.54 726.464 247.049 726.464C246.377 726.464 245.833 726.624 245.417 726.944C245.001 727.253 244.692 727.664 244.489 728.176C244.297 728.677 244.201 729.221 244.201 729.808C244.201 730.405 244.297 730.955 244.489 731.456C244.692 731.957 245.001 732.357 245.417 732.656C245.844 732.955 246.388 733.104 247.049 733.104C247.529 733.104 247.977 733.003 248.393 732.8C248.809 732.597 249.097 732.251 249.257 731.76H250.441C250.313 732.293 250.073 732.736 249.721 733.088C249.38 733.429 248.969 733.685 248.489 733.856C248.02 734.016 247.524 734.096 247.001 734.096ZM254.229 734V726.56H251.221V725.568H258.341V726.56H255.349V734H254.229ZM259.573 734V725.568H260.725V728.88H262.693C263.162 728.88 263.599 728.917 264.005 728.992C264.41 729.056 264.762 729.179 265.061 729.36C265.37 729.541 265.61 729.792 265.781 730.112C265.951 730.432 266.037 730.843 266.037 731.344C266.037 731.813 265.957 732.219 265.797 732.56C265.637 732.891 265.407 733.163 265.109 733.376C264.821 733.589 264.479 733.749 264.085 733.856C263.69 733.952 263.258 734 262.789 734H259.573ZM260.725 733.024H261.893C262.266 733.024 262.629 733.013 262.981 732.992C263.333 732.96 263.653 732.896 263.941 732.8C264.239 732.704 264.474 732.544 264.645 732.32C264.815 732.096 264.901 731.787 264.901 731.392C264.901 731.029 264.826 730.747 264.677 730.544C264.527 730.341 264.335 730.192 264.101 730.096C263.866 729.989 263.61 729.925 263.333 729.904C263.055 729.872 262.778 729.856 262.501 729.856H260.725V733.024Z" fill="white" fill-opacity="0.64"/>
<defs>
<clipPath id="clip0_44_799">
<rect width="34" height="34" fill="white" transform="translate(370 48)"/>
</clipPath>
<clipPath id="clip1_44_799">
<rect width="34" height="34" fill="white" transform="translate(483 171)"/>
</clipPath>
<clipPath id="clip2_44_799">
<rect width="34" height="34" fill="white" transform="translate(607 387)"/>
</clipPath>
<clipPath id="clip3_44_799">
<rect width="34" height="34" fill="white" transform="translate(512 548)"/>
</clipPath>
<clipPath id="clip4_44_799">
<rect width="34" height="34" fill="white" transform="translate(358.5 605)"/>
</clipPath>
<clipPath id="clip5_44_799">
<rect width="34" height="34" fill="white" transform="translate(172 677)"/>
</clipPath>
</defs>
</svg>
