<svg width="42" height="42" viewBox="0 0 42 42" fill="none" xmlns="http://www.w3.org/2000/svg">
<g clip-path="url(#clip0_81_718)">
<path d="M35.8493 6.1507C31.8828 2.18441 26.6093 0 21 0C15.3907 0 10.1172 2.18441 6.1507 6.1507C2.18441 10.1172 0 15.3907 0 21C0 26.6093 2.18441 31.8828 6.1507 35.8493C10.1172 39.8156 15.3907 42 21 42C26.6093 42 31.8828 39.8156 35.8493 35.8493C39.8156 31.8828 42 26.6093 42 21C42 15.3907 39.8156 10.1172 35.8493 6.1507ZM21 38.7188C11.2298 38.7188 3.28125 30.7702 3.28125 21C3.28125 11.2298 11.2298 3.28125 21 3.28125C30.7702 3.28125 38.7188 11.2298 38.7188 21C38.7188 30.7702 30.7702 38.7188 21 38.7188Z" fill="#CC423F"/>
<path d="M21 7.21875C13.401 7.21875 7.21875 13.401 7.21875 21C7.21875 28.599 13.401 34.7812 21 34.7812C23.1034 34.7812 25.1246 34.3171 27.0076 33.4018C27.8225 33.0057 28.1619 32.0239 27.7658 31.209C27.3696 30.3941 26.3879 30.0546 25.573 30.4508C24.1408 31.1469 22.6022 31.5 21 31.5C15.2102 31.5 10.5 26.7897 10.5 21C10.5 15.2103 15.2102 10.5 21 10.5C26.7898 10.5 31.5 15.2103 31.5 21C31.5 22.5543 31.167 24.0509 30.5103 25.4484C30.1249 26.2685 30.4773 27.2457 31.2974 27.631C32.1174 28.0166 33.0947 27.664 33.48 26.844C34.3434 25.0067 34.7812 23.0404 34.7812 21C34.7812 13.401 28.599 7.21875 21 7.21875Z" fill="#CC423F"/>
<path d="M23.2474 17.8997L20.1991 20.9481L18.7526 19.5016C18.1119 18.8608 17.0731 18.8609 16.4324 19.5017C15.7918 20.1424 15.7917 21.1812 16.4324 21.8218L19.039 24.4283C19.3593 24.7486 19.7792 24.9088 20.1991 24.9088C20.619 24.9088 21.0388 24.7486 21.3591 24.4283L25.5676 20.2199C26.2083 19.5791 26.2083 18.5403 25.5676 17.8997C24.9269 17.259 23.8881 17.259 23.2474 17.8997Z" fill="#CC423F"/>
</g>
<defs>
<clipPath id="clip0_81_718">
<rect width="42" height="42" fill="white"/>
</clipPath>
</defs>
</svg>
