<svg width="84" height="85" viewBox="0 0 84 85" fill="none" xmlns="http://www.w3.org/2000/svg">
<circle cx="42" cy="42.6833" r="42" fill="#CC423F" fill-opacity="0.16"/>
<circle cx="42" cy="42.6833" r="26" fill="#CC423F"/>
<path d="M32.4091 36.5583C32.4091 33.5028 34.8307 31.0167 37.8068 31.0167H48.1852C47.8114 29.6738 46.6193 28.6833 45.1932 28.6833H32.125C30.4011 28.6833 29 30.1218 29 31.8917V49.975C29 51.7449 30.4011 53.1833 32.125 53.1833H32.4091V36.5583Z" fill="#24252A"/>
<path d="M50.875 33.35H37.8068C36.083 33.35 34.6818 34.7885 34.6818 36.5583V53.475C34.6818 55.2449 36.083 56.6833 37.8068 56.6833H50.875C52.5989 56.6833 54 55.2449 54 53.475V36.5583C54 34.7885 52.5989 33.35 50.875 33.35ZM48.6023 53.1833H40.0795C39.6091 53.1833 39.2273 52.7913 39.2273 52.3083C39.2273 51.8253 39.6091 51.4333 40.0795 51.4333H48.6023C49.0727 51.4333 49.4545 51.8253 49.4545 52.3083C49.4545 52.7913 49.0727 53.1833 48.6023 53.1833ZM48.6023 48.5167H40.0795C39.6091 48.5167 39.2273 48.1247 39.2273 47.6417C39.2273 47.1587 39.6091 46.7667 40.0795 46.7667H48.6023C49.0727 46.7667 49.4545 47.1587 49.4545 47.6417C49.4545 48.1247 49.0727 48.5167 48.6023 48.5167ZM48.6023 44.4333H40.0795C39.6091 44.4333 39.2273 44.0413 39.2273 43.5583C39.2273 43.0753 39.6091 42.6833 40.0795 42.6833H48.6023C49.0727 42.6833 49.4545 43.0753 49.4545 43.5583C49.4545 44.0413 49.0727 44.4333 48.6023 44.4333ZM48.6023 39.7667H40.0795C39.6091 39.7667 39.2273 39.3747 39.2273 38.8917C39.2273 38.4087 39.6091 38.0167 40.0795 38.0167H48.6023C49.0727 38.0167 49.4545 38.4087 49.4545 38.8917C49.4545 39.3747 49.0727 39.7667 48.6023 39.7667Z" fill="#24252A"/>
</svg>
