<svg width="84" height="85" viewBox="0 0 84 85" fill="none" xmlns="http://www.w3.org/2000/svg">
<path d="M84 42.6833C84 65.8793 65.196 84.6833 42 84.6833C18.804 84.6833 0 65.8793 0 42.6833C0 19.4874 18.804 0.68335 42 0.68335C65.196 0.68335 84 19.4874 84 42.6833Z" fill="#CC423F" fill-opacity="0.16"/>
<circle cx="42" cy="42.6833" r="26" fill="#CC423F"/>
<path d="M45.847 43.7459L43.6694 45.8972C42.7864 46.7697 41.2327 46.7885 40.3306 45.8972L38.1529 43.7459L30.3318 51.4717C30.6229 51.6042 30.9439 51.6833 31.2852 51.6833H52.7148C53.0561 51.6833 53.377 51.6044 53.668 51.4718L45.847 43.7459Z" fill="#24252A"/>
<path d="M52.7148 33.6833H31.2852C30.9439 33.6833 30.6229 33.7624 30.3319 33.895L38.6893 42.1511C38.6899 42.1517 38.6905 42.1518 38.6911 42.1524C38.6917 42.1529 38.6918 42.1537 38.6918 42.1537L41.4092 44.8382C41.6979 45.1223 42.3022 45.1223 42.5909 44.8382L45.3078 42.1541C45.3078 42.1541 45.3084 42.1529 45.309 42.1524C45.309 42.1524 45.3102 42.1517 45.3108 42.1511L53.668 33.8949C53.377 33.7623 53.0561 33.6833 52.7148 33.6833Z" fill="#24252A"/>
<path d="M29.243 34.9439C29.0924 35.2438 29 35.5767 29 35.9333V49.4333C29 49.7899 29.0923 50.1229 29.243 50.4228L37.0777 42.6836L29.243 34.9439Z" fill="#24252A"/>
<path d="M54.757 34.9438L46.9224 42.6836L54.757 50.4228C54.9076 50.1229 55 49.7901 55 49.4333V35.9333C55 35.5766 54.9076 35.2437 54.757 34.9438Z" fill="#24252A"/>
</svg>
