<svg width="84" height="85" viewBox="0 0 84 85" fill="none" xmlns="http://www.w3.org/2000/svg">
<circle cx="42" cy="42.6833" r="42" fill="#CC423F" fill-opacity="0.16"/>
<circle cx="42" cy="42.6833" r="26" fill="#CC423F"/>
<path fill-rule="evenodd" clip-rule="evenodd" d="M54.5936 40.9357C56.2756 50.5972 50.5123 55.6472 42.4999 58.6833C34.4873 55.6472 28.7241 50.5972 30.4061 40.9357C31.1947 36.4066 31.0537 34.8958 28.227 31.6613C27.8561 31.2369 27.9511 30.5912 28.4288 30.2907L32.4437 27.7657C32.9368 27.4555 33.5639 27.5293 33.971 27.9452C35.5411 29.5498 38.505 29.9819 40.6575 27.5194C41.6318 26.4046 43.3682 26.4047 44.3425 27.5194C46.4949 29.9819 49.4589 29.5498 51.0291 27.9452C51.4362 27.5292 52.0631 27.4555 52.5563 27.7657L56.5712 30.2907C57.0488 30.5912 57.1439 31.2369 56.773 31.6613C53.9463 34.8958 53.805 36.4066 54.5936 40.9357ZM50.9875 40.7676C49.2405 37.9236 46.0929 36.0255 42.4998 36.0255C38.9066 36.0255 35.759 37.9236 34.012 40.7676C35.759 43.6116 38.9066 45.5096 42.4998 45.5096C46.0929 45.5096 49.2405 43.6116 50.9875 40.7676ZM47.0937 40.7676C47.0937 43.2872 45.0301 45.3422 42.4998 45.3422C39.9694 45.3422 37.9059 43.2872 37.9059 40.7676C37.9059 38.2481 39.9696 36.193 42.4998 36.193C45.0299 36.193 47.0937 38.248 47.0937 40.7676ZM42.8222 38.9151C42.8222 37.8865 41.9797 37.0474 40.9466 37.0474C39.9136 37.0474 39.0711 37.8865 39.0711 38.9151C39.0711 39.9437 39.9137 40.7828 40.9466 40.7828C41.9796 40.7828 42.8222 39.9437 42.8222 38.9151Z" fill="#24252A"/>
</svg>
