<svg width="84" height="85" viewBox="0 0 84 85" fill="none" xmlns="http://www.w3.org/2000/svg">
<circle cx="42" cy="42.6833" r="42" fill="#CC423F" fill-opacity="0.16"/>
<circle cx="42" cy="42.6833" r="26" fill="#CC423F"/>
<path d="M42.8145 30.3091L39.5463 32.8899C39.3212 33.0677 39.1899 33.3387 39.1899 33.6256V35.4776C41.2452 33.9356 43.2725 32.6359 45.2621 31.5859L44.0581 30.3819C43.722 30.0457 43.1874 30.0144 42.8145 30.3091Z" fill="#24252A"/>
<path d="M49.5409 45.8106H51.3749C51.6617 45.8106 51.9328 45.6792 52.1105 45.4541L54.6913 42.1859C54.9859 41.8129 54.9546 41.2784 54.6185 40.9422L53.4448 39.7686C52.5069 41.5316 51.243 43.555 49.5409 45.8106Z" fill="#24252A"/>
<path d="M47.8777 44.8979C54.0295 36.8224 54.2627 31.9496 54.2704 31.6951C54.287 31.1455 53.8284 30.6992 53.2795 30.731C53.0196 30.746 48.0668 31.1128 40.1136 37.1337L47.8777 44.8979Z" fill="#24252A"/>
<path d="M55.607 34.577C55.4091 35.2569 55.1385 36.0503 54.7683 36.9506C57.0863 41.8405 56.4731 47.919 52.6281 52.2995L32.7009 32.3721C37.1339 28.481 43.2473 27.9347 48.0932 30.2524C48.9893 29.8835 49.779 29.6117 50.4531 29.412C44.3199 25.5914 36.0969 26.2806 30.6904 31.6871C26.2715 36.1061 25.0078 42.4083 26.7687 47.8969C27.1926 47.264 27.6663 46.6163 28.1899 45.9551C27.2892 41.7191 28.3358 37.1605 31.3753 33.6977L51.3026 53.625C47.8423 56.6623 43.2824 57.7114 39.0453 56.8104C38.3839 57.334 37.7363 57.8078 37.1034 58.2317C42.5828 59.9896 48.8855 58.7375 53.3131 54.31C58.7178 48.9052 59.401 40.6978 55.607 34.577Z" fill="#24252A"/>
<path d="M44.2537 49.2272L35.775 40.7484C34.508 41.8992 33.0282 43.3298 31.8243 44.6179L40.3825 53.1761C41.6602 51.9818 43.1007 50.493 44.2537 49.2272Z" fill="#24252A"/>
<path d="M30.5704 46.015C28.7104 48.1813 27.4031 50.1736 26.6717 51.9621C25.3677 55.1511 26.2049 56.9315 27.1369 57.8634C28.7011 59.4278 30.9798 59.1702 33.0382 58.3285C34.8267 57.5972 36.819 56.2898 38.9853 54.4298L30.5704 46.015Z" fill="#24252A"/>
</svg>
